<?xml version="1.0" encoding="UTF-8"?>
<svg xmlns="http://www.w3.org/2000/svg" xmlns:xlink="http://www.w3.org/1999/xlink" width="375pt" height="374.999991pt" viewBox="0 0 375 374.999991" version="1.2">
<defs>
<clipPath id="clip1">
  <path d="M 254 98 L 374.597656 98 L 374.597656 189 L 254 189 Z M 254 98 "/>
</clipPath>
<clipPath id="clip2">
  <path d="M 225 30.144531 L 301 30.144531 L 301 128 L 225 128 Z M 225 30.144531 "/>
</clipPath>
<clipPath id="clip3">
  <path d="M 53.046875 262 L 308 262 L 308 345 L 53.046875 345 Z M 53.046875 262 "/>
</clipPath>
</defs>
<g id="surface1">
<rect x="0" y="0" width="375" height="374.999991" style="fill:rgb(100%,100%,100%);fill-opacity:1;stroke:none;"/>
<rect x="0" y="0" width="375" height="374.999991" style="fill:rgb(100%,100%,100%);fill-opacity:1;stroke:none;"/>
<rect x="0" y="0" width="375" height="374.999991" style="fill:rgb(100%,100%,100%);fill-opacity:1;stroke:none;"/>
<path style=" stroke:none;fill-rule:nonzero;fill:rgb(0%,0%,0%);fill-opacity:1;" d="M 223.089844 96.257812 C 227.003906 97.355469 231.183594 98.859375 235.566406 100.859375 L 245.003906 87.703125 C 237.960938 84.578125 231.3125 82.511719 225.167969 81.1875 C 225.179688 81.671875 225.203125 82.148438 225.203125 82.632812 C 225.203125 87.382812 224.460938 91.960938 223.089844 96.257812 Z M 223.089844 96.257812 "/>
<g clip-path="url(#clip1)" clip-rule="nonzero">
<path style=" stroke:none;fill-rule:nonzero;fill:rgb(0%,0%,0%);fill-opacity:1;" d="M 254.933594 112.546875 C 262.808594 118.527344 270.976562 126.292969 279.144531 136.398438 C 317.945312 184.386719 353.355469 188.902344 365.316406 188.902344 C 367.777344 188.902344 369.246094 188.710938 369.546875 188.667969 L 368.035156 177.921875 C 367.695312 177.964844 336.824219 181.464844 299.335938 142.886719 C 328.203125 164.976562 351.832031 168.726562 364.523438 168.726562 C 370.546875 168.726562 374.109375 167.882812 374.589844 167.761719 L 371.9375 157.238281 C 371.574219 157.328125 335.132812 165.871094 286.917969 117.507812 C 279.277344 109.84375 271.765625 103.6875 264.484375 98.695312 Z M 254.933594 112.546875 "/>
</g>
<g clip-path="url(#clip2)" clip-rule="nonzero">
<path style=" stroke:none;fill-rule:nonzero;fill:rgb(0%,0%,0%);fill-opacity:1;" d="M 251.378906 125.027344 C 252.535156 123.496094 250.324219 119.746094 246.183594 115.699219 L 300.875 36.351562 L 292.441406 30.859375 L 236.804688 108.425781 C 231.402344 105.125 226.761719 103.765625 225.535156 105.386719 C 224.285156 107.042969 226.96875 111.285156 231.765625 115.699219 C 230.878906 116.980469 229.496094 118.960938 227.644531 121.566406 C 230.722656 122.890625 234.136719 124.808594 237.644531 127.585938 C 238.863281 125.96875 240.082031 124.34375 241.308594 122.699219 C 246.1875 125.476562 250.246094 126.527344 251.378906 125.027344 Z M 251.378906 125.027344 "/>
</g>
<g clip-path="url(#clip3)" clip-rule="nonzero">
<path style=" stroke:none;fill-rule:nonzero;fill:rgb(0%,0%,0%);fill-opacity:1;" d="M 59.101562 307.945312 C 59.0625 307.988281 59.023438 308.027344 58.984375 308.066406 C 58.980469 308.074219 58.960938 308.089844 58.957031 308.097656 C 58.890625 308.164062 58.839844 308.238281 58.777344 308.308594 C 58.367188 308.753906 57.96875 309.214844 57.59375 309.695312 C 57.382812 309.96875 57.199219 310.25 57.003906 310.53125 C 56.800781 310.820312 56.589844 311.101562 56.402344 311.398438 C 56.164062 311.773438 55.957031 312.15625 55.746094 312.542969 C 55.625 312.765625 55.492188 312.984375 55.375 313.210938 C 55.171875 313.621094 54.988281 314.039062 54.8125 314.457031 C 54.714844 314.683594 54.609375 314.90625 54.519531 315.136719 C 54.367188 315.535156 54.234375 315.933594 54.109375 316.339844 C 54.019531 316.613281 53.925781 316.882812 53.847656 317.160156 C 53.75 317.515625 53.671875 317.871094 53.59375 318.226562 C 53.515625 318.566406 53.433594 318.90625 53.371094 319.25 C 53.320312 319.550781 53.285156 319.855469 53.246094 320.15625 C 53.191406 320.558594 53.136719 320.960938 53.105469 321.367188 C 53.085938 321.628906 53.082031 321.894531 53.074219 322.160156 C 53.054688 322.597656 53.035156 323.035156 53.046875 323.476562 C 53.054688 323.746094 53.078125 324.019531 53.09375 324.289062 C 53.121094 324.710938 53.140625 325.132812 53.191406 325.558594 C 53.234375 325.917969 53.300781 326.277344 53.363281 326.636719 C 53.417969 326.964844 53.460938 327.289062 53.53125 327.617188 C 53.664062 328.222656 53.828125 328.820312 54.011719 329.417969 C 54.035156 329.492188 54.046875 329.570312 54.070312 329.648438 C 54.074219 329.65625 54.078125 329.664062 54.078125 329.667969 C 54.160156 329.921875 54.261719 330.167969 54.351562 330.417969 C 54.484375 330.785156 54.617188 331.152344 54.765625 331.507812 C 54.875 331.761719 54.996094 332.011719 55.113281 332.261719 C 55.28125 332.617188 55.453125 332.972656 55.636719 333.316406 C 55.757812 333.539062 55.878906 333.757812 56.007812 333.976562 C 56.234375 334.371094 56.480469 334.753906 56.730469 335.128906 C 56.839844 335.289062 56.941406 335.453125 57.054688 335.613281 C 57.847656 336.730469 58.738281 337.757812 59.714844 338.691406 C 59.746094 338.722656 59.769531 338.757812 59.804688 338.785156 C 59.878906 338.859375 59.957031 338.914062 60.03125 338.980469 C 60.398438 339.324219 60.78125 339.652344 61.171875 339.964844 C 61.339844 340.101562 61.511719 340.234375 61.6875 340.367188 C 62.019531 340.617188 62.363281 340.855469 62.710938 341.085938 C 62.914062 341.222656 63.117188 341.363281 63.328125 341.492188 C 63.691406 341.71875 64.070312 341.925781 64.449219 342.128906 C 64.832031 342.335938 65.214844 342.523438 65.601562 342.703125 C 65.921875 342.851562 66.238281 343.003906 66.566406 343.132812 C 66.839844 343.246094 67.117188 343.339844 67.394531 343.441406 C 67.714844 343.554688 68.039062 343.664062 68.363281 343.765625 C 68.621094 343.84375 68.878906 343.917969 69.140625 343.984375 C 69.515625 344.085938 69.894531 344.175781 70.277344 344.253906 C 70.492188 344.300781 70.707031 344.34375 70.921875 344.382812 C 71.40625 344.46875 71.902344 344.535156 72.394531 344.589844 C 72.511719 344.601562 72.628906 344.621094 72.746094 344.628906 C 73.382812 344.6875 74.023438 344.722656 74.671875 344.722656 C 75.335938 344.722656 76.003906 344.683594 76.671875 344.621094 C 76.820312 344.605469 76.964844 344.585938 77.113281 344.566406 C 77.609375 344.511719 78.105469 344.4375 78.601562 344.34375 C 78.8125 344.304688 79.023438 344.265625 79.230469 344.222656 C 79.671875 344.125 80.113281 344.007812 80.554688 343.886719 C 80.769531 343.824219 80.980469 343.773438 81.195312 343.707031 C 81.226562 343.695312 81.257812 343.691406 81.289062 343.679688 C 118.355469 331.746094 180.84375 319.785156 203.726562 330.59375 C 214.539062 335.695312 227.433594 331.039062 232.523438 320.195312 C 237.609375 309.34375 232.96875 296.414062 222.15625 291.308594 C 195.9375 278.933594 154.671875 282.632812 121.292969 288.960938 L 120.855469 284.777344 C 138.242188 281.5 157.730469 278.949219 176.296875 278.949219 C 195.816406 278.949219 211.839844 281.84375 223.921875 287.542969 C 236.785156 293.617188 242.328125 309.058594 236.277344 321.964844 C 234.558594 325.617188 232.03125 328.734375 228.976562 331.164062 C 247.160156 334.46875 265.3125 339.070312 279.664062 343.679688 C 281.847656 344.382812 284.074219 344.71875 286.277344 344.71875 C 293.558594 344.71875 300.550781 341.015625 304.589844 334.574219 C 309.855469 326.1875 308.789062 315.292969 301.996094 308.089844 C 300.652344 306.664062 277.390625 282.261719 243.992188 262.609375 C 225.296875 272.910156 200.464844 274.210938 189.199219 274.210938 C 186.300781 274.210938 184.257812 274.132812 183.300781 274.082031 C 182.332031 274.035156 181.398438 273.890625 180.476562 273.699219 C 179.558594 273.890625 178.621094 274.035156 177.65625 274.082031 C 176.695312 274.132812 174.652344 274.210938 171.757812 274.210938 C 160.488281 274.210938 135.65625 272.910156 116.960938 262.609375 C 84.265625 281.851562 61.3125 305.613281 59.101562 307.945312 Z M 59.101562 307.945312 "/>
</g>
<path style=" stroke:none;fill-rule:nonzero;fill:rgb(0%,0%,0%);fill-opacity:1;" d="M 152.203125 332.230469 C 151.230469 332.347656 150.25 332.484375 149.269531 332.617188 C 150.25 332.558594 151.226562 332.425781 152.203125 332.230469 Z M 152.203125 332.230469 "/>
<path style=" stroke:none;fill-rule:nonzero;fill:rgb(0%,0%,0%);fill-opacity:1;" d="M 108.578125 251.417969 C 125.789062 268.199219 158.253906 270.058594 171.757812 270.058594 C 172.085938 270.058594 172.394531 270.054688 172.699219 270.054688 C 168.171875 266.4375 165.371094 260.769531 165.683594 254.542969 C 165.953125 249.113281 168.535156 244.335938 172.433594 241.113281 C 159.808594 241.207031 137.207031 238.96875 128.691406 230.667969 C 126.664062 228.691406 125.863281 226.707031 125.925781 223.839844 C 126.59375 193.386719 131.433594 175.859375 136.335938 165.847656 L 140.304688 167.261719 C 137.066406 173.707031 133.675781 183.953125 131.703125 200.007812 L 131.703125 227.789062 C 138.34375 234.089844 157.054688 236.964844 171.722656 236.964844 C 173.226562 236.964844 174.597656 236.933594 175.789062 236.871094 C 176.101562 236.855469 176.398438 236.847656 176.691406 236.847656 C 177.988281 236.847656 179.253906 236.988281 180.480469 237.242188 C 181.703125 236.988281 182.96875 236.847656 184.269531 236.847656 C 184.558594 236.847656 184.855469 236.855469 185.167969 236.871094 C 186.363281 236.933594 187.734375 236.964844 189.234375 236.964844 C 203.902344 236.964844 222.617188 234.089844 229.257812 227.785156 L 229.257812 200.027344 C 227.285156 183.964844 223.894531 173.710938 220.652344 167.265625 L 224.621094 165.847656 C 229.523438 175.863281 234.367188 193.386719 235.03125 223.839844 C 235.097656 226.710938 234.296875 228.695312 232.265625 230.667969 C 222.882812 239.824219 196.339844 241.613281 184.957031 241.027344 C 177.019531 240.65625 170.222656 246.773438 169.824219 254.757812 C 169.421875 262.738281 175.550781 269.535156 183.507812 269.9375 C 184.355469 269.980469 186.359375 270.058594 189.199219 270.058594 C 202.707031 270.058594 235.171875 268.207031 252.378906 251.421875 C 260.140625 243.851562 264.117188 234.09375 263.878906 223.203125 C 262.046875 139.53125 230.136719 126.417969 218.628906 124.414062 C 217.566406 124.152344 216.460938 123.996094 215.316406 123.996094 L 197.796875 123.996094 C 192.464844 126.25 186.617188 127.5 180.480469 127.5 C 174.34375 127.5 168.492188 126.25 163.164062 123.996094 L 145.640625 123.996094 C 144.5 123.996094 143.398438 124.148438 142.335938 124.410156 C 135.109375 125.667969 119.828125 131.316406 109.003906 156.089844 C 102.601562 170.75 97.757812 192.09375 97.078125 223.203125 C 96.839844 234.089844 100.816406 243.851562 108.578125 251.417969 Z M 108.578125 251.417969 "/>
<path style=" stroke:none;fill-rule:nonzero;fill:rgb(0%,0%,0%);fill-opacity:1;" d="M 221.058594 82.632812 C 221.058594 60.152344 202.894531 41.929688 180.480469 41.929688 C 158.070312 41.929688 139.902344 60.152344 139.902344 82.632812 C 139.902344 105.113281 158.070312 123.335938 180.480469 123.335938 C 202.890625 123.335938 221.058594 105.113281 221.058594 82.632812 Z M 151.585938 82.15625 C 151.585938 75.984375 209.375 75.984375 209.375 82.15625 C 209.375 88.328125 196.4375 93.328125 180.480469 93.328125 C 164.519531 93.328125 151.585938 88.324219 151.585938 82.15625 Z M 151.585938 82.15625 "/>
</g>
</svg>
