<?xml version="1.0" encoding="UTF-8"?>
<svg xmlns="http://www.w3.org/2000/svg" xmlns:xlink="http://www.w3.org/1999/xlink" width="375pt" height="374.999991pt" viewBox="0 0 375 374.999991" version="1.2">
<g id="surface1">
<rect x="0" y="0" width="375" height="374.999991" style="fill:rgb(100%,100%,100%);fill-opacity:1;stroke:none;"/>
<rect x="0" y="0" width="375" height="374.999991" style="fill:rgb(100%,100%,100%);fill-opacity:1;stroke:none;"/>
<rect x="0" y="0" width="375" height="374.999991" style="fill:rgb(100%,100%,100%);fill-opacity:1;stroke:none;"/>
<path style=" stroke:none;fill-rule:evenodd;fill:rgb(0%,37.649536%,39.219666%);fill-opacity:1;" d="M 338.25 126.03125 L 322.875 126.03125 L 322.875 51.289062 C 322.875 34.566406 307.5 34.566406 307.5 34.566406 L 30.75 34.566406 C 30.75 34.566406 15.375 34.566406 15.375 51.289062 L 15.375 275.351562 C 15.375 292.078125 30.75 292.078125 30.75 292.078125 L 199.875 292.078125 L 199.875 325.765625 L 199.957031 325.765625 L 199.957031 340.808594 L 230.625 340.808594 L 230.625 356.332031 L 108.105469 356.332031 L 108.105469 340.808594 L 138.777344 340.808594 L 138.777344 308.242188 L 30.75 308.242188 C 30.75 308.242188 0 308.242188 0 275.992188 L 0 50.648438 C 0 18.480469 30.75 18.480469 30.75 18.480469 L 307.5 18.480469 C 307.5 18.480469 338.25 18.480469 338.25 50.648438 Z M 199.875 243.824219 L 15.375 243.824219 L 15.375 227.738281 L 199.875 227.738281 Z M 169.125 275.992188 C 164.882812 275.992188 161.4375 272.390625 161.4375 267.988281 C 161.4375 263.507812 164.882812 259.90625 169.125 259.90625 C 173.371094 259.90625 176.8125 263.507812 176.8125 267.988281 C 176.8125 272.390625 173.371094 275.992188 169.125 275.992188 Z M 169.125 275.992188 "/>
<path style=" stroke:none;fill-rule:evenodd;fill:rgb(0%,37.649536%,39.219666%);fill-opacity:1;" d="M 338.25 216.457031 C 338.25 173.242188 338.332031 133.714844 338.332031 133.714844 L 199.875 133.714844 C 199.875 133.714844 199.875 325.765625 199.796875 325.765625 C 199.796875 325.765625 248.964844 325.765625 288.683594 325.765625 L 288.683594 356.492188 L 199.796875 356.492188 C 191.308594 356.492188 184.5 349.613281 184.5 341.128906 L 184.5 126.03125 C 184.5 117.46875 191.386719 110.667969 199.796875 110.667969 L 338.332031 110.667969 C 346.820312 110.667969 353.625 117.546875 353.625 126.03125 L 353.625 216.457031 Z M 269.0625 348.8125 C 273.308594 348.8125 276.75 345.371094 276.75 341.128906 C 276.75 336.886719 273.308594 333.449219 269.0625 333.449219 C 264.820312 333.449219 261.375 336.886719 261.375 341.128906 C 261.375 345.371094 264.820312 348.8125 269.0625 348.8125 Z M 269.0625 348.8125 "/>
<path style=" stroke:none;fill-rule:evenodd;fill:rgb(0%,37.649536%,39.219666%);fill-opacity:1;" d="M 284.277344 202.851562 L 361.472656 202.851562 C 365.476562 202.851562 369 206.371094 369 210.695312 L 369 348.652344 C 369 352.972656 365.636719 356.492188 361.472656 356.492188 L 284.277344 356.492188 C 280.273438 356.492188 276.75 352.972656 276.75 348.652344 L 276.75 210.695312 C 276.75 206.371094 280.113281 202.851562 284.277344 202.851562 Z M 292.125 325.765625 L 353.625 325.765625 L 353.625 218.214844 L 292.125 218.214844 Z M 322.875 348.8125 C 327.121094 348.8125 330.5625 345.371094 330.5625 341.128906 C 330.5625 336.886719 327.121094 333.449219 322.875 333.449219 C 318.632812 333.449219 315.1875 336.886719 315.1875 341.128906 C 315.1875 345.371094 318.632812 348.8125 322.875 348.8125 Z M 322.875 348.8125 "/>
</g>
</svg>
