<?xml version="1.0" encoding="UTF-8"?>
<svg xmlns="http://www.w3.org/2000/svg" xmlns:xlink="http://www.w3.org/1999/xlink" width="375pt" height="374.999991pt" viewBox="0 0 375 374.999991" version="1.2">
<defs>
<clipPath id="clip1">
  <path d="M 14.613281 16 L 360.339844 16 L 360.339844 362 L 14.613281 362 Z M 14.613281 16 "/>
</clipPath>
</defs>
<g id="surface1">
<path style=" stroke:none;fill-rule:nonzero;fill:rgb(100%,100%,100%);fill-opacity:1;" d="M 359.292969 189.417969 C 359.292969 284.144531 282.363281 360.9375 187.457031 360.9375 C 92.558594 360.9375 15.625 284.144531 15.625 189.417969 C 15.625 94.6875 92.558594 17.890625 187.457031 17.890625 C 282.363281 17.890625 359.292969 94.6875 359.292969 189.417969 "/>
<g clip-path="url(#clip1)" clip-rule="nonzero">
<path style=" stroke:none;fill-rule:nonzero;fill:rgb(1.959229%,2.349854%,2.349854%);fill-opacity:1;" d="M 359.292969 189.417969 L 358.265625 189.417969 C 358.265625 236.5 339.148438 279.117188 308.238281 309.972656 C 277.324219 340.828125 234.628906 359.90625 187.457031 359.910156 C 140.289062 359.90625 97.597656 340.828125 66.679688 309.972656 C 35.773438 279.117188 16.65625 236.5 16.65625 189.417969 C 16.65625 142.332031 35.773438 99.710938 66.679688 68.855469 C 97.597656 38 140.285156 18.921875 187.457031 18.917969 C 234.628906 18.921875 277.324219 38 308.238281 68.855469 C 339.148438 99.710938 358.265625 142.332031 358.265625 189.417969 L 360.320312 189.417969 C 360.320312 94.117188 282.925781 16.871094 187.457031 16.867188 C 91.992188 16.871094 14.597656 94.117188 14.597656 189.417969 C 14.597656 284.710938 91.992188 361.960938 187.457031 361.964844 C 282.925781 361.960938 360.320312 284.710938 360.320312 189.417969 L 359.292969 189.417969 "/>
</g>
<path style=" stroke:none;fill-rule:nonzero;fill:rgb(1.959229%,2.349854%,2.349854%);fill-opacity:1;" d="M 200.851562 252.921875 C 197.234375 249.085938 195.394531 247.128906 191.648438 243.199219 C 181.121094 238.199219 175.746094 235.59375 165.167969 230.335938 C 162.625 231.625 161.363281 232.261719 158.835938 233.527344 C 158.558594 231.105469 158.414062 229.894531 158.144531 227.453125 C 152.875 231.339844 150.273438 233.242188 145.183594 236.96875 C 140.597656 233.199219 138.3125 231.308594 133.738281 227.542969 C 133.777344 224.640625 133.789062 223.167969 133.851562 220.25 C 131.125 219.949219 129.773438 219.8125 127.0625 219.507812 C 126.929688 215.464844 126.875 213.429688 126.777344 209.34375 C 126.65625 211.25 125.171875 215.753906 114.015625 213.675781 C 100.078125 211.078125 113.050781 189.691406 115.859375 186.925781 C 118.664062 184.164062 127.136719 185.226562 128.859375 183.542969 C 130.570312 181.859375 136.273438 188 136.273438 188 C 137.421875 191.609375 137.992188 193.421875 139.167969 197.03125 C 140.324219 197.257812 140.90625 197.375 142.0625 197.605469 C 142.03125 192.199219 142.03125 189.460938 142.042969 184.039062 C 146.675781 181.988281 149.019531 180.949219 153.707031 178.882812 C 153.707031 178.882812 153.738281 174.347656 154.371094 169.839844 C 155.007812 165.335938 166.8125 156.246094 166.8125 156.246094 C 173.871094 154.601562 177.429688 153.789062 184.570312 152.210938 C 183.144531 149.089844 182.445312 147.539062 181.042969 144.449219 C 178.6875 143.796875 177.511719 143.460938 175.175781 142.824219 C 175.902344 140.605469 176.257812 139.507812 176.972656 137.304688 C 183.972656 137.683594 187.554688 137.90625 194.589844 138.386719 C 194.378906 141.464844 194.265625 142.996094 194.039062 146.101562 C 197.351562 147.226562 199.011719 147.800781 202.308594 148.945312 C 201.078125 143.828125 200.46875 141.277344 199.25 136.226562 C 195.175781 126.101562 193.160156 121.109375 189.246094 111.328125 C 187.65625 113.660156 186.851562 114.832031 185.230469 117.195312 C 182.703125 116.988281 181.453125 116.886719 178.925781 116.703125 C 179.425781 112.847656 179.675781 110.929688 180.167969 107.128906 C 180.167969 107.128906 170.691406 103.097656 166.8125 103.234375 C 162.933594 103.363281 166.113281 107.957031 164.34375 110.652344 C 162.574219 113.347656 165.738281 120.707031 165.738281 120.707031 C 162.742188 122.5 161.234375 123.398438 158.226562 125.214844 C 158.339844 128.859375 158.414062 130.6875 158.539062 134.375 C 155.757812 135.539062 154.367188 136.121094 151.597656 137.300781 C 151.527344 132.53125 151.496094 130.164062 151.46875 125.472656 C 146.234375 121.632812 143.671875 119.769531 138.695312 116.167969 C 138.980469 111.789062 139.136719 109.621094 139.480469 105.320312 C 151.484375 96.613281 157.457031 92.300781 169.117188 84.152344 C 168.332031 82.164062 167.949219 81.183594 167.191406 79.21875 C 164.359375 81.355469 162.917969 82.4375 160.042969 84.617188 C 158.980469 77.257812 158.496094 73.65625 157.640625 66.617188 C 157.640625 66.617188 151.621094 78.289062 150.945312 80.3125 C 150.257812 82.34375 131.804688 80.066406 131.804688 80.066406 C 128.375 77.707031 126.710938 76.589844 123.496094 74.449219 C 119.425781 71.929688 117.46875 70.75 113.765625 68.597656 C 107.648438 70.914062 104.617188 72.125 98.625 74.65625 C 97.851562 72.636719 97.503906 71.652344 96.84375 69.742188 C 90.847656 67.90625 88.101562 67.246094 83.210938 66.535156 C 78.523438 70.3125 76.15625 72.210938 71.453125 75.988281 C 69.671875 77.207031 68.769531 77.824219 67.003906 79.046875 C 65.023438 82.648438 64.058594 84.46875 62.207031 88.183594 C 59.753906 88.789062 58.550781 89.113281 56.214844 89.832031 C 54.460938 92.320312 53.59375 93.574219 51.859375 96.074219 C 54.691406 94.550781 56.125 93.796875 59.019531 92.3125 C 58.371094 93.449219 58.042969 94.015625 57.410156 95.15625 C 50.949219 100.082031 47.746094 102.527344 41.371094 107.335938 C 42.042969 109.390625 42.449219 110.496094 43.394531 112.824219 C 36.757812 119.023438 33.460938 122.0625 26.988281 127.960938 C 42.449219 119.035156 50.554688 114.316406 67.0625 105.039062 C 67.0625 105.039062 77.59375 144.851562 76.925781 146.371094 C 76.257812 147.886719 72.851562 146.769531 72.851562 146.769531 C 72.851562 146.769531 66.261719 171.636719 68.230469 173.558594 C 70.210938 175.476562 83.253906 202.183594 83.253906 202.183594 C 82.242188 196.152344 81.792969 193.101562 80.976562 187.058594 C 88.546875 198.488281 92.613281 204.449219 100.964844 216.378906 C 100.964844 216.378906 124.265625 219.957031 125.582031 224.859375 C 126.757812 229.269531 140.828125 238.136719 143.671875 239.867188 C 139.808594 248.234375 133.265625 272.558594 163.558594 289.867188 C 164.769531 316.316406 165.589844 328.847656 167.492188 351.652344 C 171.542969 355.367188 173.515625 357.179688 177.355469 360.648438 C 179.089844 349.113281 180.160156 342.996094 182.546875 330.25 C 182.546875 330.25 188.050781 319.820312 191.121094 320.269531 C 194.195312 320.71875 212.058594 299.902344 212.824219 295.339844 C 213.597656 290.785156 220.3125 293.851562 220.3125 293.851562 C 221.394531 287.1875 221.925781 283.800781 222.976562 276.957031 C 226.328125 271.605469 228.007812 268.910156 231.402344 263.488281 C 219.597656 259.636719 213.457031 257.484375 200.851562 252.921875 "/>
<path style=" stroke:none;fill-rule:nonzero;fill:rgb(1.959229%,2.349854%,2.349854%);fill-opacity:1;" d="M 126.777344 208.554688 C 126.777344 208.871094 126.777344 209.027344 126.777344 209.34375 C 126.8125 208.871094 126.777344 208.554688 126.777344 208.554688 "/>
<path style=" stroke:none;fill-rule:nonzero;fill:rgb(1.959229%,2.349854%,2.349854%);fill-opacity:1;" d="M 173.472656 92.417969 C 173.472656 92.417969 186.398438 104.976562 186.398438 104.1875 C 186.398438 103.398438 195.285156 92.792969 195.285156 92.792969 C 197.492188 93.03125 198.601562 93.164062 200.792969 93.425781 C 197.273438 88.1875 195.523438 85.597656 192.125 80.523438 C 192.96875 78.515625 193.398438 77.507812 194.226562 75.523438 C 194.226562 75.523438 185.695312 67.292969 186.226562 65.828125 C 186.75 64.351562 178.65625 66.871094 180.304688 61.265625 C 181.949219 55.660156 174.261719 58.089844 174.261719 58.089844 C 169.941406 62.773438 167.742188 65.171875 163.246094 70.058594 C 166.472656 70.921875 168.117188 71.371094 171.425781 72.324219 C 171.425781 72.324219 181.4375 69.996094 182.417969 78.015625 C 183.402344 86.035156 182.546875 90.367188 173.472656 92.417969 "/>
<path style=" stroke:none;fill-rule:nonzero;fill:rgb(1.959229%,2.349854%,2.349854%);fill-opacity:1;" d="M 128.390625 74.984375 C 127.347656 71.183594 126.867188 69.320312 125.964844 65.699219 C 125.964844 65.699219 129.34375 62.164062 129.457031 61.480469 C 129.582031 60.789062 127.183594 60.414062 127.183594 60.414062 C 125.28125 61.511719 124.3125 62.058594 122.402344 63.175781 C 125.414062 58.460938 126.890625 56.113281 129.828125 51.472656 C 129.828125 51.472656 134.835938 51.433594 136.84375 52.800781 C 138.851562 54.164062 132.273438 56.941406 134.320312 58.332031 C 136.371094 59.726562 140.304688 56.835938 141.003906 58.539062 C 141.695312 60.246094 144.101562 61.972656 145.027344 60.226562 C 145.960938 58.484375 147.078125 55.125 148.117188 56.363281 C 149.152344 57.59375 146.550781 70.347656 146.550781 70.347656 C 139.222656 72.042969 135.589844 72.980469 128.390625 74.984375 "/>
<path style=" stroke:none;fill-rule:nonzero;fill:rgb(1.959229%,2.349854%,2.349854%);fill-opacity:1;" d="M 157.785156 96.660156 C 159.625 94.710938 160.535156 93.742188 162.347656 91.8125 C 163.773438 93.78125 164.484375 94.78125 165.9375 96.789062 C 164.277344 97.363281 163.445312 97.652344 161.785156 98.246094 C 160.179688 97.601562 159.382812 97.289062 157.785156 96.660156 "/>
<path style=" stroke:none;fill-rule:nonzero;fill:rgb(1.959229%,2.349854%,2.349854%);fill-opacity:1;" d="M 152.511719 65.179688 C 152.410156 63.101562 152.363281 62.070312 152.277344 60.023438 C 153.367188 59.804688 153.925781 59.695312 155.019531 59.488281 C 155.675781 57.636719 156.003906 56.710938 156.65625 54.875 C 158.070312 55.285156 158.777344 55.496094 160.210938 55.929688 C 159.148438 58.1875 158.613281 59.320312 157.535156 61.601562 C 158.816406 61.671875 159.457031 61.710938 160.753906 61.796875 C 157.457031 63.117188 155.820312 63.789062 152.511719 65.179688 "/>
<path style=" stroke:none;fill-rule:nonzero;fill:rgb(1.959229%,2.349854%,2.349854%);fill-opacity:1;" d="M 161.839844 60.511719 C 162.574219 58.644531 162.933594 57.71875 163.648438 55.871094 C 165.800781 56.078125 166.894531 56.183594 169.074219 56.4375 C 166.195312 58.03125 164.746094 58.851562 161.839844 60.511719 "/>
<path style=" stroke:none;fill-rule:nonzero;fill:rgb(1.959229%,2.349854%,2.349854%);fill-opacity:1;" d="M 143.542969 52.058594 C 142.503906 49.726562 142.015625 48.582031 141.066406 46.34375 C 144.203125 44.445312 145.757812 43.507812 148.875 41.683594 C 151.269531 41.816406 152.484375 41.910156 154.933594 42.117188 C 155.433594 44.09375 155.703125 45.089844 156.25 47.113281 C 151.167969 48.992188 148.617188 49.976562 143.542969 52.058594 "/>
<path style=" stroke:none;fill-rule:nonzero;fill:rgb(1.959229%,2.349854%,2.349854%);fill-opacity:1;" d="M 170.070312 42.839844 C 171.945312 43.351562 172.914062 43.605469 174.820312 44.164062 C 176.160156 46.964844 176.839844 48.390625 178.257812 51.273438 C 180.9375 51.375 182.289062 51.445312 185.011719 51.609375 C 184.5 52.851562 184.242188 53.472656 183.714844 54.722656 C 180.378906 54.191406 178.726562 53.9375 175.445312 53.5 C 173.539062 51.019531 172.609375 49.800781 170.785156 47.40625 C 170.503906 45.5625 170.34375 44.652344 170.070312 42.839844 "/>
<path style=" stroke:none;fill-rule:nonzero;fill:rgb(1.959229%,2.349854%,2.349854%);fill-opacity:1;" d="M 178.65625 45.859375 C 182.148438 47.144531 183.910156 47.824219 187.519531 49.246094 C 192.726562 44.8125 195.234375 42.675781 200 38.640625 C 199.183594 37.507812 198.785156 36.941406 197.988281 35.816406 C 200.910156 35.953125 202.363281 36.042969 205.257812 36.273438 C 210.445312 33.074219 212.925781 31.59375 217.601562 28.902344 C 217.601562 28.902344 211.472656 12.335938 191.113281 20.738281 C 189.121094 21.5625 195.675781 30.546875 195.675781 30.546875 C 189.285156 36.28125 185.800781 39.378906 178.65625 45.859375 "/>
<path style=" stroke:none;fill-rule:nonzero;fill:rgb(1.959229%,2.349854%,2.349854%);fill-opacity:1;" d="M 178.648438 37.796875 C 182.605469 36.277344 184.585938 35.5625 188.476562 34.222656 C 188.476562 34.222656 188.890625 21.992188 187.0625 22.429688 C 185.257812 22.875 179.882812 28.527344 179.882812 28.527344 C 179.394531 32.183594 179.148438 34.035156 178.648438 37.796875 "/>
<path style=" stroke:none;fill-rule:nonzero;fill:rgb(1.959229%,2.349854%,2.349854%);fill-opacity:1;" d="M 202.59375 53.183594 C 202.179688 48.433594 201.960938 46.085938 201.546875 41.476562 C 204.707031 41.472656 206.277344 41.496094 209.394531 41.589844 C 214.878906 37.082031 217.449219 34.984375 222.21875 31.144531 C 225.984375 32.222656 227.867188 32.800781 231.601562 34.03125 C 231.601562 34.03125 238.75 29.027344 242.546875 30.59375 C 246.335938 32.160156 257.5625 43.945312 258.0625 45.597656 C 258.566406 47.253906 265.101562 49.203125 265.101562 49.203125 C 263.125 50.8125 262.050781 51.6875 259.800781 53.566406 C 260.484375 58.605469 260.769531 61.195312 261.226562 66.503906 C 261.226562 66.503906 258.289062 75.769531 260.070312 79.019531 C 261.839844 82.273438 253.628906 73.054688 253.628906 73.054688 C 253.871094 74.890625 253.992188 75.816406 254.210938 77.671875 C 256.476562 80.445312 257.621094 81.839844 259.898438 84.625 C 258.8125 84.886719 258.261719 85.015625 257.148438 85.289062 C 254.996094 83.257812 253.917969 82.246094 251.769531 80.222656 C 251.449219 82.386719 251.277344 83.484375 250.902344 85.691406 C 253.878906 86.609375 255.367188 87.070312 258.316406 88.027344 C 249.644531 91.128906 245.03125 92.964844 235.421875 96.992188 C 231.523438 104.046875 229.441406 107.695312 225.074219 115.230469 C 225.074219 115.230469 208.550781 100.8125 213.613281 93.652344 C 214.421875 92.507812 217.816406 87.304688 217.816406 87.304688 C 216.03125 75.328125 215.105469 69.484375 213.28125 58.164062 C 208.976562 56.101562 206.835938 55.105469 202.59375 53.183594 "/>
<path style=" stroke:none;fill-rule:nonzero;fill:rgb(1.959229%,2.349854%,2.349854%);fill-opacity:1;" d="M 289.753906 175.03125 C 290.425781 176.214844 290.765625 176.808594 291.425781 177.992188 C 294.429688 176.890625 295.910156 176.355469 298.855469 175.300781 C 298.855469 175.300781 302.113281 169.175781 301.867188 168.230469 C 301.617188 167.28125 306.359375 163.273438 307.542969 163.71875 C 308.710938 164.15625 313.320312 160.316406 314.042969 162.167969 C 314.757812 164.015625 324.164062 170.855469 324.164062 170.855469 C 325.347656 172.050781 325.929688 172.640625 327.101562 173.828125 C 328.058594 172.535156 328.527344 171.898438 329.453125 170.632812 C 329.453125 170.632812 319.917969 165.625 319.078125 162.371094 C 318.230469 159.125 323.097656 160.074219 323.097656 160.074219 C 323.097656 160.074219 330.78125 161.777344 332.832031 169.800781 C 334.890625 177.824219 336.710938 176.886719 336.710938 176.886719 C 336.710938 176.886719 339.761719 176.851562 337.125 174.671875 C 334.484375 172.492188 339.917969 167.460938 339.917969 167.460938 C 340.230469 168.550781 340.390625 169.089844 340.6875 170.179688 C 341.824219 170.324219 342.398438 170.394531 343.53125 170.542969 C 344.257812 170.070312 344.605469 169.839844 345.328125 169.371094 C 345.328125 169.371094 343.601562 167.601562 343.496094 166.609375 C 343.398438 165.625 347.003906 160.40625 347.003906 160.40625 C 348.164062 160.546875 348.742188 160.621094 349.898438 160.765625 C 350.496094 162.074219 350.789062 162.734375 351.363281 164.046875 C 352.761719 164.015625 353.460938 163.996094 354.84375 163.972656 C 353.589844 162.542969 352.960938 161.820312 351.671875 160.371094 C 353.757812 160.316406 354.773438 160.292969 356.8125 160.257812 C 353.96875 143.679688 351.515625 135.683594 344.949219 120.714844 C 342.664062 121.355469 341.445312 121.742188 338.921875 122.609375 C 338.921875 122.609375 331.691406 115.492188 332.207031 115.027344 C 332.71875 114.5625 339.78125 119.128906 339.78125 119.128906 C 339.78125 119.128906 341.695312 118.957031 341.324219 116.976562 C 340.945312 115 322.96875 103.957031 318.878906 101.839844 C 314.785156 99.730469 308.769531 99.144531 309.402344 107.292969 C 310.039062 115.449219 301.15625 117.007812 301.46875 123.449219 C 301.785156 129.882812 305.378906 130.351562 305.929688 130.441406 C 306.488281 130.527344 308.285156 126 308.285156 126 C 308.285156 126 310.136719 125.671875 310.820312 129.257812 C 311.515625 132.84375 316.367188 137.457031 316.367188 137.457031 C 316.367188 137.457031 318.320312 139.191406 320.316406 135.332031 C 322.308594 131.472656 317.777344 124.359375 317.777344 124.359375 C 317.777344 124.359375 315.652344 120.117188 320.726562 120.609375 C 325.804688 121.109375 330.367188 132.433594 330.367188 132.433594 C 330.367188 132.433594 325.960938 139.695312 325.820312 140.800781 C 325.691406 141.90625 318.789062 141.332031 318.789062 141.332031 C 316.617188 141.011719 315.515625 140.855469 313.316406 140.542969 C 312.078125 137.648438 311.449219 136.195312 310.167969 133.300781 C 309.496094 133.933594 309.15625 134.253906 308.472656 134.90625 C 309.007812 137.707031 309.261719 139.121094 309.742188 141.953125 C 307.957031 141.722656 307.054688 141.613281 305.261719 141.386719 C 304.945312 142.898438 304.792969 143.648438 304.449219 145.179688 C 300.976562 147.285156 299.207031 148.386719 295.5625 150.664062 C 293.585938 150.9375 292.578125 151.078125 290.578125 151.375 C 292.488281 152.792969 293.460938 153.503906 295.351562 154.910156 C 295.679688 157.992188 295.816406 159.546875 296.09375 162.660156 C 291.625 162.402344 289.382812 162.28125 284.816406 162.054688 C 284.816406 162.054688 282.445312 172.074219 282.464844 172.863281 C 283.476562 174.152344 283.980469 174.804688 284.980469 176.09375 C 286.902344 175.664062 287.851562 175.441406 289.753906 175.03125 "/>
<path style=" stroke:none;fill-rule:nonzero;fill:rgb(1.959229%,2.349854%,2.349854%);fill-opacity:1;" d="M 358.90625 200.917969 C 357.066406 198.058594 355.839844 195.675781 356.226562 194.847656 C 357.292969 192.597656 358.59375 193.421875 359.226562 194.023438 C 359.480469 184.777344 359.277344 180.066406 358.308594 171.019531 C 354.117188 170.632812 349.253906 170.238281 348.703125 170.285156 C 347.683594 170.367188 343.453125 171.695312 343.242188 173.511719 C 343.015625 175.328125 347.929688 178.707031 347.929688 178.707031 C 352.207031 179.285156 354.300781 179.570312 358.4375 180.128906 C 357.921875 183.070312 357.621094 184.566406 356.976562 187.589844 C 348.886719 186.683594 344.703125 186.195312 336.085938 185.160156 C 335.027344 186.886719 334.5 187.761719 333.402344 189.53125 C 327.589844 186.992188 324.59375 185.660156 318.507812 182.914062 C 317.5625 180.984375 317.078125 180.023438 316.097656 178.082031 C 316.097656 178.082031 301.300781 178.039062 298.75 177.78125 C 296.179688 177.527344 289.910156 181.285156 289.910156 181.285156 C 289.910156 181.285156 285.164062 190.535156 283.136719 191.140625 C 281.105469 191.746094 273.828125 201.855469 271.726562 203.910156 C 269.625 205.960938 268.671875 220.570312 268.671875 220.570312 C 275.683594 227.761719 279.046875 231.210938 285.367188 237.675781 C 292.980469 235.984375 296.738281 235.117188 304.109375 233.378906 C 307.566406 234.425781 309.265625 234.925781 312.605469 235.863281 C 312.605469 235.863281 314.875 262.09375 313.757812 262.671875 C 312.640625 263.242188 309.570312 267.496094 309.570312 267.496094 C 309.570312 267.496094 313.523438 272.765625 312.003906 276.839844 C 310.480469 280.914062 310.367188 292.773438 310.367188 292.773438 C 310.367188 292.773438 319.542969 287.664062 320.636719 286.828125 C 321.726562 285.996094 331.40625 276.910156 331.40625 276.910156 C 332.746094 274.867188 333.417969 273.84375 334.714844 271.785156 C 337.078125 269.8125 338.261719 268.839844 340.617188 266.898438 C 340.945312 266.375 341.121094 266.113281 341.457031 265.59375 C 353.21875 241.945312 357.066406 228.648438 358.90625 200.917969 "/>
<path style=" stroke:none;fill-rule:nonzero;fill:rgb(1.959229%,2.349854%,2.349854%);fill-opacity:1;" d="M 289.632812 147.183594 C 289.671875 146.800781 290.449219 141.21875 290.449219 141.21875 C 290.390625 139.257812 290.351562 138.28125 290.265625 136.339844 C 289.015625 135.175781 288.398438 134.601562 287.132812 133.433594 C 286.054688 132.046875 285.515625 131.355469 284.429688 129.964844 C 286.171875 128.960938 287.03125 128.460938 288.734375 127.5 C 289.953125 127.996094 290.5625 128.246094 291.765625 128.738281 C 291.539062 129.886719 291.421875 130.46875 291.179688 131.628906 C 291.554688 132.585938 291.753906 133.070312 292.132812 134.027344 C 292.132812 134.027344 297.066406 139.410156 297.519531 140.058594 C 297.976562 140.710938 299.714844 144.855469 299.714844 144.855469 C 299.714844 144.855469 289.355469 149.769531 289.632812 147.183594 "/>
<path style=" stroke:none;fill-rule:nonzero;fill:rgb(1.959229%,2.349854%,2.349854%);fill-opacity:1;" d="M 281.671875 141.125 C 281.671875 141.125 280.617188 135.796875 281.785156 135.789062 C 282.9375 135.78125 284.347656 134.703125 284.347656 134.703125 C 285.136719 134.882812 285.542969 134.972656 286.332031 135.15625 C 287.03125 137.675781 287.371094 138.945312 288.042969 141.476562 C 288.042969 141.476562 282.890625 143.109375 281.671875 141.125 "/>
</g>
</svg>
