<?xml version="1.0" encoding="UTF-8"?>
<svg xmlns="http://www.w3.org/2000/svg" xmlns:xlink="http://www.w3.org/1999/xlink" width="900pt" height="525.000007pt" viewBox="0 0 900 525.000007" version="1.2">
<defs>
<clipPath id="clip1">
  <path d="M 786 34.179688 L 825 34.179688 L 825 56 L 786 56 Z M 786 34.179688 "/>
</clipPath>
<clipPath id="clip2">
  <path d="M 667 462 L 679 462 L 679 471.347656 L 667 471.347656 Z M 667 462 "/>
</clipPath>
<clipPath id="clip3">
  <path d="M 712 354 L 744 354 L 744 471.347656 L 712 471.347656 Z M 712 354 "/>
</clipPath>
<clipPath id="clip4">
  <path d="M 726 141 L 889.953125 141 L 889.953125 351 L 726 351 Z M 726 141 "/>
</clipPath>
<clipPath id="clip5">
  <path d="M 13 135 L 189 135 L 189 471.347656 L 13 471.347656 Z M 13 135 "/>
</clipPath>
</defs>
<g id="surface1">
<g clip-path="url(#clip1)" clip-rule="nonzero">
<path style=" stroke:none;fill-rule:nonzero;fill:rgb(0.389099%,38.038635%,39.219666%);fill-opacity:1;" d="M 824.1875 55.164062 C 824.265625 54.460938 824.316406 53.753906 824.316406 53.027344 C 824.316406 42.707031 815.941406 34.339844 805.609375 34.339844 C 795.277344 34.339844 786.898438 42.707031 786.898438 53.027344 C 786.898438 53.75 786.949219 54.460938 787.03125 55.164062 C 792.65625 52.453125 798.957031 50.933594 805.609375 50.933594 C 812.257812 50.933594 818.558594 52.453125 824.1875 55.164062 Z M 824.1875 55.164062 "/>
</g>
<path style=" stroke:none;fill-rule:nonzero;fill:rgb(0.389099%,38.038635%,39.219666%);fill-opacity:1;" d="M 634.921875 225.828125 C 635.628906 218.484375 636.554688 211.957031 637.640625 206.15625 C 634.972656 200.746094 633.464844 194.664062 633.464844 188.234375 C 633.464844 165.808594 651.726562 147.5625 674.171875 147.5625 C 696.621094 147.5625 714.882812 165.808594 714.882812 188.234375 C 714.882812 203.753906 706.132812 217.265625 693.308594 224.121094 L 703.117188 224.121094 C 703.867188 224.121094 704.625 224.175781 705.417969 224.289062 C 711.222656 224.578125 716.679688 226.554688 721.46875 230.035156 C 728.765625 186.910156 740.671875 159.4375 741.359375 157.878906 C 743.058594 154.015625 746.105469 150.949219 749.953125 149.203125 C 754.667969 146.457031 764.734375 141.488281 779.664062 138.476562 L 731.835938 135.511719 C 731.09375 135.390625 730.332031 135.308594 729.554688 135.308594 L 659.890625 135.308594 C 659.601562 135.308594 659.316406 135.335938 659.03125 135.355469 C 653.957031 135.472656 644.066406 137.097656 633.9375 146.605469 C 627.371094 152.769531 621.898438 161.164062 617.523438 171.746094 C 624.507812 187.449219 629.261719 205.925781 631.753906 227.125 C 632.785156 226.628906 633.84375 226.195312 634.921875 225.828125 Z M 634.921875 225.828125 "/>
<path style=" stroke:none;fill-rule:nonzero;fill:rgb(0.389099%,38.038635%,39.219666%);fill-opacity:1;" d="M 869.859375 157.871094 C 870.117188 158.464844 872 162.804688 874.625 170.292969 C 878.242188 167.878906 880.738281 163.875 881.027344 159.199219 C 881.519531 151.257812 875.472656 144.417969 867.523438 143.925781 L 846.75 142.636719 C 853.488281 145.019531 858.375 147.523438 861.253906 149.199219 C 865.105469 150.941406 868.152344 154.007812 869.859375 157.871094 Z M 869.859375 157.871094 "/>
<path style=" stroke:none;fill-rule:nonzero;fill:rgb(0.389099%,38.038635%,39.219666%);fill-opacity:1;" d="M 655.039062 224.121094 C 651.707031 222.339844 648.652344 220.105469 645.953125 217.507812 L 645.953125 224.121094 Z M 655.039062 224.121094 "/>
<g clip-path="url(#clip2)" clip-rule="nonzero">
<path style=" stroke:none;fill-rule:nonzero;fill:rgb(0.389099%,38.038635%,39.219666%);fill-opacity:1;" d="M 667.179688 471.195312 C 667.535156 471.210938 667.886719 471.25 668.246094 471.25 C 671.953125 471.25 675.4375 470.332031 678.511719 468.734375 C 676.714844 466.792969 675.230469 464.546875 674.171875 462.082031 C 672.632812 465.675781 670.210938 468.800781 667.179688 471.195312 Z M 667.179688 471.195312 "/>
</g>
<g clip-path="url(#clip3)" clip-rule="nonzero">
<path style=" stroke:none;fill-rule:nonzero;fill:rgb(0.389099%,38.038635%,39.219666%);fill-opacity:1;" d="M 731.371094 360.605469 L 731.191406 360.605469 C 726.976562 360.558594 723.03125 358.871094 720.085938 355.863281 C 719.644531 355.410156 719.234375 354.9375 718.855469 354.445312 L 718.855469 452.957031 C 718.855469 459.324219 716.273438 465.101562 712.109375 469.304688 C 714.882812 470.546875 717.953125 471.25 721.191406 471.25 C 733.5 471.25 743.484375 461.28125 743.484375 448.980469 L 743.484375 354.902344 C 740.585938 358.382812 736.222656 360.605469 731.371094 360.605469 Z M 731.371094 360.605469 "/>
</g>
<path style=" stroke:none;fill-rule:nonzero;fill:rgb(0.389099%,38.038635%,39.219666%);fill-opacity:1;" d="M 678.265625 63.128906 C 684.316406 63.128906 689.457031 66.980469 691.398438 72.359375 L 698.9375 72.359375 C 700.878906 66.980469 706.019531 63.128906 712.070312 63.128906 C 718.125 63.128906 723.265625 66.980469 725.207031 72.359375 L 733.433594 72.359375 C 728.265625 55.910156 712.890625 43.980469 694.71875 43.980469 C 676.550781 43.980469 661.175781 55.910156 656.007812 72.359375 L 665.128906 72.359375 C 667.070312 66.980469 672.210938 63.128906 678.265625 63.128906 Z M 678.265625 63.128906 "/>
<path style=" stroke:none;fill-rule:nonzero;fill:rgb(0.389099%,38.038635%,39.219666%);fill-opacity:1;" d="M 726.046875 77.089844 C 726.046875 84.800781 719.789062 91.050781 712.074219 91.050781 C 704.355469 91.050781 698.097656 84.800781 698.097656 77.089844 C 698.097656 76.9375 698.117188 76.789062 698.121094 76.640625 L 692.21875 76.640625 C 692.222656 76.789062 692.242188 76.9375 692.242188 77.089844 C 692.242188 84.800781 685.984375 91.050781 678.265625 91.050781 C 670.546875 91.050781 664.292969 84.800781 664.292969 77.089844 C 664.292969 76.9375 664.308594 76.789062 664.316406 76.640625 L 654.925781 76.640625 C 654.421875 79.1875 654.152344 81.816406 654.152344 84.511719 C 654.152344 106.898438 672.316406 125.042969 694.722656 125.042969 C 717.132812 125.042969 735.292969 106.898438 735.292969 84.511719 C 735.292969 81.816406 735.027344 79.1875 734.523438 76.640625 L 726.027344 76.640625 C 726.03125 76.789062 726.046875 76.9375 726.046875 77.089844 Z M 694.71875 114.234375 C 684.023438 114.234375 674.65625 108.546875 669.414062 100.0625 L 720.027344 100.0625 C 714.78125 108.546875 705.414062 114.234375 694.71875 114.234375 Z M 694.71875 114.234375 "/>
<path style=" stroke:none;fill-rule:nonzero;fill:rgb(0.389099%,38.038635%,39.219666%);fill-opacity:1;" d="M 808.613281 452.089844 C 808.613281 462.039062 816.691406 470.105469 826.644531 470.105469 C 836.605469 470.105469 844.675781 462.039062 844.675781 452.089844 L 844.675781 354.140625 C 835.191406 355.050781 823.351562 355.664062 808.613281 355.738281 Z M 808.613281 452.089844 "/>
<path style=" stroke:none;fill-rule:nonzero;fill:rgb(0.389099%,38.038635%,39.219666%);fill-opacity:1;" d="M 766.539062 452.089844 C 766.539062 462.039062 774.617188 470.105469 784.570312 470.105469 C 794.527344 470.105469 802.601562 462.039062 802.601562 452.089844 L 802.601562 355.738281 C 787.863281 355.664062 776.023438 355.050781 766.539062 354.140625 Z M 766.539062 452.089844 "/>
<g clip-path="url(#clip4)" clip-rule="nonzero">
<path style=" stroke:none;fill-rule:nonzero;fill:rgb(0.389099%,38.038635%,39.219666%);fill-opacity:1;" d="M 744.582031 286.375 L 744.886719 285.414062 C 746.214844 241.546875 755.355469 206.015625 761.675781 186.332031 C 765.644531 199.035156 768.878906 213.0625 767.914062 222.953125 C 767.289062 229.378906 766.320312 234.46875 765.226562 239.105469 L 765.167969 239.105469 L 745.941406 300.046875 C 746.945312 313.152344 747.34375 328.105469 747.148438 345.023438 C 747.144531 345.292969 747.117188 345.554688 747.097656 345.816406 C 757.652344 348.113281 775.605469 350.347656 805.609375 350.347656 C 867.367188 350.347656 878.164062 340.890625 878.164062 340.890625 L 846.050781 239.109375 L 845.984375 239.109375 C 844.894531 234.46875 843.921875 229.382812 843.296875 222.953125 C 842.335938 213.050781 845.578125 199.007812 849.550781 186.292969 C 855.867188 205.914062 864.996094 241.363281 866.332031 285.40625 L 868.613281 292.636719 C 870.75 295.554688 874.199219 297.445312 878.066406 297.445312 C 878.179688 297.445312 878.292969 297.445312 878.40625 297.441406 C 884.875 297.257812 889.972656 291.867188 889.789062 285.40625 C 887.71875 212.59375 865.839844 162.164062 864.90625 160.054688 C 863.660156 157.226562 861.425781 155.144531 858.785156 154.019531 C 852.648438 150.398438 834.425781 141.355469 805.605469 141.355469 C 776.773438 141.355469 758.554688 150.40625 752.421875 154.023438 C 749.789062 155.148438 747.554688 157.230469 746.308594 160.054688 C 745.617188 161.621094 733.347656 189.917969 726.246094 234.253906 C 735.394531 243.953125 741.433594 260.941406 744.582031 286.375 Z M 744.582031 286.375 "/>
</g>
<path style=" stroke:none;fill-rule:nonzero;fill:rgb(0.389099%,38.038635%,39.219666%);fill-opacity:1;" d="M 789.15625 70.785156 C 795.210938 70.785156 800.351562 74.636719 802.292969 80.015625 L 809.832031 80.015625 C 811.773438 74.636719 816.910156 70.785156 822.964844 70.785156 C 829.019531 70.785156 834.160156 74.636719 836.097656 80.015625 L 841.796875 80.015625 C 836.230469 65.445312 822.144531 55.078125 805.605469 55.078125 C 789.0625 55.078125 774.980469 65.445312 769.410156 80.015625 L 776.019531 80.015625 C 777.964844 74.636719 783.105469 70.785156 789.15625 70.785156 Z M 789.15625 70.785156 "/>
<path style=" stroke:none;fill-rule:nonzero;fill:rgb(0.389099%,38.038635%,39.219666%);fill-opacity:1;" d="M 844.375 93.808594 C 844.375 90.519531 843.921875 87.34375 843.148438 84.296875 L 836.917969 84.296875 C 836.925781 84.445312 836.941406 84.59375 836.941406 84.746094 C 836.941406 92.457031 830.6875 98.707031 822.96875 98.707031 C 815.25 98.707031 808.996094 92.457031 808.996094 84.746094 C 808.996094 84.59375 809.011719 84.445312 809.019531 84.296875 L 803.113281 84.296875 C 803.117188 84.445312 803.136719 84.59375 803.136719 84.746094 C 803.136719 92.457031 796.878906 98.707031 789.160156 98.707031 C 781.445312 98.707031 775.1875 92.457031 775.1875 84.746094 C 775.1875 84.59375 775.203125 84.445312 775.210938 84.296875 L 768.070312 84.296875 C 767.300781 87.34375 766.84375 90.519531 766.84375 93.808594 C 766.84375 115.199219 784.203125 132.539062 805.613281 132.539062 C 827.019531 132.539062 844.375 115.199219 844.375 93.808594 Z M 782.453125 104.867188 L 828.773438 104.867188 C 823.972656 112.636719 815.402344 117.839844 805.613281 117.839844 C 795.824219 117.839844 787.253906 112.632812 782.453125 104.867188 Z M 782.453125 104.867188 "/>
<path style=" stroke:none;fill-rule:nonzero;fill:rgb(0.389099%,38.038635%,39.219666%);fill-opacity:1;" d="M 688.859375 77.089844 C 688.859375 77.785156 688.789062 78.472656 688.652344 79.15625 C 688.519531 79.835938 688.316406 80.496094 688.050781 81.140625 C 687.785156 81.78125 687.457031 82.390625 687.074219 82.96875 C 686.6875 83.546875 686.246094 84.082031 685.753906 84.574219 C 685.261719 85.066406 684.726562 85.503906 684.148438 85.890625 C 683.570312 86.277344 682.960938 86.601562 682.316406 86.867188 C 681.675781 87.132812 681.011719 87.335938 680.332031 87.46875 C 679.648438 87.605469 678.960938 87.671875 678.265625 87.671875 C 677.570312 87.671875 676.878906 87.605469 676.199219 87.46875 C 675.515625 87.335938 674.851562 87.132812 674.210938 86.867188 C 673.566406 86.601562 672.957031 86.277344 672.378906 85.890625 C 671.800781 85.503906 671.265625 85.066406 670.773438 84.574219 C 670.28125 84.082031 669.84375 83.546875 669.457031 82.96875 C 669.070312 82.390625 668.742188 81.78125 668.476562 81.140625 C 668.210938 80.496094 668.011719 79.835938 667.875 79.15625 C 667.738281 78.472656 667.671875 77.785156 667.671875 77.089844 C 667.671875 76.394531 667.738281 75.707031 667.875 75.023438 C 668.011719 74.34375 668.210938 73.683594 668.476562 73.039062 C 668.742188 72.398438 669.070312 71.789062 669.457031 71.210938 C 669.84375 70.632812 670.28125 70.097656 670.773438 69.605469 C 671.265625 69.113281 671.800781 68.675781 672.378906 68.289062 C 672.957031 67.902344 673.566406 67.578125 674.210938 67.3125 C 674.851562 67.046875 675.515625 66.84375 676.199219 66.710938 C 676.878906 66.574219 677.570312 66.507812 678.265625 66.507812 C 678.960938 66.507812 679.648438 66.574219 680.332031 66.710938 C 681.011719 66.84375 681.675781 67.046875 682.316406 67.3125 C 682.960938 67.578125 683.570312 67.902344 684.148438 68.289062 C 684.726562 68.675781 685.261719 69.113281 685.753906 69.605469 C 686.246094 70.097656 686.6875 70.632812 687.074219 71.210938 C 687.457031 71.789062 687.785156 72.398438 688.050781 73.039062 C 688.316406 73.683594 688.519531 74.34375 688.652344 75.023438 C 688.789062 75.707031 688.859375 76.394531 688.859375 77.089844 Z M 688.859375 77.089844 "/>
<path style=" stroke:none;fill-rule:nonzero;fill:rgb(0.389099%,38.038635%,39.219666%);fill-opacity:1;" d="M 722.667969 77.089844 C 722.667969 77.785156 722.597656 78.472656 722.464844 79.15625 C 722.328125 79.835938 722.125 80.496094 721.859375 81.140625 C 721.59375 81.78125 721.269531 82.390625 720.882812 82.96875 C 720.496094 83.546875 720.054688 84.082031 719.5625 84.574219 C 719.070312 85.066406 718.535156 85.503906 717.957031 85.890625 C 717.378906 86.277344 716.769531 86.601562 716.128906 86.867188 C 715.484375 87.132812 714.820312 87.335938 714.140625 87.46875 C 713.457031 87.605469 712.769531 87.671875 712.074219 87.671875 C 711.378906 87.671875 710.6875 87.605469 710.007812 87.46875 C 709.324219 87.335938 708.660156 87.132812 708.019531 86.867188 C 707.375 86.601562 706.765625 86.277344 706.1875 85.890625 C 705.609375 85.503906 705.074219 85.066406 704.582031 84.574219 C 704.089844 84.082031 703.652344 83.546875 703.265625 82.96875 C 702.878906 82.390625 702.550781 81.78125 702.285156 81.140625 C 702.019531 80.496094 701.820312 79.835938 701.683594 79.15625 C 701.546875 78.472656 701.480469 77.785156 701.480469 77.089844 C 701.480469 76.394531 701.546875 75.707031 701.683594 75.023438 C 701.820312 74.34375 702.019531 73.683594 702.285156 73.039062 C 702.550781 72.398438 702.878906 71.789062 703.265625 71.210938 C 703.652344 70.632812 704.089844 70.097656 704.582031 69.605469 C 705.074219 69.113281 705.609375 68.675781 706.1875 68.289062 C 706.765625 67.902344 707.375 67.578125 708.019531 67.3125 C 708.660156 67.046875 709.324219 66.84375 710.007812 66.710938 C 710.6875 66.574219 711.378906 66.507812 712.074219 66.507812 C 712.769531 66.507812 713.457031 66.574219 714.140625 66.710938 C 714.820312 66.84375 715.484375 67.046875 716.128906 67.3125 C 716.769531 67.578125 717.378906 67.902344 717.957031 68.289062 C 718.535156 68.675781 719.070312 69.113281 719.5625 69.605469 C 720.054688 70.097656 720.496094 70.632812 720.882812 71.210938 C 721.269531 71.789062 721.59375 72.398438 721.859375 73.039062 C 722.125 73.683594 722.328125 74.34375 722.464844 75.023438 C 722.597656 75.707031 722.667969 76.394531 722.667969 77.089844 Z M 722.667969 77.089844 "/>
<path style=" stroke:none;fill-rule:nonzero;fill:rgb(0.389099%,38.038635%,39.219666%);fill-opacity:1;" d="M 799.75 84.746094 C 799.75 85.441406 799.683594 86.128906 799.546875 86.8125 C 799.410156 87.492188 799.210938 88.152344 798.945312 88.796875 C 798.679688 89.4375 798.351562 90.046875 797.964844 90.625 C 797.578125 91.203125 797.140625 91.738281 796.648438 92.230469 C 796.15625 92.722656 795.621094 93.160156 795.042969 93.546875 C 794.464844 93.933594 793.855469 94.257812 793.210938 94.523438 C 792.570312 94.789062 791.90625 94.992188 791.222656 95.125 C 790.542969 95.261719 789.851562 95.328125 789.15625 95.328125 C 788.460938 95.328125 787.773438 95.261719 787.089844 95.125 C 786.410156 94.992188 785.746094 94.789062 785.105469 94.523438 C 784.460938 94.257812 783.851562 93.933594 783.273438 93.546875 C 782.695312 93.160156 782.160156 92.722656 781.667969 92.230469 C 781.175781 91.738281 780.734375 91.203125 780.347656 90.625 C 779.964844 90.046875 779.636719 89.4375 779.371094 88.796875 C 779.105469 88.152344 778.902344 87.492188 778.769531 86.8125 C 778.632812 86.128906 778.5625 85.441406 778.5625 84.746094 C 778.5625 84.050781 778.632812 83.363281 778.769531 82.679688 C 778.902344 82 779.105469 81.335938 779.371094 80.695312 C 779.636719 80.054688 779.964844 79.445312 780.347656 78.867188 C 780.734375 78.289062 781.175781 77.753906 781.667969 77.261719 C 782.160156 76.769531 782.695312 76.332031 783.273438 75.945312 C 783.851562 75.558594 784.460938 75.234375 785.105469 74.96875 C 785.746094 74.703125 786.410156 74.5 787.089844 74.367188 C 787.773438 74.230469 788.460938 74.164062 789.15625 74.164062 C 789.851562 74.164062 790.542969 74.230469 791.222656 74.367188 C 791.90625 74.5 792.570312 74.703125 793.210938 74.96875 C 793.855469 75.234375 794.464844 75.558594 795.042969 75.945312 C 795.621094 76.332031 796.15625 76.769531 796.648438 77.261719 C 797.140625 77.753906 797.578125 78.289062 797.964844 78.867188 C 798.351562 79.445312 798.679688 80.054688 798.945312 80.695312 C 799.210938 81.335938 799.410156 82 799.546875 82.679688 C 799.683594 83.363281 799.75 84.050781 799.75 84.746094 Z M 799.75 84.746094 "/>
<path style=" stroke:none;fill-rule:nonzero;fill:rgb(0.389099%,38.038635%,39.219666%);fill-opacity:1;" d="M 833.558594 84.746094 C 833.558594 85.441406 833.492188 86.128906 833.355469 86.8125 C 833.222656 87.492188 833.019531 88.152344 832.753906 88.796875 C 832.488281 89.4375 832.160156 90.046875 831.773438 90.625 C 831.386719 91.203125 830.949219 91.738281 830.457031 92.230469 C 829.964844 92.722656 829.429688 93.160156 828.851562 93.546875 C 828.273438 93.933594 827.664062 94.257812 827.019531 94.523438 C 826.378906 94.789062 825.714844 94.992188 825.035156 95.125 C 824.351562 95.261719 823.664062 95.328125 822.964844 95.328125 C 822.269531 95.328125 821.582031 95.261719 820.898438 95.125 C 820.21875 94.992188 819.554688 94.789062 818.914062 94.523438 C 818.269531 94.257812 817.660156 93.933594 817.082031 93.546875 C 816.503906 93.160156 815.96875 92.722656 815.476562 92.230469 C 814.984375 91.738281 814.546875 91.203125 814.160156 90.625 C 813.773438 90.046875 813.445312 89.4375 813.179688 88.796875 C 812.914062 88.152344 812.710938 87.492188 812.578125 86.8125 C 812.441406 86.128906 812.375 85.441406 812.375 84.746094 C 812.375 84.050781 812.441406 83.363281 812.578125 82.679688 C 812.710938 82 812.914062 81.335938 813.179688 80.695312 C 813.445312 80.054688 813.773438 79.445312 814.160156 78.867188 C 814.546875 78.289062 814.984375 77.753906 815.476562 77.261719 C 815.96875 76.769531 816.503906 76.332031 817.082031 75.945312 C 817.660156 75.558594 818.269531 75.234375 818.914062 74.96875 C 819.554688 74.703125 820.21875 74.5 820.898438 74.367188 C 821.582031 74.230469 822.269531 74.164062 822.964844 74.164062 C 823.664062 74.164062 824.351562 74.230469 825.035156 74.367188 C 825.714844 74.5 826.378906 74.703125 827.019531 74.96875 C 827.664062 75.234375 828.273438 75.558594 828.851562 75.945312 C 829.429688 76.332031 829.964844 76.769531 830.457031 77.261719 C 830.949219 77.753906 831.386719 78.289062 831.773438 78.867188 C 832.160156 79.445312 832.488281 80.054688 832.753906 80.695312 C 833.019531 81.335938 833.222656 82 833.355469 82.679688 C 833.492188 83.363281 833.558594 84.050781 833.558594 84.746094 Z M 833.558594 84.746094 "/>
<path style=" stroke:none;fill-rule:nonzero;fill:rgb(0.389099%,38.038635%,39.219666%);fill-opacity:1;" d="M 267.226562 147.414062 C 268.511719 148.070312 269.605469 148.675781 270.507812 149.199219 C 272.785156 150.230469 274.765625 151.730469 276.371094 153.578125 C 281.195312 156.546875 285.351562 160.492188 288.574219 165.136719 C 289.535156 163.355469 290.148438 161.355469 290.28125 159.203125 C 290.773438 151.261719 284.726562 144.421875 276.777344 143.929688 L 267.339844 143.34375 C 267.324219 143.960938 267.324219 144.558594 267.296875 145.191406 C 267.261719 145.957031 267.246094 146.683594 267.226562 147.414062 Z M 267.226562 147.414062 "/>
<g clip-path="url(#clip5)" clip-rule="nonzero">
<path style=" stroke:none;fill-rule:nonzero;fill:rgb(0.389099%,38.038635%,39.219666%);fill-opacity:1;" d="M 136.089844 342.628906 L 149.054688 301.527344 C 147.011719 302.378906 144.765625 302.851562 142.402344 302.851562 L 141.9375 302.84375 C 137.335938 302.714844 133.085938 300.8125 129.945312 297.488281 C 126.800781 294.164062 125.144531 289.816406 125.273438 285.25 C 127.371094 211.433594 149.660156 160.03125 150.609375 157.878906 C 152.3125 154.015625 155.355469 150.949219 159.207031 149.203125 C 163.921875 146.457031 173.984375 141.488281 188.914062 138.476562 L 141.089844 135.511719 C 140.34375 135.386719 139.585938 135.308594 138.804688 135.308594 L 69.140625 135.308594 C 68.851562 135.308594 68.566406 135.332031 68.28125 135.351562 C 63.210938 135.46875 53.316406 137.09375 43.1875 146.601562 C 19.941406 168.425781 10.414062 218.078125 14.871094 294.1875 C 15.320312 301.847656 21.675781 307.757812 29.257812 307.757812 C 29.539062 307.757812 29.828125 307.75 30.113281 307.730469 C 38.066406 307.265625 44.136719 300.449219 43.671875 292.503906 C 39.964844 229.203125 47.144531 195.457031 55.207031 178.707031 L 55.207031 448.976562 C 55.207031 461.28125 65.191406 471.25 77.5 471.25 C 89.8125 471.25 99.796875 461.28125 99.796875 448.976562 L 99.796875 286.359375 L 108.152344 286.359375 L 108.152344 448.976562 C 108.152344 461.28125 118.136719 471.25 130.445312 471.25 C 142.757812 471.25 152.742188 461.28125 152.742188 448.976562 L 152.742188 350.550781 C 143.140625 348.214844 139.703125 345.796875 138.742188 344.953125 Z M 136.089844 342.628906 "/>
</g>
<path style=" stroke:none;fill-rule:nonzero;fill:rgb(0.389099%,38.038635%,39.219666%);fill-opacity:1;" d="M 103.976562 125.042969 C 126.382812 125.042969 144.546875 106.898438 144.546875 84.511719 C 144.546875 62.125 126.382812 43.980469 103.976562 43.980469 C 81.570312 43.980469 63.402344 62.125 63.402344 84.511719 C 63.402344 106.894531 81.570312 125.042969 103.976562 125.042969 Z M 129.28125 100.0625 C 124.035156 108.546875 114.667969 114.234375 103.972656 114.234375 C 93.277344 114.234375 83.910156 108.546875 78.664062 100.0625 Z M 129.28125 100.0625 "/>
<path style=" stroke:none;fill-rule:nonzero;fill:rgb(0.389099%,38.038635%,39.219666%);fill-opacity:1;" d="M 210.40625 355.730469 C 210.042969 355.726562 209.65625 355.730469 209.292969 355.726562 C 209.253906 355.769531 209.21875 355.820312 209.175781 355.863281 C 206.230469 358.871094 202.285156 360.558594 198.128906 360.605469 L 197.890625 360.605469 C 193.050781 360.605469 188.695312 358.394531 185.792969 354.925781 C 182.191406 354.703125 178.878906 354.4375 175.789062 354.140625 L 175.789062 452.089844 C 175.789062 462.039062 183.871094 470.105469 193.820312 470.105469 C 201.785156 470.105469 208.53125 464.941406 210.917969 457.789062 C 210.585938 456.226562 210.40625 454.613281 210.40625 452.953125 Z M 210.40625 355.730469 "/>
<path style=" stroke:none;fill-rule:nonzero;fill:rgb(0.389099%,38.038635%,39.219666%);fill-opacity:1;" d="M 278.566406 224.121094 C 278.839844 223.011719 279.121094 221.921875 279.402344 220.835938 C 277.765625 222.054688 276.035156 223.152344 274.226562 224.121094 Z M 278.566406 224.121094 "/>
<path style=" stroke:none;fill-rule:nonzero;fill:rgb(0.389099%,38.038635%,39.219666%);fill-opacity:1;" d="M 240.25 128.34375 C 240.972656 134.730469 240.78125 142.410156 241.285156 149.972656 C 245.597656 148.414062 250.246094 147.558594 255.089844 147.558594 C 257.816406 147.558594 260.476562 147.835938 263.054688 148.34375 C 263.070312 147.265625 263.101562 146.160156 263.152344 145.003906 C 263.886719 128.5 259.839844 118.207031 253.84375 111.695312 C 250.785156 118.332031 246.078125 124.058594 240.25 128.34375 Z M 240.25 128.34375 "/>
<path style=" stroke:none;fill-rule:nonzero;fill:rgb(0.389099%,38.038635%,39.219666%);fill-opacity:1;" d="M 253.628906 93.808594 C 253.628906 72.417969 236.273438 55.078125 214.859375 55.078125 C 193.449219 55.078125 176.09375 72.417969 176.09375 93.808594 C 176.09375 115.199219 193.449219 132.539062 214.859375 132.539062 C 236.273438 132.539062 253.628906 115.199219 253.628906 93.808594 Z M 191.707031 104.867188 L 238.027344 104.867188 C 233.226562 112.636719 224.652344 117.839844 214.867188 117.839844 C 205.078125 117.839844 196.507812 112.632812 191.707031 104.867188 Z M 191.707031 104.867188 "/>
<path style=" stroke:none;fill-rule:nonzero;fill:rgb(0.389099%,38.038635%,39.219666%);fill-opacity:1;" d="M 203.609375 233.617188 C 209.285156 227.882812 216.273438 224.664062 223.847656 224.289062 C 224.644531 224.175781 225.398438 224.121094 226.148438 224.121094 L 235.957031 224.121094 C 223.128906 217.265625 214.382812 203.753906 214.382812 188.234375 C 214.382812 172.195312 223.722656 158.300781 237.253906 151.683594 C 237.03125 148.851562 236.910156 146.015625 236.824219 143.234375 C 230.375 142.101562 223.0625 141.355469 214.859375 141.355469 C 186.023438 141.355469 167.804688 150.40625 161.671875 154.023438 C 159.039062 155.148438 156.804688 157.230469 155.558594 160.054688 C 154.628906 162.164062 132.75 212.59375 130.679688 285.402344 C 130.492188 291.867188 135.59375 297.257812 142.0625 297.441406 C 142.175781 297.441406 142.289062 297.445312 142.402344 297.445312 C 146.273438 297.445312 149.722656 295.550781 151.859375 292.625 L 154.136719 285.414062 C 155.464844 241.546875 164.605469 206.015625 170.925781 186.332031 C 174.894531 199.035156 178.128906 213.0625 177.167969 222.953125 C 176.542969 229.378906 175.574219 234.46875 174.480469 239.105469 L 174.417969 239.105469 L 142.304688 340.886719 C 142.304688 340.886719 149.132812 346.835938 182.773438 349.296875 C 182.367188 347.9375 182.128906 346.503906 182.113281 345.019531 C 181.425781 284.539062 188.253906 249.136719 203.609375 233.617188 Z M 203.609375 233.617188 "/>
<path style=" stroke:none;fill-rule:nonzero;fill:rgb(0.389099%,38.038635%,39.219666%);fill-opacity:1;" d="M 485.597656 297.148438 C 489.097656 298.808594 492.820312 300.183594 496.734375 301.300781 C 503.417969 276.941406 514.203125 259.050781 529.03125 247.925781 C 529.777344 247.140625 531.414062 245.714844 534.519531 244.234375 C 540.210938 240.832031 545.808594 238.738281 550.929688 237.472656 C 536.707031 231.789062 526.621094 217.90625 526.621094 201.691406 C 526.621094 198.601562 527.023438 195.609375 527.714844 192.730469 L 527.714844 190.382812 L 528.316406 190.382812 C 530.617188 182.90625 535.148438 176.40625 541.117188 171.621094 C 541.113281 171.421875 541.085938 171.226562 541.085938 171.023438 C 541.085938 157.738281 551.90625 146.929688 565.203125 146.929688 C 578.5 146.929688 589.320312 157.738281 589.320312 171.023438 C 589.320312 171.226562 589.296875 171.421875 589.289062 171.621094 C 595.261719 176.40625 599.789062 182.90625 602.089844 190.386719 L 602.695312 190.386719 L 602.695312 192.726562 C 603.386719 195.609375 603.789062 198.601562 603.789062 201.691406 C 603.789062 206.539062 602.851562 211.164062 601.210938 215.441406 C 603.457031 225.179688 604.679688 234.742188 604.679688 243.492188 C 604.679688 245.855469 604.578125 248.148438 604.40625 250.398438 C 606.40625 252.089844 608.339844 253.902344 610.183594 255.859375 C 613.4375 246.132812 617.59375 238.773438 622.691406 233.621094 C 623.945312 232.351562 625.273438 231.226562 626.652344 230.207031 C 622.546875 192.164062 611.207031 163.046875 592.699219 143.292969 C 584.050781 134.066406 574.722656 127.746094 565.488281 123.472656 C 556.824219 135.667969 542.582031 143.652344 526.503906 143.652344 C 510.554688 143.652344 496.410156 135.796875 487.726562 123.761719 C 478.695312 128.03125 469.585938 134.269531 461.128906 143.296875 C 455.566406 149.230469 450.664062 156.027344 446.394531 163.640625 C 469.601562 187.050781 482.765625 231.925781 485.597656 297.148438 Z M 485.597656 297.148438 "/>
<path style=" stroke:none;fill-rule:nonzero;fill:rgb(0.389099%,38.038635%,39.219666%);fill-opacity:1;" d="M 503.972656 396.023438 L 503.972656 392.21875 C 503.972656 384.824219 504.5625 375.816406 505.726562 365.34375 C 505.363281 365.371094 505 365.382812 504.628906 365.382812 C 504.308594 365.382812 503.988281 365.375 503.664062 365.351562 C 499.589844 365.101562 495.84375 363.273438 493.132812 360.207031 C 490.421875 357.140625 489.070312 353.207031 489.324219 349.125 C 490.304688 333.304688 492.339844 319.085938 495.390625 306.46875 C 492.03125 305.5 488.839844 304.359375 485.824219 303.058594 C 485.855469 303.984375 485.894531 304.898438 485.921875 305.832031 C 486.085938 311.605469 483.992188 317.09375 480.023438 321.292969 C 476.867188 324.632812 472.824219 326.8125 468.398438 327.660156 L 471.507812 365.222656 L 480.632812 421.3125 L 477.789062 423.253906 C 477.644531 423.351562 477.167969 423.671875 476.382812 424.15625 L 478.328125 447.6875 C 478.328125 459.992188 488.3125 469.957031 500.621094 469.957031 C 512.933594 469.957031 522.917969 459.992188 522.917969 447.6875 L 522.917969 401.21875 C 513.351562 399.34375 507.988281 397.464844 507.554688 397.304688 Z M 503.972656 396.023438 "/>
<path style=" stroke:none;fill-rule:nonzero;fill:rgb(0.389099%,38.038635%,39.219666%);fill-opacity:1;" d="M 579.484375 237.472656 C 584.605469 238.738281 590.207031 240.832031 595.902344 244.238281 C 597.285156 244.898438 598.363281 245.542969 599.210938 246.128906 C 599.238281 245.253906 599.273438 244.390625 599.273438 243.492188 C 599.273438 236.964844 598.578125 230.0625 597.308594 223.039062 C 592.996094 229.492188 586.785156 234.554688 579.484375 237.472656 Z M 579.484375 237.472656 "/>
<path style=" stroke:none;fill-rule:nonzero;fill:rgb(0.389099%,38.038635%,39.219666%);fill-opacity:1;" d="M 496.917969 82.71875 C 498.859375 77.339844 503.996094 73.488281 510.050781 73.488281 C 516.105469 73.488281 521.246094 77.339844 523.183594 82.71875 L 530.722656 82.71875 C 532.664062 77.339844 537.804688 73.488281 543.859375 73.488281 C 549.910156 73.488281 555.050781 77.339844 556.992188 82.71875 L 567.722656 82.71875 C 562.140625 65.292969 545.800781 52.675781 526.507812 52.675781 C 507.210938 52.675781 490.871094 65.296875 485.289062 82.71875 Z M 496.917969 82.71875 "/>
<path style=" stroke:none;fill-rule:nonzero;fill:rgb(0.389099%,38.038635%,39.219666%);fill-opacity:1;" d="M 526.507812 139.144531 C 550.410156 139.144531 569.785156 119.789062 569.785156 95.910156 C 569.785156 92.855469 569.464844 89.875 568.859375 86.996094 L 557.8125 86.996094 C 557.820312 87.148438 557.835938 87.296875 557.835938 87.449219 C 557.835938 95.160156 551.582031 101.410156 543.863281 101.410156 C 536.144531 101.410156 529.890625 95.160156 529.890625 87.449219 C 529.890625 87.296875 529.90625 87.148438 529.914062 86.996094 L 524.007812 86.996094 C 524.011719 87.148438 524.03125 87.296875 524.03125 87.449219 C 524.03125 95.160156 517.773438 101.410156 510.054688 101.410156 C 502.339844 101.410156 496.082031 95.160156 496.082031 87.449219 C 496.082031 87.296875 496.101562 87.148438 496.105469 86.996094 L 484.164062 86.996094 C 483.558594 89.875 483.238281 92.855469 483.238281 95.910156 C 483.234375 119.789062 502.609375 139.144531 526.507812 139.144531 Z M 529.691406 104.96875 C 529.691406 104.96875 535.09375 104.460938 537.59375 107.382812 C 540.101562 110.300781 542.761719 115.015625 550.859375 114.78125 C 555.867188 114.636719 542.605469 119.054688 537.59375 114.886719 C 532.585938 110.714844 528 110.714844 528 110.714844 C 528 110.714844 526.679688 105.984375 529.691406 104.96875 Z M 515.421875 107.382812 C 517.921875 104.460938 523.324219 104.96875 523.324219 104.96875 C 526.339844 105.984375 525.019531 110.714844 525.019531 110.714844 C 525.019531 110.714844 520.429688 110.714844 515.421875 114.886719 C 510.414062 119.054688 497.152344 114.636719 502.15625 114.78125 C 510.253906 115.015625 512.917969 110.300781 515.421875 107.382812 Z M 515.421875 107.382812 "/>
<path style=" stroke:none;fill-rule:nonzero;fill:rgb(0.389099%,38.038635%,39.219666%);fill-opacity:1;" d="M 520.644531 87.449219 C 520.644531 88.144531 520.578125 88.832031 520.441406 89.511719 C 520.304688 90.195312 520.105469 90.855469 519.839844 91.5 C 519.574219 92.140625 519.246094 92.75 518.859375 93.328125 C 518.472656 93.90625 518.035156 94.441406 517.542969 94.933594 C 517.050781 95.421875 516.515625 95.863281 515.9375 96.246094 C 515.359375 96.632812 514.75 96.960938 514.105469 97.226562 C 513.464844 97.492188 512.800781 97.691406 512.117188 97.828125 C 511.4375 97.964844 510.746094 98.03125 510.050781 98.03125 C 509.355469 98.03125 508.667969 97.964844 507.984375 97.828125 C 507.304688 97.691406 506.640625 97.492188 506 97.226562 C 505.355469 96.960938 504.746094 96.632812 504.167969 96.246094 C 503.589844 95.863281 503.054688 95.421875 502.5625 94.933594 C 502.070312 94.441406 501.628906 93.90625 501.246094 93.328125 C 500.859375 92.75 500.53125 92.140625 500.265625 91.5 C 500 90.855469 499.796875 90.195312 499.664062 89.511719 C 499.527344 88.832031 499.457031 88.144531 499.457031 87.449219 C 499.457031 86.753906 499.527344 86.066406 499.664062 85.382812 C 499.796875 84.703125 500 84.039062 500.265625 83.398438 C 500.53125 82.757812 500.859375 82.144531 501.246094 81.566406 C 501.628906 80.992188 502.070312 80.457031 502.5625 79.964844 C 503.054688 79.472656 503.589844 79.035156 504.167969 78.648438 C 504.746094 78.261719 505.355469 77.9375 506 77.671875 C 506.640625 77.402344 507.304688 77.203125 507.984375 77.066406 C 508.667969 76.933594 509.355469 76.863281 510.050781 76.863281 C 510.746094 76.863281 511.4375 76.933594 512.117188 77.066406 C 512.800781 77.203125 513.464844 77.402344 514.105469 77.671875 C 514.75 77.9375 515.359375 78.261719 515.9375 78.648438 C 516.515625 79.035156 517.050781 79.472656 517.542969 79.964844 C 518.035156 80.457031 518.472656 80.992188 518.859375 81.566406 C 519.246094 82.144531 519.574219 82.757812 519.839844 83.398438 C 520.105469 84.039062 520.304688 84.703125 520.441406 85.382812 C 520.578125 86.066406 520.644531 86.753906 520.644531 87.449219 Z M 520.644531 87.449219 "/>
<path style=" stroke:none;fill-rule:nonzero;fill:rgb(0.389099%,38.038635%,39.219666%);fill-opacity:1;" d="M 554.453125 87.449219 C 554.453125 88.144531 554.386719 88.832031 554.25 89.511719 C 554.117188 90.195312 553.914062 90.855469 553.648438 91.5 C 553.382812 92.140625 553.054688 92.75 552.667969 93.328125 C 552.28125 93.90625 551.84375 94.441406 551.351562 94.933594 C 550.859375 95.421875 550.324219 95.863281 549.746094 96.246094 C 549.167969 96.632812 548.558594 96.960938 547.914062 97.226562 C 547.273438 97.492188 546.609375 97.691406 545.929688 97.828125 C 545.246094 97.964844 544.558594 98.03125 543.863281 98.03125 C 543.164062 98.03125 542.476562 97.964844 541.792969 97.828125 C 541.113281 97.691406 540.449219 97.492188 539.808594 97.226562 C 539.164062 96.960938 538.554688 96.632812 537.976562 96.246094 C 537.398438 95.863281 536.863281 95.421875 536.371094 94.933594 C 535.878906 94.441406 535.441406 93.90625 535.054688 93.328125 C 534.667969 92.75 534.339844 92.140625 534.074219 91.5 C 533.808594 90.855469 533.605469 90.195312 533.472656 89.511719 C 533.335938 88.832031 533.269531 88.144531 533.269531 87.449219 C 533.269531 86.753906 533.335938 86.066406 533.472656 85.382812 C 533.605469 84.703125 533.808594 84.039062 534.074219 83.398438 C 534.339844 82.757812 534.667969 82.144531 535.054688 81.566406 C 535.441406 80.992188 535.878906 80.457031 536.371094 79.964844 C 536.863281 79.472656 537.398438 79.035156 537.976562 78.648438 C 538.554688 78.261719 539.164062 77.9375 539.808594 77.671875 C 540.449219 77.402344 541.113281 77.203125 541.792969 77.066406 C 542.476562 76.933594 543.164062 76.863281 543.863281 76.863281 C 544.558594 76.863281 545.246094 76.933594 545.929688 77.066406 C 546.609375 77.203125 547.273438 77.402344 547.914062 77.671875 C 548.558594 77.9375 549.167969 78.261719 549.746094 78.648438 C 550.324219 79.035156 550.859375 79.472656 551.351562 79.964844 C 551.84375 80.457031 552.28125 80.992188 552.667969 81.566406 C 553.054688 82.144531 553.382812 82.757812 553.648438 83.398438 C 553.914062 84.039062 554.117188 84.703125 554.25 85.382812 C 554.386719 86.066406 554.453125 86.753906 554.453125 87.449219 Z M 554.453125 87.449219 "/>
<path style=" stroke:none;fill-rule:nonzero;fill:rgb(0.389099%,38.038635%,39.219666%);fill-opacity:1;" d="M 287.132812 213.277344 C 286.054688 216.746094 285.050781 220.375 284.105469 224.125 C 284.835938 224.128906 285.566406 224.179688 286.335938 224.289062 C 293.90625 224.664062 300.894531 227.886719 306.570312 233.617188 C 309.785156 236.867188 312.621094 241.003906 315.101562 246.042969 C 315.933594 245.480469 316.976562 244.863281 318.296875 244.234375 C 321.585938 242.265625 324.847656 240.746094 328.003906 239.558594 L 328.773438 234.46875 C 317.765625 227.671875 310.394531 215.539062 310.394531 201.691406 C 310.394531 180.894531 326.972656 163.933594 347.613281 163.207031 C 348.578125 161.851562 349.609375 160.582031 350.683594 159.367188 C 347.628906 157.28125 344.828125 154.855469 342.339844 152.128906 C 337.175781 152.453125 326.136719 154.507812 314.402344 165.292969 C 307.199219 171.914062 300.953125 180.667969 295.660156 191.488281 C 295.007812 199.667969 291.925781 207.167969 287.132812 213.277344 Z M 287.132812 213.277344 "/>
<path style=" stroke:none;fill-rule:nonzero;fill:rgb(0.389099%,38.038635%,39.219666%);fill-opacity:1;" d="M 343.953125 470.300781 C 346.707031 469.738281 349.222656 468.5625 351.351562 466.914062 C 350.277344 465.1875 349.46875 463.289062 348.976562 461.257812 C 348.140625 464.726562 346.378906 467.839844 343.953125 470.300781 Z M 343.953125 470.300781 "/>
<path style=" stroke:none;fill-rule:nonzero;fill:rgb(0.389099%,38.038635%,39.219666%);fill-opacity:1;" d="M 414.429688 470.691406 C 424.003906 470.691406 431.976562 463.171875 432.429688 453.519531 C 432.625 449.382812 432.769531 445.386719 432.882812 441.476562 C 422.476562 444.105469 410.339844 446.273438 396.59375 447.367188 C 396.535156 448.847656 396.476562 450.320312 396.40625 451.832031 C 395.9375 461.769531 403.625 470.207031 413.574219 470.671875 C 413.859375 470.6875 414.144531 470.691406 414.429688 470.691406 Z M 414.429688 470.691406 "/>
<path style=" stroke:none;fill-rule:nonzero;fill:rgb(0.389099%,38.038635%,39.219666%);fill-opacity:1;" d="M 474.738281 418.785156 L 448.675781 258.589844 L 454.15625 258.589844 L 464.578125 322.660156 C 464.636719 322.660156 464.695312 322.660156 464.753906 322.660156 C 473.714844 322.402344 480.765625 314.9375 480.507812 305.988281 C 478.480469 235.269531 464.960938 187.933594 440.332031 165.292969 C 428.597656 154.507812 417.554688 152.457031 412.390625 152.132812 C 409.988281 154.769531 407.28125 157.125 404.34375 159.164062 C 421.867188 178.722656 424.808594 218.628906 425.292969 230.019531 L 446.640625 371.371094 C 446.640625 371.371094 435.558594 384.15625 410.199219 390.894531 C 410.203125 391.335938 410.210938 391.789062 410.210938 392.222656 L 410.210938 396.027344 L 406.632812 397.308594 C 406.136719 397.488281 399.332031 399.878906 387.246094 401.964844 L 387.246094 442.523438 C 443.289062 440.191406 474.738281 418.785156 474.738281 418.785156 Z M 474.738281 418.785156 "/>
<path style=" stroke:none;fill-rule:nonzero;fill:rgb(0.389099%,38.038635%,39.219666%);fill-opacity:1;" d="M 299.773438 399.710938 L 299.773438 428.632812 C 303.03125 429.941406 306.691406 431.285156 310.710938 432.59375 L 310.710938 401.960938 C 306.367188 401.210938 302.707031 400.421875 299.773438 399.710938 Z M 299.773438 399.710938 "/>
<path style=" stroke:none;fill-rule:nonzero;fill:rgb(0.389099%,38.038635%,39.219666%);fill-opacity:1;" d="M 358.816406 163.824219 C 358.648438 163.988281 358.484375 164.160156 358.320312 164.328125 C 375.089844 168.515625 387.566406 183.652344 387.566406 201.691406 C 387.566406 203.984375 387.328125 206.222656 386.941406 208.410156 C 391.425781 211.417969 395.390625 216.039062 397.542969 223.199219 L 415.855469 223.199219 C 414.339844 204.921875 409.214844 176.347656 396.242188 163.679688 C 390.457031 166.199219 384.074219 167.605469 377.371094 167.605469 C 370.789062 167.605469 364.515625 166.257812 358.816406 163.824219 Z M 358.816406 163.824219 "/>
<path style=" stroke:none;fill-rule:nonzero;fill:rgb(0.389099%,38.038635%,39.219666%);fill-opacity:1;" d="M 409.3125 246.167969 C 413.1875 246.167969 416.332031 243.03125 416.332031 239.15625 C 416.332031 235.28125 413.1875 232.144531 409.3125 232.144531 C 405.4375 232.144531 402.292969 235.28125 402.292969 239.15625 C 402.292969 243.03125 405.4375 246.167969 409.3125 246.167969 Z M 409.3125 246.167969 "/>
<path style=" stroke:none;fill-rule:nonzero;fill:rgb(0.389099%,38.038635%,39.219666%);fill-opacity:1;" d="M 336.144531 133.402344 C 336.304688 133.890625 336.464844 134.375 336.636719 134.855469 C 336.738281 135.636719 336.875 136.394531 337.09375 137.101562 C 337.761719 139.300781 338.945312 141.25 340.484375 142.84375 C 348.097656 155.210938 361.765625 163.464844 377.371094 163.464844 C 392.664062 163.464844 406.09375 155.53125 413.789062 143.566406 C 415.707031 141.859375 417.207031 139.664062 417.984375 137.101562 C 418.316406 136.023438 418.519531 134.839844 418.566406 133.601562 C 420.6875 132.621094 422.515625 131.121094 423.917969 129.269531 C 425.453125 127.238281 426.472656 124.777344 426.738281 122.0625 C 426.9375 120.0625 426.679688 117.921875 425.917969 115.867188 C 428.355469 113.253906 429.683594 109.839844 429.683594 106.214844 C 429.683594 102.789062 428.394531 99.261719 425.914062 96.5625 C 426.679688 94.507812 426.933594 92.367188 426.738281 90.371094 C 426.230469 85.175781 423.015625 80.882812 418.570312 78.828125 C 418.519531 77.589844 418.316406 76.40625 417.984375 75.328125 C 416.230469 69.546875 410.925781 65.457031 404.957031 65.214844 C 404.84375 64.972656 404.726562 64.734375 404.597656 64.496094 C 402.125 59.871094 397.296875 57 392.007812 57 C 390.476562 57 388.820312 57.265625 387.179688 57.867188 C 384.589844 55.472656 381.167969 54.125 377.539062 54.125 C 373.910156 54.125 370.488281 55.472656 367.898438 57.867188 C 366.261719 57.265625 364.605469 57 363.074219 57 C 357.78125 57 352.957031 59.871094 350.480469 64.492188 C 350.351562 64.730469 350.230469 64.972656 350.121094 65.214844 C 344.152344 65.460938 338.847656 69.550781 337.09375 75.328125 C 336.761719 76.410156 336.558594 77.589844 336.511719 78.828125 C 332.0625 80.882812 328.847656 85.171875 328.339844 90.371094 C 328.144531 92.375 328.398438 94.511719 329.164062 96.566406 C 326.683594 99.265625 325.398438 102.789062 325.398438 106.214844 C 325.398438 109.632812 326.6875 113.160156 329.164062 115.863281 C 328.402344 117.917969 328.144531 120.058594 328.339844 122.0625 C 328.578125 124.5 329.429688 126.726562 330.710938 128.628906 C 332.078125 130.660156 333.945312 132.304688 336.144531 133.402344 Z M 364.90625 146.300781 L 389.832031 146.300781 C 387.25 150.480469 382.636719 153.28125 377.367188 153.28125 C 372.101562 153.28125 367.488281 150.480469 364.90625 146.300781 Z M 417.941406 120.25 L 417.941406 124.714844 L 410.058594 124.714844 C 410.0625 124.871094 410.082031 125.027344 410.082031 125.1875 C 410.082031 133.238281 403.550781 139.765625 395.488281 139.765625 C 387.429688 139.765625 380.898438 133.238281 380.898438 125.1875 C 380.898438 125.027344 380.914062 124.871094 380.921875 124.714844 L 374.753906 124.714844 C 374.757812 124.871094 374.777344 125.027344 374.777344 125.1875 C 374.777344 133.238281 368.242188 139.765625 360.183594 139.765625 C 352.125 139.765625 345.589844 133.238281 345.589844 125.1875 C 345.589844 125.027344 345.609375 124.871094 345.613281 124.714844 L 336.800781 124.714844 L 336.800781 120.25 L 346.46875 120.25 C 348.492188 114.632812 353.863281 110.605469 360.183594 110.605469 C 366.503906 110.605469 371.871094 114.632812 373.898438 120.25 L 381.773438 120.25 C 383.800781 114.632812 389.167969 110.605469 395.488281 110.605469 C 401.8125 110.605469 407.175781 114.632812 409.207031 120.25 Z M 343.167969 99.382812 C 329.085938 96.582031 336.464844 78.792969 348.398438 86.761719 C 336.464844 78.792969 350.09375 65.179688 358.070312 77.101562 C 350.09375 65.179688 367.898438 57.808594 370.699219 71.875 C 367.898438 57.808594 387.175781 57.808594 384.375 71.875 C 387.175781 57.808594 404.984375 65.179688 397.007812 77.101562 C 404.984375 65.179688 418.609375 78.792969 406.675781 86.761719 C 418.609375 78.792969 425.988281 96.582031 411.90625 99.382812 C 423.804688 97.015625 425.648438 110.402344 417.4375 112.917969 C 403.871094 98.824219 351.121094 98.796875 337.386719 112.828125 C 329.472656 110.113281 331.394531 97.039062 343.167969 99.382812 Z M 343.167969 99.382812 "/>
<path style=" stroke:none;fill-rule:nonzero;fill:rgb(0.389099%,38.038635%,39.219666%);fill-opacity:1;" d="M 368.003906 117.371094 C 368.515625 117.886719 368.972656 118.445312 369.378906 119.046875 C 369.78125 119.652344 370.121094 120.289062 370.398438 120.957031 C 370.679688 121.628906 370.886719 122.320312 371.03125 123.03125 C 371.171875 123.742188 371.242188 124.460938 371.242188 125.1875 C 371.242188 125.914062 371.171875 126.632812 371.03125 127.34375 C 370.886719 128.054688 370.679688 128.746094 370.398438 129.417969 C 370.121094 130.085938 369.78125 130.722656 369.378906 131.328125 C 368.972656 131.929688 368.515625 132.488281 368.003906 133.003906 C 367.488281 133.515625 366.929688 133.972656 366.324219 134.378906 C 365.722656 134.78125 365.085938 135.121094 364.414062 135.398438 C 363.742188 135.675781 363.050781 135.886719 362.339844 136.027344 C 361.625 136.167969 360.90625 136.238281 360.179688 136.238281 C 359.453125 136.238281 358.734375 136.167969 358.023438 136.027344 C 357.308594 135.886719 356.617188 135.675781 355.945312 135.398438 C 355.277344 135.121094 354.636719 134.78125 354.035156 134.378906 C 353.429688 133.972656 352.871094 133.515625 352.359375 133.003906 C 351.84375 132.488281 351.386719 131.929688 350.980469 131.328125 C 350.578125 130.726562 350.238281 130.089844 349.960938 129.417969 C 349.683594 128.746094 349.472656 128.054688 349.332031 127.34375 C 349.1875 126.632812 349.117188 125.914062 349.117188 125.1875 C 349.117188 124.460938 349.1875 123.742188 349.332031 123.03125 C 349.472656 122.320312 349.683594 121.628906 349.960938 120.957031 C 350.238281 120.289062 350.578125 119.652344 350.980469 119.046875 C 351.386719 118.445312 351.84375 117.886719 352.359375 117.375 C 352.871094 116.859375 353.429688 116.402344 354.035156 116 C 354.636719 115.59375 355.277344 115.253906 355.945312 114.976562 C 356.617188 114.699219 357.308594 114.488281 358.023438 114.347656 C 358.734375 114.207031 359.453125 114.136719 360.179688 114.136719 C 360.90625 114.136719 361.625 114.207031 362.339844 114.347656 C 363.050781 114.488281 363.742188 114.699219 364.414062 114.976562 C 365.085938 115.253906 365.722656 115.59375 366.324219 116 C 366.929688 116.402344 367.488281 116.859375 368.003906 117.371094 Z M 368.003906 117.371094 "/>
<path style=" stroke:none;fill-rule:nonzero;fill:rgb(0.389099%,38.038635%,39.219666%);fill-opacity:1;" d="M 403.308594 117.371094 C 403.820312 117.886719 404.28125 118.445312 404.683594 119.046875 C 405.085938 119.652344 405.429688 120.289062 405.707031 120.957031 C 405.984375 121.628906 406.195312 122.320312 406.335938 123.03125 C 406.476562 123.742188 406.546875 124.460938 406.546875 125.1875 C 406.546875 125.914062 406.476562 126.632812 406.335938 127.34375 C 406.195312 128.054688 405.984375 128.746094 405.707031 129.417969 C 405.429688 130.085938 405.085938 130.722656 404.683594 131.328125 C 404.28125 131.929688 403.820312 132.488281 403.308594 133.003906 C 402.792969 133.515625 402.234375 133.972656 401.632812 134.378906 C 401.027344 134.78125 400.390625 135.121094 399.71875 135.398438 C 399.046875 135.675781 398.355469 135.886719 397.644531 136.027344 C 396.929688 136.167969 396.210938 136.238281 395.484375 136.238281 C 394.757812 136.238281 394.039062 136.167969 393.328125 136.027344 C 392.617188 135.886719 391.921875 135.675781 391.253906 135.398438 C 390.582031 135.121094 389.945312 134.78125 389.339844 134.378906 C 388.734375 133.972656 388.175781 133.515625 387.664062 133.003906 C 387.148438 132.488281 386.691406 131.929688 386.289062 131.328125 C 385.882812 130.726562 385.542969 130.089844 385.265625 129.417969 C 384.988281 128.746094 384.777344 128.054688 384.636719 127.34375 C 384.496094 126.632812 384.421875 125.914062 384.421875 125.1875 C 384.421875 124.460938 384.492188 123.742188 384.636719 123.03125 C 384.777344 122.320312 384.988281 121.628906 385.265625 120.957031 C 385.542969 120.289062 385.882812 119.652344 386.289062 119.046875 C 386.691406 118.445312 387.148438 117.886719 387.664062 117.375 C 388.175781 116.859375 388.734375 116.402344 389.339844 116 C 389.945312 115.59375 390.582031 115.253906 391.253906 114.976562 C 391.921875 114.699219 392.613281 114.488281 393.328125 114.347656 C 394.039062 114.207031 394.757812 114.136719 395.484375 114.136719 C 396.210938 114.136719 396.929688 114.207031 397.644531 114.347656 C 398.355469 114.488281 399.046875 114.699219 399.71875 114.976562 C 400.390625 115.253906 401.027344 115.59375 401.632812 116 C 402.234375 116.402344 402.792969 116.859375 403.308594 117.371094 Z M 403.308594 117.371094 "/>
<path style=" stroke:none;fill-rule:nonzero;fill:rgb(0.389099%,38.038635%,39.219666%);fill-opacity:1;" d="M 294.367188 398.269531 C 292.546875 397.734375 291.507812 397.371094 291.328125 397.304688 L 287.746094 396.023438 L 287.746094 392.21875 C 287.746094 384.824219 288.335938 375.816406 289.503906 365.34375 C 289.136719 365.371094 288.773438 365.382812 288.402344 365.382812 C 288.082031 365.382812 287.761719 365.375 287.441406 365.351562 C 283.363281 365.101562 279.621094 363.273438 276.90625 360.207031 C 274.195312 357.140625 272.84375 353.207031 273.097656 349.125 C 275.246094 314.519531 282.386719 287.535156 294.367188 268.425781 L 294.367188 264.230469 C 294.664062 265.121094 294.957031 266.078125 295.25 267.089844 C 299.769531 260.167969 304.945312 254.324219 310.78125 249.578125 C 308.445312 244.539062 305.761719 240.488281 302.726562 237.417969 C 297.921875 232.566406 292.089844 229.921875 285.808594 229.679688 C 285.230469 229.585938 284.644531 229.527344 284.039062 229.527344 L 226.152344 229.527344 C 225.546875 229.527344 224.957031 229.585938 224.382812 229.679688 C 218.097656 229.921875 212.261719 232.566406 207.460938 237.417969 C 193.382812 251.644531 186.863281 286.824219 187.527344 344.964844 C 187.589844 350.644531 192.222656 355.203125 197.890625 355.203125 C 197.929688 355.203125 197.972656 355.203125 198.011719 355.203125 C 203.738281 355.136719 208.328125 350.449219 208.261719 344.726562 C 207.75 300.160156 211.714844 276.632812 215.816406 264.226562 L 215.816406 452.957031 C 215.816406 462.8125 223.816406 470.808594 233.683594 470.808594 C 243.550781 470.808594 251.550781 462.8125 251.550781 452.957031 L 251.550781 360.902344 L 258.632812 360.902344 L 258.632812 452.957031 C 258.632812 462.8125 266.636719 470.808594 276.496094 470.808594 C 286.367188 470.808594 294.367188 462.8125 294.367188 452.957031 Z M 294.367188 398.269531 "/>
<path style=" stroke:none;fill-rule:nonzero;fill:rgb(0.389099%,38.038635%,39.219666%);fill-opacity:1;" d="M 255.089844 152.964844 C 235.59375 152.964844 219.789062 168.757812 219.789062 188.234375 C 219.789062 207.710938 235.59375 223.5 255.089844 223.5 C 274.585938 223.5 290.390625 207.710938 290.390625 188.234375 C 290.394531 168.757812 274.589844 152.964844 255.089844 152.964844 Z M 253.566406 211.273438 C 244.796875 211.273438 237.121094 206.613281 232.820312 199.652344 L 274.3125 199.652344 C 270.015625 206.613281 262.335938 211.273438 253.566406 211.273438 Z M 253.566406 211.273438 "/>
<path style=" stroke:none;fill-rule:nonzero;fill:rgb(0.389099%,38.038635%,39.219666%);fill-opacity:1;" d="M 344.128906 405.023438 C 333.25 404.8125 323.847656 403.921875 316.121094 402.808594 L 316.121094 456.707031 C 316.121094 464.433594 322.390625 470.699219 330.125 470.699219 C 337.859375 470.699219 344.128906 464.433594 344.128906 456.707031 Z M 344.128906 405.023438 "/>
<path style=" stroke:none;fill-rule:nonzero;fill:rgb(0.389099%,38.038635%,39.219666%);fill-opacity:1;" d="M 381.839844 402.8125 C 374.113281 403.921875 364.710938 404.8125 353.828125 405.023438 L 353.828125 456.710938 C 353.828125 464.4375 360.101562 470.703125 367.835938 470.703125 C 375.566406 470.703125 381.839844 464.4375 381.839844 456.710938 Z M 381.839844 402.8125 "/>
<path style=" stroke:none;fill-rule:nonzero;fill:rgb(0.389099%,38.038635%,39.219666%);fill-opacity:1;" d="M 410.183594 359.957031 C 415.652344 359.621094 419.808594 354.921875 419.46875 349.457031 C 417.160156 312.246094 409.171875 287.679688 399.113281 271.511719 C 394.566406 271.234375 388.296875 269.371094 382.15625 262.691406 C 378.496094 258.710938 376.785156 253.652344 375.941406 248.332031 C 365.625 242.4375 355.699219 241.121094 348.980469 241.121094 C 342.007812 241.121094 331.582031 242.523438 320.847656 249.007812 C 317.707031 250.46875 316.660156 251.722656 316.660156 251.722656 C 316.660156 251.722656 316.652344 251.757812 316.636719 251.8125 C 299.21875 264.558594 282.0625 291.882812 278.496094 349.457031 C 278.15625 354.921875 282.3125 359.621094 287.777344 359.957031 C 287.984375 359.972656 288.191406 359.980469 288.402344 359.980469 C 291.472656 359.980469 294.230469 358.542969 296.058594 356.300781 C 294.289062 369.585938 293.152344 382.0625 293.152344 392.21875 C 293.152344 392.21875 313.933594 399.667969 348.980469 399.667969 C 384.023438 399.667969 404.804688 392.21875 404.804688 392.21875 C 404.804688 382.070312 403.671875 369.609375 401.902344 356.339844 C 403.863281 358.726562 406.886719 360.175781 410.183594 359.957031 Z M 410.183594 359.957031 "/>
<path style=" stroke:none;fill-rule:nonzero;fill:rgb(0.389099%,38.038635%,39.219666%);fill-opacity:1;" d="M 385.941406 212.710938 C 384.433594 217.746094 381.929688 222.359375 378.644531 226.304688 C 379.9375 236.476562 377.625 251.640625 385.210938 259.890625 C 398.480469 274.320312 412.945312 263.527344 407.109375 263.664062 C 401.277344 263.804688 394.082031 260.230469 395.039062 238.722656 C 395.65625 224.816406 391.511719 217.09375 385.941406 212.710938 Z M 385.941406 212.710938 "/>
<path style=" stroke:none;fill-rule:nonzero;fill:rgb(0.389099%,38.038635%,39.219666%);fill-opacity:1;" d="M 348.980469 236.09375 C 368.003906 236.09375 383.421875 220.691406 383.421875 201.6875 C 383.421875 182.683594 368.003906 167.28125 348.980469 167.28125 C 329.960938 167.28125 314.539062 182.683594 314.539062 201.6875 C 314.539062 220.691406 329.960938 236.09375 348.980469 236.09375 Z M 330.242188 212.277344 L 367.714844 212.277344 C 363.832031 218.5625 356.898438 222.773438 348.980469 222.773438 C 341.0625 222.773438 334.125 218.5625 330.242188 212.277344 Z M 330.242188 212.277344 "/>
<path style=" stroke:none;fill-rule:nonzero;fill:rgb(0.389099%,38.038635%,39.219666%);fill-opacity:1;" d="M 546.792969 167.820312 C 552.269531 164.835938 558.542969 163.140625 565.207031 163.140625 C 571.871094 163.140625 578.144531 164.835938 583.621094 167.820312 C 582.097656 159.027344 574.445312 152.335938 565.207031 152.335938 C 555.96875 152.332031 548.316406 159.027344 546.792969 167.820312 Z M 546.792969 167.820312 "/>
<path style=" stroke:none;fill-rule:nonzero;fill:rgb(0.389099%,38.038635%,39.219666%);fill-opacity:1;" d="M 626.539062 237.417969 C 621.523438 242.488281 617.476562 250.230469 614.359375 260.707031 C 620.539062 268.488281 625.679688 277.972656 629.78125 289.113281 C 631.1875 277.875 633.027344 269.886719 634.902344 264.222656 L 634.902344 305.960938 C 638.023438 318.707031 640.101562 333.085938 641.097656 349.125 C 641.351562 353.207031 640 357.140625 637.289062 360.207031 C 636.566406 361.027344 635.761719 361.75 634.902344 362.386719 L 634.902344 452.953125 C 634.902344 462.808594 642.902344 470.804688 652.769531 470.804688 C 662.636719 470.804688 670.636719 462.808594 670.636719 452.953125 L 670.636719 360.898438 L 677.71875 360.898438 L 677.71875 452.953125 C 677.71875 462.808594 685.722656 470.804688 695.582031 470.804688 C 705.453125 470.804688 713.453125 462.808594 713.453125 452.953125 L 713.453125 264.230469 C 717.554688 276.636719 721.519531 300.164062 721.007812 344.726562 C 720.941406 350.449219 725.53125 355.136719 731.257812 355.203125 C 731.296875 355.203125 731.339844 355.203125 731.378906 355.203125 C 737.050781 355.203125 741.679688 350.640625 741.742188 344.960938 C 742.40625 286.824219 735.886719 251.644531 721.808594 237.417969 C 717.003906 232.566406 711.171875 229.921875 704.890625 229.675781 C 704.3125 229.582031 703.726562 229.523438 703.121094 229.523438 L 645.234375 229.523438 C 644.628906 229.523438 644.039062 229.582031 643.464844 229.675781 C 637.179688 229.921875 631.34375 232.566406 626.539062 237.417969 Z M 626.539062 237.417969 "/>
<path style=" stroke:none;fill-rule:nonzero;fill:rgb(0.389099%,38.038635%,39.219666%);fill-opacity:1;" d="M 648.535156 176.648438 C 650.21875 171.988281 654.671875 168.648438 659.914062 168.648438 C 665.160156 168.648438 669.613281 171.988281 671.296875 176.648438 L 677.824219 176.648438 C 679.507812 171.988281 683.960938 168.648438 689.207031 168.648438 C 694.449219 168.648438 698.902344 171.988281 700.585938 176.648438 L 707.484375 176.648438 C 702.683594 162.871094 689.601562 152.964844 674.175781 152.964844 C 658.746094 152.964844 645.664062 162.871094 640.863281 176.648438 Z M 648.535156 176.648438 "/>
<path style=" stroke:none;fill-rule:nonzero;fill:rgb(0.389099%,38.038635%,39.219666%);fill-opacity:1;" d="M 674.171875 223.5 C 693.667969 223.5 709.472656 207.710938 709.472656 188.234375 C 709.472656 185.519531 709.136719 182.890625 708.558594 180.355469 L 701.289062 180.355469 C 701.292969 180.484375 701.308594 180.609375 701.308594 180.746094 C 701.308594 187.425781 695.890625 192.839844 689.203125 192.839844 C 682.519531 192.839844 677.097656 187.425781 677.097656 180.746094 C 677.097656 180.613281 677.113281 180.484375 677.117188 180.355469 L 672 180.355469 C 672.003906 180.484375 672.023438 180.609375 672.023438 180.746094 C 672.023438 187.425781 666.601562 192.839844 659.914062 192.839844 C 653.230469 192.839844 647.808594 187.425781 647.808594 180.746094 C 647.808594 180.613281 647.824219 180.484375 647.828125 180.355469 L 639.789062 180.355469 C 639.207031 182.890625 638.871094 185.519531 638.871094 188.234375 C 638.871094 207.710938 654.675781 223.5 674.171875 223.5 Z M 694.917969 199.652344 C 690.621094 206.609375 682.941406 211.273438 674.171875 211.273438 C 665.402344 211.273438 657.726562 206.609375 653.425781 199.652344 Z M 694.917969 199.652344 "/>
<path style=" stroke:none;fill-rule:nonzero;fill:rgb(0.389099%,38.038635%,39.219666%);fill-opacity:1;" d="M 565.207031 405.074219 C 551.539062 405.074219 540.007812 403.972656 530.917969 402.601562 L 530.917969 447.683594 C 530.917969 450.429688 531.441406 453.042969 532.347656 455.472656 L 532.347656 456.707031 C 532.347656 464.433594 538.617188 470.703125 546.351562 470.703125 C 548.03125 470.703125 549.636719 470.390625 551.125 469.851562 C 551.816406 469.914062 552.511719 469.953125 553.214844 469.953125 C 560.394531 469.953125 566.761719 466.550781 570.839844 461.289062 C 572.742188 466.761719 577.933594 470.699219 584.0625 470.699219 C 591.792969 470.699219 598.066406 464.433594 598.066406 456.707031 L 598.066406 402.808594 C 589.210938 404.082031 578.167969 405.074219 565.207031 405.074219 Z M 565.207031 405.074219 "/>
<path style=" stroke:none;fill-rule:nonzero;fill:rgb(0.389099%,38.038635%,39.219666%);fill-opacity:1;" d="M 635.695312 349.457031 C 632.125 291.882812 614.96875 264.554688 597.546875 251.8125 C 597.535156 251.757812 597.527344 251.722656 597.527344 251.722656 C 597.527344 251.722656 596.484375 250.46875 593.347656 249.011719 C 582.613281 242.523438 572.183594 241.121094 565.207031 241.121094 C 558.234375 241.121094 547.808594 242.523438 537.078125 249.007812 C 533.933594 250.46875 532.886719 251.722656 532.886719 251.722656 C 532.886719 251.722656 532.878906 251.757812 532.863281 251.8125 C 515.445312 264.558594 498.289062 291.882812 494.722656 349.457031 C 494.382812 354.921875 498.539062 359.621094 504.007812 359.957031 C 504.214844 359.972656 504.421875 359.980469 504.628906 359.980469 C 507.699219 359.980469 510.460938 358.542969 512.289062 356.300781 C 510.515625 369.585938 509.382812 382.0625 509.382812 392.21875 C 509.382812 392.21875 530.164062 399.667969 565.207031 399.667969 C 600.25 399.667969 621.03125 392.21875 621.03125 392.21875 C 621.03125 382.070312 619.898438 369.609375 618.132812 356.339844 C 620.085938 358.722656 623.113281 360.171875 626.410156 359.957031 C 631.878906 359.621094 636.035156 354.921875 635.695312 349.457031 Z M 635.695312 349.457031 "/>
<path style=" stroke:none;fill-rule:nonzero;fill:rgb(0.389099%,38.038635%,39.219666%);fill-opacity:1;" d="M 532.707031 190.382812 L 539.570312 190.382812 C 541.253906 185.722656 545.703125 182.386719 550.949219 182.386719 C 556.195312 182.386719 560.648438 185.722656 562.328125 190.382812 L 568.859375 190.382812 C 570.542969 185.722656 574.996094 182.386719 580.238281 182.386719 C 585.484375 182.386719 589.9375 185.722656 591.621094 190.382812 L 597.707031 190.382812 C 593.019531 176.945312 580.257812 167.28125 565.207031 167.28125 C 550.15625 167.28125 537.394531 176.945312 532.707031 190.382812 Z M 532.707031 190.382812 "/>
<path style=" stroke:none;fill-rule:nonzero;fill:rgb(0.389099%,38.038635%,39.219666%);fill-opacity:1;" d="M 565.207031 236.09375 C 584.226562 236.09375 599.648438 220.691406 599.648438 201.6875 C 599.648438 199.074219 599.328125 196.535156 598.777344 194.089844 L 592.328125 194.089844 C 592.328125 194.222656 592.347656 194.347656 592.347656 194.480469 C 592.347656 201.160156 586.925781 206.574219 580.238281 206.574219 C 573.554688 206.574219 568.132812 201.160156 568.132812 194.480469 C 568.132812 194.347656 568.148438 194.222656 568.152344 194.089844 L 563.039062 194.089844 C 563.042969 194.222656 563.058594 194.347656 563.058594 194.480469 C 563.058594 201.160156 557.636719 206.574219 550.953125 206.574219 C 544.265625 206.574219 538.84375 201.160156 538.84375 194.480469 C 538.84375 194.347656 538.859375 194.222656 538.863281 194.089844 L 531.640625 194.089844 C 531.085938 196.539062 530.769531 199.074219 530.769531 201.6875 C 530.765625 220.691406 546.1875 236.09375 565.207031 236.09375 Z M 583.945312 212.277344 C 580.058594 218.5625 573.125 222.773438 565.207031 222.773438 C 557.289062 222.773438 550.351562 218.5625 546.46875 212.277344 Z M 583.945312 212.277344 "/>
<path style=" stroke:none;fill-rule:nonzero;fill:rgb(0.389099%,38.038635%,39.219666%);fill-opacity:1;" d="M 560.128906 194.480469 C 560.128906 195.082031 560.070312 195.679688 559.949219 196.269531 C 559.832031 196.859375 559.660156 197.433594 559.429688 197.988281 C 559.199219 198.546875 558.914062 199.074219 558.582031 199.574219 C 558.246094 200.074219 557.867188 200.539062 557.4375 200.964844 C 557.011719 201.390625 556.550781 201.769531 556.046875 202.105469 C 555.546875 202.4375 555.019531 202.722656 554.460938 202.953125 C 553.90625 203.183594 553.332031 203.355469 552.738281 203.472656 C 552.148438 203.589844 551.550781 203.648438 550.949219 203.648438 C 550.347656 203.648438 549.75 203.589844 549.160156 203.472656 C 548.566406 203.355469 547.992188 203.183594 547.4375 202.953125 C 546.878906 202.722656 546.351562 202.4375 545.851562 202.105469 C 545.347656 201.769531 544.886719 201.390625 544.460938 200.964844 C 544.035156 200.539062 543.652344 200.074219 543.316406 199.574219 C 542.984375 199.074219 542.699219 198.546875 542.46875 197.988281 C 542.238281 197.433594 542.066406 196.859375 541.949219 196.269531 C 541.832031 195.679688 541.769531 195.082031 541.773438 194.480469 C 541.769531 193.878906 541.832031 193.28125 541.949219 192.691406 C 542.066406 192.101562 542.238281 191.527344 542.46875 190.972656 C 542.699219 190.414062 542.984375 189.886719 543.316406 189.386719 C 543.652344 188.886719 544.035156 188.421875 544.460938 187.996094 C 544.886719 187.570312 545.347656 187.191406 545.851562 186.855469 C 546.351562 186.523438 546.878906 186.238281 547.4375 186.007812 C 547.992188 185.777344 548.566406 185.605469 549.160156 185.488281 C 549.75 185.371094 550.347656 185.3125 550.949219 185.3125 C 551.550781 185.3125 552.148438 185.371094 552.738281 185.488281 C 553.332031 185.605469 553.90625 185.777344 554.460938 186.007812 C 555.019531 186.238281 555.546875 186.523438 556.046875 186.855469 C 556.550781 187.191406 557.011719 187.570312 557.4375 187.996094 C 557.867188 188.421875 558.246094 188.886719 558.582031 189.386719 C 558.914062 189.886719 559.199219 190.414062 559.429688 190.972656 C 559.660156 191.527344 559.832031 192.101562 559.949219 192.691406 C 560.070312 193.28125 560.128906 193.878906 560.128906 194.480469 Z M 560.128906 194.480469 "/>
<path style=" stroke:none;fill-rule:nonzero;fill:rgb(0.389099%,38.038635%,39.219666%);fill-opacity:1;" d="M 589.308594 193.003906 C 589.40625 193.597656 589.445312 194.195312 589.421875 194.796875 C 589.402344 195.398438 589.320312 195.992188 589.183594 196.578125 C 589.042969 197.164062 588.847656 197.730469 588.597656 198.28125 C 588.347656 198.828125 588.046875 199.34375 587.695312 199.832031 C 587.34375 200.320312 586.945312 200.773438 586.503906 201.183594 C 586.0625 201.59375 585.585938 201.957031 585.074219 202.273438 C 584.5625 202.589844 584.023438 202.851562 583.457031 203.0625 C 582.894531 203.273438 582.3125 203.425781 581.71875 203.523438 C 581.125 203.621094 580.527344 203.65625 579.921875 203.636719 C 579.320312 203.613281 578.726562 203.535156 578.140625 203.394531 C 577.554688 203.257812 576.988281 203.0625 576.4375 202.8125 C 575.890625 202.5625 575.371094 202.261719 574.882812 201.910156 C 574.394531 201.558594 573.945312 201.160156 573.535156 200.722656 C 573.121094 200.28125 572.757812 199.804688 572.441406 199.292969 C 572.125 198.78125 571.863281 198.242188 571.652344 197.675781 C 571.441406 197.113281 571.285156 196.535156 571.191406 195.941406 C 571.09375 195.34375 571.054688 194.746094 571.078125 194.144531 C 571.097656 193.542969 571.179688 192.949219 571.316406 192.363281 C 571.457031 191.777344 571.648438 191.210938 571.902344 190.664062 C 572.152344 190.117188 572.453125 189.597656 572.804688 189.109375 C 573.15625 188.621094 573.554688 188.171875 573.996094 187.761719 C 574.4375 187.351562 574.914062 186.988281 575.425781 186.671875 C 575.9375 186.355469 576.476562 186.089844 577.042969 185.882812 C 577.605469 185.671875 578.183594 185.515625 578.78125 185.421875 C 579.375 185.324219 579.972656 185.285156 580.574219 185.308594 C 581.179688 185.328125 581.773438 185.410156 582.359375 185.546875 C 582.945312 185.6875 583.511719 185.878906 584.0625 186.128906 C 584.609375 186.378906 585.128906 186.683594 585.617188 187.035156 C 586.105469 187.386719 586.554688 187.78125 586.964844 188.222656 C 587.378906 188.664062 587.742188 189.140625 588.058594 189.652344 C 588.375 190.164062 588.636719 190.703125 588.847656 191.265625 C 589.058594 191.832031 589.214844 192.410156 589.308594 193.003906 Z M 589.308594 193.003906 "/>
<path style=" stroke:none;fill-rule:nonzero;fill:rgb(0.389099%,38.038635%,39.219666%);fill-opacity:1;" d="M 669.09375 180.746094 C 669.09375 181.347656 669.035156 181.941406 668.917969 182.535156 C 668.800781 183.125 668.625 183.699219 668.394531 184.253906 C 668.164062 184.808594 667.882812 185.339844 667.546875 185.839844 C 667.210938 186.339844 666.832031 186.800781 666.40625 187.226562 C 665.980469 187.652344 665.515625 188.035156 665.015625 188.367188 C 664.511719 188.703125 663.984375 188.984375 663.425781 189.214844 C 662.871094 189.445312 662.296875 189.621094 661.707031 189.738281 C 661.113281 189.855469 660.519531 189.914062 659.914062 189.914062 C 659.3125 189.914062 658.714844 189.855469 658.125 189.738281 C 657.535156 189.621094 656.960938 189.445312 656.402344 189.214844 C 655.847656 188.984375 655.316406 188.703125 654.816406 188.367188 C 654.316406 188.035156 653.851562 187.652344 653.425781 187.226562 C 653 186.800781 652.617188 186.339844 652.285156 185.839844 C 651.949219 185.339844 651.667969 184.808594 651.4375 184.253906 C 651.207031 183.699219 651.03125 183.125 650.914062 182.535156 C 650.796875 181.941406 650.738281 181.347656 650.738281 180.746094 C 650.738281 180.140625 650.796875 179.546875 650.914062 178.957031 C 651.03125 178.363281 651.207031 177.792969 651.4375 177.234375 C 651.667969 176.679688 651.949219 176.152344 652.285156 175.648438 C 652.617188 175.148438 653 174.6875 653.425781 174.261719 C 653.851562 173.835938 654.316406 173.453125 654.816406 173.121094 C 655.316406 172.785156 655.847656 172.503906 656.402344 172.273438 C 656.960938 172.042969 657.535156 171.867188 658.125 171.75 C 658.714844 171.632812 659.3125 171.574219 659.914062 171.574219 C 660.519531 171.574219 661.113281 171.632812 661.707031 171.75 C 662.296875 171.867188 662.871094 172.042969 663.425781 172.273438 C 663.984375 172.503906 664.511719 172.785156 665.015625 173.121094 C 665.515625 173.453125 665.980469 173.835938 666.40625 174.261719 C 666.832031 174.6875 667.210938 175.148438 667.546875 175.648438 C 667.882812 176.152344 668.164062 176.679688 668.394531 177.234375 C 668.625 177.792969 668.800781 178.363281 668.917969 178.957031 C 669.035156 179.546875 669.09375 180.140625 669.09375 180.746094 Z M 669.09375 180.746094 "/>
<path style=" stroke:none;fill-rule:nonzero;fill:rgb(0.389099%,38.038635%,39.219666%);fill-opacity:1;" d="M 698.382812 180.746094 C 698.382812 181.347656 698.324219 181.941406 698.207031 182.535156 C 698.089844 183.125 697.914062 183.699219 697.683594 184.253906 C 697.453125 184.808594 697.171875 185.339844 696.835938 185.839844 C 696.503906 186.339844 696.121094 186.800781 695.695312 187.226562 C 695.269531 187.652344 694.804688 188.035156 694.304688 188.367188 C 693.804688 188.703125 693.273438 188.984375 692.71875 189.214844 C 692.160156 189.445312 691.585938 189.621094 690.996094 189.738281 C 690.40625 189.855469 689.808594 189.914062 689.207031 189.914062 C 688.601562 189.914062 688.007812 189.855469 687.414062 189.738281 C 686.824219 189.621094 686.25 189.445312 685.695312 189.214844 C 685.136719 188.984375 684.609375 188.703125 684.105469 188.367188 C 683.605469 188.035156 683.140625 187.652344 682.714844 187.226562 C 682.289062 186.800781 681.910156 186.339844 681.574219 185.839844 C 681.238281 185.339844 680.957031 184.808594 680.726562 184.253906 C 680.496094 183.699219 680.320312 183.125 680.203125 182.535156 C 680.085938 181.941406 680.027344 181.347656 680.027344 180.746094 C 680.027344 180.140625 680.085938 179.546875 680.203125 178.957031 C 680.320312 178.363281 680.496094 177.792969 680.726562 177.234375 C 680.957031 176.679688 681.238281 176.152344 681.574219 175.648438 C 681.910156 175.148438 682.289062 174.6875 682.714844 174.261719 C 683.140625 173.835938 683.605469 173.453125 684.105469 173.121094 C 684.609375 172.785156 685.136719 172.503906 685.695312 172.273438 C 686.25 172.042969 686.824219 171.867188 687.414062 171.75 C 688.007812 171.632812 688.601562 171.574219 689.207031 171.574219 C 689.808594 171.574219 690.40625 171.632812 690.996094 171.75 C 691.585938 171.867188 692.160156 172.042969 692.71875 172.273438 C 693.273438 172.503906 693.804688 172.785156 694.304688 173.121094 C 694.804688 173.453125 695.269531 173.835938 695.695312 174.261719 C 696.121094 174.6875 696.503906 175.148438 696.835938 175.648438 C 697.171875 176.152344 697.453125 176.679688 697.683594 177.234375 C 697.914062 177.792969 698.089844 178.363281 698.207031 178.957031 C 698.324219 179.546875 698.382812 180.140625 698.382812 180.746094 Z M 698.382812 180.746094 "/>
</g>
</svg>
