<?xml version="1.0" encoding="UTF-8"?>
<svg xmlns="http://www.w3.org/2000/svg" xmlns:xlink="http://www.w3.org/1999/xlink" width="375pt" height="374.999991pt" viewBox="0 0 375 374.999991" version="1.2">
<defs>
<clipPath id="clip1">
  <path d="M 312 19.015625 L 347 19.015625 L 347 54 L 312 54 Z M 312 19.015625 "/>
</clipPath>
<clipPath id="clip2">
  <path d="M 338 66 L 355.554688 66 L 355.554688 84 L 338 84 Z M 338 66 "/>
</clipPath>
<clipPath id="clip3">
  <path d="M 19.015625 226 L 54 226 L 54 261 L 19.015625 261 Z M 19.015625 226 "/>
</clipPath>
<clipPath id="clip4">
  <path d="M 70 338 L 89 338 L 89 355.554688 L 70 355.554688 Z M 70 338 "/>
</clipPath>
</defs>
<g id="surface1">
<path style=" stroke:none;fill-rule:nonzero;fill:rgb(94.509888%,73.728943%,9.799194%);fill-opacity:1;" d="M 308.09375 27.644531 C 308.09375 27.929688 308.066406 28.210938 308.011719 28.488281 C 307.957031 28.765625 307.875 29.035156 307.765625 29.296875 C 307.65625 29.558594 307.523438 29.808594 307.367188 30.042969 C 307.210938 30.277344 307.03125 30.496094 306.832031 30.695312 C 306.628906 30.898438 306.414062 31.074219 306.175781 31.234375 C 305.941406 31.390625 305.691406 31.523438 305.429688 31.632812 C 305.167969 31.738281 304.898438 31.820312 304.621094 31.878906 C 304.34375 31.933594 304.0625 31.960938 303.78125 31.960938 C 303.496094 31.960938 303.214844 31.933594 302.9375 31.878906 C 302.660156 31.820312 302.390625 31.738281 302.128906 31.632812 C 301.867188 31.523438 301.617188 31.390625 301.382812 31.234375 C 301.148438 31.074219 300.929688 30.898438 300.730469 30.695312 C 300.527344 30.496094 300.351562 30.277344 300.191406 30.042969 C 300.035156 29.808594 299.902344 29.558594 299.792969 29.296875 C 299.6875 29.035156 299.605469 28.765625 299.546875 28.488281 C 299.492188 28.210938 299.464844 27.929688 299.464844 27.644531 C 299.464844 27.363281 299.492188 27.082031 299.546875 26.804688 C 299.605469 26.527344 299.6875 26.257812 299.792969 25.996094 C 299.902344 25.734375 300.035156 25.484375 300.191406 25.25 C 300.351562 25.011719 300.527344 24.796875 300.730469 24.59375 C 300.929688 24.394531 301.148438 24.214844 301.382812 24.058594 C 301.617188 23.902344 301.867188 23.769531 302.128906 23.660156 C 302.390625 23.550781 302.660156 23.46875 302.9375 23.414062 C 303.214844 23.359375 303.496094 23.332031 303.78125 23.332031 C 304.0625 23.332031 304.34375 23.359375 304.621094 23.414062 C 304.898438 23.46875 305.167969 23.550781 305.429688 23.660156 C 305.691406 23.769531 305.941406 23.902344 306.175781 24.058594 C 306.414062 24.214844 306.628906 24.394531 306.832031 24.59375 C 307.03125 24.796875 307.210938 25.011719 307.367188 25.25 C 307.523438 25.484375 307.65625 25.734375 307.765625 25.996094 C 307.875 26.257812 307.957031 26.527344 308.011719 26.804688 C 308.066406 27.082031 308.09375 27.363281 308.09375 27.644531 Z M 308.09375 27.644531 "/>
<path style=" stroke:none;fill-rule:nonzero;fill:rgb(90.19928%,92.939758%,71.759033%);fill-opacity:1;" d="M 346.925781 187.285156 C 346.925781 189.898438 346.863281 192.507812 346.734375 195.117188 C 346.605469 197.730469 346.414062 200.332031 346.15625 202.933594 C 345.902344 205.535156 345.582031 208.125 345.199219 210.710938 C 344.816406 213.292969 344.367188 215.867188 343.859375 218.429688 C 343.347656 220.992188 342.777344 223.539062 342.140625 226.074219 C 341.507812 228.609375 340.8125 231.125 340.050781 233.628906 C 339.292969 236.128906 338.472656 238.605469 337.59375 241.066406 C 336.714844 243.527344 335.773438 245.964844 334.773438 248.378906 C 333.773438 250.792969 332.714844 253.179688 331.597656 255.539062 C 330.480469 257.902344 329.308594 260.234375 328.074219 262.539062 C 326.84375 264.84375 325.558594 267.117188 324.214844 269.355469 C 322.871094 271.597656 321.472656 273.804688 320.023438 275.976562 C 318.570312 278.148438 317.066406 280.285156 315.511719 282.382812 C 313.953125 284.480469 312.347656 286.542969 310.691406 288.5625 C 309.03125 290.582031 307.324219 292.558594 305.570312 294.492188 C 303.816406 296.429688 302.015625 298.320312 300.167969 300.167969 C 298.320312 302.015625 296.429688 303.816406 294.492188 305.570312 C 292.558594 307.324219 290.582031 309.03125 288.5625 310.691406 C 286.542969 312.347656 284.480469 313.953125 282.382812 315.511719 C 280.285156 317.066406 278.148438 318.570312 275.976562 320.023438 C 273.804688 321.472656 271.597656 322.871094 269.355469 324.214844 C 267.117188 325.558594 264.84375 326.84375 262.539062 328.074219 C 260.234375 329.308594 257.902344 330.480469 255.539062 331.597656 C 253.179688 332.714844 250.792969 333.773438 248.378906 334.773438 C 245.964844 335.773438 243.527344 336.714844 241.066406 337.59375 C 238.605469 338.472656 236.128906 339.292969 233.628906 340.050781 C 231.125 340.8125 228.609375 341.507812 226.074219 342.140625 C 223.539062 342.777344 220.992188 343.347656 218.429688 343.859375 C 215.867188 344.367188 213.292969 344.816406 210.710938 345.199219 C 208.125 345.582031 205.535156 345.902344 202.933594 346.15625 C 200.332031 346.414062 197.730469 346.605469 195.117188 346.734375 C 192.507812 346.863281 189.898438 346.925781 187.285156 346.925781 C 184.671875 346.925781 182.0625 346.863281 179.453125 346.734375 C 176.84375 346.605469 174.238281 346.414062 171.636719 346.15625 C 169.039062 345.902344 166.445312 345.582031 163.863281 345.199219 C 161.277344 344.816406 158.703125 344.367188 156.140625 343.859375 C 153.578125 343.347656 151.03125 342.777344 148.496094 342.140625 C 145.960938 341.507812 143.445312 340.8125 140.945312 340.050781 C 138.445312 339.292969 135.964844 338.472656 133.503906 337.59375 C 131.042969 336.714844 128.609375 335.773438 126.195312 334.773438 C 123.78125 333.773438 121.394531 332.714844 119.03125 331.597656 C 116.667969 330.480469 114.335938 329.308594 112.03125 328.074219 C 109.726562 326.84375 107.457031 325.558594 105.214844 324.214844 C 102.972656 322.871094 100.765625 321.472656 98.59375 320.023438 C 96.421875 318.570312 94.285156 317.066406 92.1875 315.511719 C 90.089844 313.953125 88.03125 312.347656 86.011719 310.691406 C 83.992188 309.03125 82.015625 307.324219 80.078125 305.570312 C 78.140625 303.816406 76.25 302.015625 74.402344 300.167969 C 72.554688 298.320312 70.753906 296.429688 69 294.492188 C 67.246094 292.558594 65.539062 290.582031 63.882812 288.5625 C 62.226562 286.542969 60.617188 284.480469 59.0625 282.382812 C 57.503906 280.285156 56 278.148438 54.550781 275.976562 C 53.097656 273.804688 51.699219 271.597656 50.359375 269.355469 C 49.015625 267.117188 47.726562 264.84375 46.496094 262.539062 C 45.265625 260.234375 44.089844 257.902344 42.972656 255.539062 C 41.855469 253.179688 40.796875 250.792969 39.796875 248.378906 C 38.796875 245.964844 37.859375 243.527344 36.976562 241.066406 C 36.097656 238.605469 35.277344 236.128906 34.519531 233.628906 C 33.761719 231.125 33.066406 228.609375 32.429688 226.074219 C 31.796875 223.539062 31.222656 220.992188 30.714844 218.429688 C 30.203125 215.867188 29.757812 213.292969 29.375 210.710938 C 28.988281 208.125 28.671875 205.535156 28.414062 202.933594 C 28.15625 200.332031 27.964844 197.730469 27.835938 195.117188 C 27.710938 192.507812 27.644531 189.898438 27.644531 187.285156 C 27.644531 184.671875 27.710938 182.0625 27.835938 179.453125 C 27.964844 176.84375 28.15625 174.238281 28.414062 171.636719 C 28.671875 169.039062 28.988281 166.445312 29.375 163.863281 C 29.757812 161.277344 30.203125 158.703125 30.714844 156.140625 C 31.222656 153.578125 31.796875 151.03125 32.429688 148.496094 C 33.066406 145.960938 33.761719 143.445312 34.519531 140.945312 C 35.277344 138.445312 36.097656 135.964844 36.976562 133.503906 C 37.859375 131.042969 38.796875 128.609375 39.796875 126.195312 C 40.796875 123.78125 41.855469 121.394531 42.972656 119.03125 C 44.089844 116.667969 45.265625 114.335938 46.496094 112.03125 C 47.726562 109.726562 49.015625 107.457031 50.359375 105.214844 C 51.699219 102.972656 53.097656 100.765625 54.550781 98.59375 C 56 96.421875 57.503906 94.285156 59.0625 92.1875 C 60.617188 90.089844 62.226562 88.03125 63.882812 86.011719 C 65.539062 83.992188 67.246094 82.015625 69 80.078125 C 70.753906 78.140625 72.554688 76.25 74.402344 74.402344 C 76.25 72.554688 78.140625 70.753906 80.078125 69 C 82.015625 67.246094 83.992188 65.539062 86.011719 63.882812 C 88.03125 62.226562 90.089844 60.617188 92.1875 59.0625 C 94.285156 57.503906 96.421875 56 98.59375 54.550781 C 100.765625 53.097656 102.972656 51.699219 105.214844 50.359375 C 107.457031 49.015625 109.726562 47.726562 112.03125 46.496094 C 114.335938 45.265625 116.667969 44.089844 119.03125 42.972656 C 121.394531 41.855469 123.78125 40.796875 126.195312 39.796875 C 128.609375 38.796875 131.042969 37.859375 133.503906 36.976562 C 135.964844 36.097656 138.445312 35.277344 140.945312 34.519531 C 143.445312 33.761719 145.960938 33.066406 148.496094 32.429688 C 151.03125 31.796875 153.578125 31.222656 156.140625 30.714844 C 158.703125 30.203125 161.277344 29.757812 163.863281 29.375 C 166.445312 28.988281 169.039062 28.671875 171.636719 28.414062 C 174.238281 28.15625 176.84375 27.964844 179.453125 27.835938 C 182.0625 27.710938 184.671875 27.644531 187.285156 27.644531 C 189.898438 27.644531 192.507812 27.710938 195.117188 27.835938 C 197.730469 27.964844 200.332031 28.15625 202.933594 28.414062 C 205.535156 28.671875 208.125 28.988281 210.710938 29.375 C 213.292969 29.757812 215.867188 30.203125 218.429688 30.714844 C 220.992188 31.222656 223.539062 31.796875 226.074219 32.429688 C 228.609375 33.066406 231.125 33.761719 233.628906 34.519531 C 236.128906 35.277344 238.605469 36.097656 241.066406 36.976562 C 243.527344 37.859375 245.964844 38.796875 248.378906 39.796875 C 250.792969 40.796875 253.179688 41.855469 255.539062 42.972656 C 257.902344 44.089844 260.234375 45.265625 262.539062 46.496094 C 264.84375 47.726562 267.117188 49.015625 269.355469 50.359375 C 271.597656 51.699219 273.804688 53.097656 275.976562 54.550781 C 278.148438 56 280.285156 57.503906 282.382812 59.0625 C 284.480469 60.617188 286.542969 62.226562 288.5625 63.882812 C 290.582031 65.539062 292.558594 67.246094 294.492188 69 C 296.429688 70.753906 298.320312 72.554688 300.167969 74.402344 C 302.015625 76.25 303.816406 78.140625 305.570312 80.078125 C 307.324219 82.015625 309.03125 83.992188 310.691406 86.011719 C 312.347656 88.03125 313.953125 90.089844 315.511719 92.1875 C 317.066406 94.285156 318.570312 96.421875 320.023438 98.59375 C 321.472656 100.765625 322.871094 102.972656 324.214844 105.214844 C 325.558594 107.457031 326.84375 109.726562 328.074219 112.03125 C 329.308594 114.335938 330.480469 116.667969 331.597656 119.03125 C 332.714844 121.394531 333.773438 123.78125 334.773438 126.195312 C 335.773438 128.609375 336.714844 131.042969 337.59375 133.503906 C 338.472656 135.964844 339.292969 138.445312 340.050781 140.945312 C 340.8125 143.445312 341.507812 145.960938 342.140625 148.496094 C 342.777344 151.03125 343.347656 153.578125 343.859375 156.140625 C 344.367188 158.703125 344.816406 161.277344 345.199219 163.863281 C 345.582031 166.445312 345.902344 169.039062 346.15625 171.636719 C 346.414062 174.238281 346.605469 176.84375 346.734375 179.453125 C 346.863281 182.0625 346.925781 184.671875 346.925781 187.285156 Z M 346.925781 187.285156 "/>
<g clip-path="url(#clip1)" clip-rule="nonzero">
<path style=" stroke:none;fill-rule:nonzero;fill:rgb(94.509888%,73.728943%,9.799194%);fill-opacity:1;" d="M 346.925781 36.273438 C 346.925781 36.839844 346.898438 37.402344 346.84375 37.964844 C 346.789062 38.527344 346.703125 39.085938 346.59375 39.640625 C 346.484375 40.195312 346.347656 40.742188 346.183594 41.285156 C 346.019531 41.824219 345.828125 42.355469 345.613281 42.878906 C 345.394531 43.402344 345.15625 43.910156 344.886719 44.410156 C 344.621094 44.910156 344.332031 45.394531 344.019531 45.863281 C 343.703125 46.332031 343.367188 46.785156 343.007812 47.222656 C 342.648438 47.660156 342.269531 48.078125 341.871094 48.476562 C 341.472656 48.878906 341.054688 49.257812 340.617188 49.617188 C 340.179688 49.972656 339.726562 50.3125 339.257812 50.625 C 338.785156 50.9375 338.300781 51.230469 337.804688 51.496094 C 337.304688 51.761719 336.792969 52.003906 336.273438 52.21875 C 335.75 52.4375 335.21875 52.625 334.675781 52.789062 C 334.136719 52.953125 333.589844 53.089844 333.035156 53.203125 C 332.480469 53.3125 331.921875 53.394531 331.359375 53.449219 C 330.796875 53.503906 330.234375 53.53125 329.667969 53.53125 C 329.101562 53.53125 328.539062 53.503906 327.976562 53.449219 C 327.414062 53.394531 326.855469 53.3125 326.300781 53.203125 C 325.746094 53.089844 325.199219 52.953125 324.65625 52.789062 C 324.117188 52.625 323.585938 52.4375 323.0625 52.21875 C 322.542969 52.003906 322.03125 51.761719 321.53125 51.496094 C 321.035156 51.230469 320.550781 50.9375 320.078125 50.625 C 319.609375 50.3125 319.15625 49.972656 318.71875 49.617188 C 318.28125 49.257812 317.863281 48.878906 317.464844 48.476562 C 317.066406 48.078125 316.683594 47.660156 316.328125 47.222656 C 315.96875 46.785156 315.632812 46.332031 315.316406 45.863281 C 315.003906 45.394531 314.714844 44.910156 314.445312 44.410156 C 314.179688 43.910156 313.9375 43.402344 313.722656 42.878906 C 313.507812 42.355469 313.316406 41.824219 313.152344 41.285156 C 312.988281 40.742188 312.851562 40.195312 312.742188 39.640625 C 312.628906 39.085938 312.546875 38.527344 312.492188 37.964844 C 312.4375 37.402344 312.410156 36.839844 312.410156 36.273438 C 312.410156 35.710938 312.4375 35.144531 312.492188 34.582031 C 312.546875 34.019531 312.628906 33.460938 312.742188 32.90625 C 312.851562 32.351562 312.988281 31.804688 313.152344 31.265625 C 313.316406 30.722656 313.507812 30.191406 313.722656 29.671875 C 313.9375 29.148438 314.179688 28.636719 314.445312 28.140625 C 314.714844 27.640625 315.003906 27.15625 315.316406 26.6875 C 315.632812 26.214844 315.96875 25.761719 316.328125 25.324219 C 316.683594 24.890625 317.066406 24.472656 317.464844 24.070312 C 317.863281 23.671875 318.28125 23.292969 318.71875 22.933594 C 319.15625 22.574219 319.609375 22.238281 320.078125 21.925781 C 320.550781 21.609375 321.035156 21.320312 321.53125 21.054688 C 322.03125 20.789062 322.542969 20.546875 323.0625 20.328125 C 323.585938 20.113281 324.117188 19.921875 324.65625 19.757812 C 325.199219 19.59375 325.746094 19.457031 326.300781 19.347656 C 326.855469 19.238281 327.414062 19.15625 327.976562 19.097656 C 328.539062 19.042969 329.101562 19.015625 329.667969 19.015625 C 330.234375 19.015625 330.796875 19.042969 331.359375 19.097656 C 331.921875 19.15625 332.480469 19.238281 333.035156 19.347656 C 333.589844 19.457031 334.136719 19.59375 334.675781 19.757812 C 335.21875 19.921875 335.75 20.113281 336.273438 20.328125 C 336.792969 20.546875 337.304688 20.789062 337.804688 21.054688 C 338.300781 21.320312 338.785156 21.609375 339.257812 21.925781 C 339.726562 22.238281 340.179688 22.574219 340.617188 22.933594 C 341.054688 23.292969 341.472656 23.671875 341.871094 24.070312 C 342.269531 24.472656 342.648438 24.890625 343.007812 25.324219 C 343.367188 25.761719 343.703125 26.214844 344.019531 26.6875 C 344.332031 27.15625 344.621094 27.640625 344.886719 28.140625 C 345.15625 28.636719 345.394531 29.148438 345.613281 29.671875 C 345.828125 30.191406 346.019531 30.722656 346.183594 31.265625 C 346.347656 31.804688 346.484375 32.351562 346.59375 32.90625 C 346.703125 33.460938 346.789062 34.019531 346.84375 34.582031 C 346.898438 35.144531 346.925781 35.710938 346.925781 36.273438 Z M 346.925781 36.273438 "/>
</g>
<g clip-path="url(#clip2)" clip-rule="nonzero">
<path style=" stroke:none;fill-rule:nonzero;fill:rgb(62.348938%,50.19989%,39.99939%);fill-opacity:1;" d="M 355.554688 75.105469 C 355.554688 75.671875 355.5 76.234375 355.390625 76.789062 C 355.277344 77.34375 355.117188 77.886719 354.898438 78.410156 C 354.683594 78.933594 354.414062 79.429688 354.101562 79.898438 C 353.785156 80.371094 353.429688 80.808594 353.027344 81.207031 C 352.628906 81.609375 352.191406 81.964844 351.71875 82.28125 C 351.25 82.597656 350.75 82.863281 350.226562 83.078125 C 349.703125 83.296875 349.164062 83.460938 348.609375 83.570312 C 348.054688 83.679688 347.492188 83.734375 346.925781 83.734375 C 346.359375 83.734375 345.796875 83.679688 345.242188 83.570312 C 344.6875 83.460938 344.148438 83.296875 343.625 83.078125 C 343.101562 82.863281 342.601562 82.597656 342.132812 82.28125 C 341.660156 81.964844 341.226562 81.609375 340.824219 81.207031 C 340.425781 80.808594 340.066406 80.371094 339.75 79.898438 C 339.4375 79.429688 339.171875 78.933594 338.953125 78.410156 C 338.738281 77.886719 338.574219 77.34375 338.460938 76.789062 C 338.351562 76.234375 338.296875 75.671875 338.296875 75.105469 C 338.296875 74.539062 338.351562 73.976562 338.460938 73.421875 C 338.574219 72.867188 338.738281 72.328125 338.953125 71.804688 C 339.171875 71.28125 339.4375 70.78125 339.75 70.3125 C 340.066406 69.839844 340.425781 69.40625 340.824219 69.003906 C 341.226562 68.605469 341.660156 68.246094 342.132812 67.929688 C 342.601562 67.617188 343.101562 67.351562 343.625 67.132812 C 344.148438 66.917969 344.6875 66.753906 345.242188 66.644531 C 345.796875 66.53125 346.359375 66.476562 346.925781 66.476562 C 347.492188 66.476562 348.054688 66.53125 348.609375 66.644531 C 349.164062 66.753906 349.703125 66.917969 350.226562 67.132812 C 350.75 67.351562 351.25 67.617188 351.71875 67.929688 C 352.191406 68.246094 352.628906 68.605469 353.027344 69.003906 C 353.429688 69.40625 353.785156 69.839844 354.101562 70.3125 C 354.414062 70.78125 354.683594 71.28125 354.898438 71.804688 C 355.117188 72.328125 355.277344 72.867188 355.390625 73.421875 C 355.5 73.976562 355.554688 74.539062 355.554688 75.105469 Z M 355.554688 75.105469 "/>
</g>
<path style=" stroke:none;fill-rule:nonzero;fill:rgb(98.429871%,80.389404%,34.899902%);fill-opacity:1;" d="M 329.667969 299.464844 C 329.667969 300.03125 329.613281 300.59375 329.503906 301.148438 C 329.390625 301.703125 329.226562 302.246094 329.011719 302.769531 C 328.792969 303.292969 328.527344 303.789062 328.214844 304.257812 C 327.898438 304.730469 327.542969 305.167969 327.140625 305.566406 C 326.738281 305.96875 326.304688 306.324219 325.832031 306.640625 C 325.363281 306.957031 324.863281 307.222656 324.339844 307.4375 C 323.816406 307.65625 323.277344 307.820312 322.722656 307.929688 C 322.167969 308.039062 321.605469 308.09375 321.039062 308.09375 C 320.472656 308.09375 319.910156 308.039062 319.355469 307.929688 C 318.800781 307.820312 318.261719 307.65625 317.738281 307.4375 C 317.214844 307.222656 316.714844 306.957031 316.246094 306.640625 C 315.773438 306.324219 315.335938 305.96875 314.9375 305.566406 C 314.535156 305.167969 314.179688 304.730469 313.863281 304.257812 C 313.550781 303.789062 313.28125 303.292969 313.066406 302.769531 C 312.847656 302.246094 312.6875 301.703125 312.574219 301.148438 C 312.464844 300.59375 312.410156 300.03125 312.410156 299.464844 C 312.410156 298.898438 312.464844 298.335938 312.574219 297.78125 C 312.6875 297.226562 312.847656 296.6875 313.066406 296.164062 C 313.28125 295.640625 313.550781 295.140625 313.863281 294.671875 C 314.179688 294.199219 314.535156 293.765625 314.9375 293.363281 C 315.335938 292.964844 315.773438 292.605469 316.246094 292.289062 C 316.714844 291.976562 317.214844 291.710938 317.738281 291.492188 C 318.261719 291.277344 318.800781 291.113281 319.355469 291.003906 C 319.910156 290.890625 320.472656 290.835938 321.039062 290.835938 C 321.605469 290.835938 322.167969 290.890625 322.722656 291.003906 C 323.277344 291.113281 323.816406 291.277344 324.339844 291.492188 C 324.863281 291.710938 325.363281 291.976562 325.832031 292.289062 C 326.304688 292.605469 326.738281 292.964844 327.140625 293.363281 C 327.542969 293.765625 327.898438 294.199219 328.214844 294.671875 C 328.527344 295.140625 328.792969 295.640625 329.011719 296.164062 C 329.226562 296.6875 329.390625 297.226562 329.503906 297.78125 C 329.613281 298.335938 329.667969 298.898438 329.667969 299.464844 Z M 329.667969 299.464844 "/>
<g clip-path="url(#clip3)" clip-rule="nonzero">
<path style=" stroke:none;fill-rule:nonzero;fill:rgb(98.429871%,80.389404%,34.899902%);fill-opacity:1;" d="M 53.53125 243.375 C 53.53125 243.941406 53.503906 244.503906 53.449219 245.066406 C 53.394531 245.628906 53.3125 246.1875 53.203125 246.742188 C 53.089844 247.296875 52.953125 247.84375 52.789062 248.386719 C 52.625 248.925781 52.4375 249.457031 52.21875 249.980469 C 52.003906 250.503906 51.761719 251.011719 51.496094 251.511719 C 51.230469 252.011719 50.9375 252.492188 50.625 252.964844 C 50.3125 253.433594 49.972656 253.886719 49.617188 254.324219 C 49.257812 254.761719 48.878906 255.179688 48.476562 255.578125 C 48.078125 255.980469 47.660156 256.359375 47.222656 256.714844 C 46.785156 257.074219 46.332031 257.410156 45.863281 257.726562 C 45.394531 258.039062 44.910156 258.328125 44.410156 258.597656 C 43.910156 258.863281 43.402344 259.105469 42.878906 259.320312 C 42.355469 259.535156 41.824219 259.726562 41.285156 259.890625 C 40.742188 260.054688 40.195312 260.191406 39.640625 260.300781 C 39.085938 260.414062 38.527344 260.496094 37.964844 260.550781 C 37.402344 260.605469 36.839844 260.632812 36.273438 260.632812 C 35.710938 260.632812 35.144531 260.605469 34.582031 260.550781 C 34.019531 260.496094 33.460938 260.414062 32.90625 260.300781 C 32.351562 260.191406 31.804688 260.054688 31.265625 259.890625 C 30.722656 259.726562 30.191406 259.535156 29.671875 259.320312 C 29.148438 259.105469 28.636719 258.863281 28.140625 258.597656 C 27.640625 258.328125 27.15625 258.039062 26.6875 257.726562 C 26.214844 257.410156 25.761719 257.074219 25.324219 256.714844 C 24.890625 256.359375 24.472656 255.980469 24.070312 255.578125 C 23.671875 255.179688 23.292969 254.761719 22.933594 254.324219 C 22.574219 253.886719 22.238281 253.433594 21.925781 252.964844 C 21.609375 252.492188 21.320312 252.011719 21.054688 251.511719 C 20.789062 251.011719 20.546875 250.503906 20.328125 249.980469 C 20.113281 249.457031 19.921875 248.925781 19.757812 248.386719 C 19.59375 247.84375 19.457031 247.296875 19.347656 246.742188 C 19.238281 246.1875 19.15625 245.628906 19.097656 245.066406 C 19.042969 244.503906 19.015625 243.941406 19.015625 243.375 C 19.015625 242.808594 19.042969 242.246094 19.097656 241.683594 C 19.15625 241.121094 19.238281 240.5625 19.347656 240.007812 C 19.457031 239.453125 19.59375 238.90625 19.757812 238.367188 C 19.921875 237.824219 20.113281 237.292969 20.328125 236.769531 C 20.546875 236.25 20.789062 235.738281 21.054688 235.238281 C 21.320312 234.742188 21.609375 234.257812 21.925781 233.789062 C 22.238281 233.316406 22.574219 232.863281 22.933594 232.425781 C 23.292969 231.988281 23.671875 231.570312 24.070312 231.171875 C 24.472656 230.773438 24.890625 230.394531 25.324219 230.035156 C 25.761719 229.675781 26.214844 229.339844 26.6875 229.027344 C 27.15625 228.710938 27.640625 228.421875 28.140625 228.15625 C 28.636719 227.890625 29.148438 227.648438 29.671875 227.429688 C 30.191406 227.214844 30.722656 227.023438 31.265625 226.859375 C 31.804688 226.695312 32.351562 226.558594 32.90625 226.449219 C 33.460938 226.339844 34.019531 226.257812 34.582031 226.199219 C 35.144531 226.144531 35.710938 226.117188 36.273438 226.117188 C 36.839844 226.117188 37.402344 226.144531 37.964844 226.199219 C 38.527344 226.257812 39.085938 226.339844 39.640625 226.449219 C 40.195312 226.558594 40.742188 226.695312 41.285156 226.859375 C 41.824219 227.023438 42.355469 227.214844 42.878906 227.429688 C 43.402344 227.648438 43.910156 227.890625 44.410156 228.15625 C 44.910156 228.421875 45.394531 228.710938 45.863281 229.027344 C 46.332031 229.339844 46.785156 229.675781 47.222656 230.035156 C 47.660156 230.394531 48.078125 230.773438 48.476562 231.171875 C 48.878906 231.570312 49.257812 231.988281 49.617188 232.425781 C 49.972656 232.863281 50.3125 233.316406 50.625 233.789062 C 50.9375 234.257812 51.230469 234.742188 51.496094 235.238281 C 51.761719 235.738281 52.003906 236.25 52.21875 236.769531 C 52.4375 237.292969 52.625 237.824219 52.789062 238.367188 C 52.953125 238.90625 53.089844 239.453125 53.203125 240.007812 C 53.3125 240.5625 53.394531 241.121094 53.449219 241.683594 C 53.503906 242.246094 53.53125 242.808594 53.53125 243.375 Z M 53.53125 243.375 "/>
</g>
<g clip-path="url(#clip4)" clip-rule="nonzero">
<path style=" stroke:none;fill-rule:nonzero;fill:rgb(62.348938%,50.19989%,39.99939%);fill-opacity:1;" d="M 88.050781 346.925781 C 88.050781 347.492188 87.996094 348.054688 87.882812 348.609375 C 87.773438 349.164062 87.609375 349.703125 87.394531 350.226562 C 87.175781 350.75 86.910156 351.25 86.597656 351.71875 C 86.28125 352.191406 85.921875 352.628906 85.523438 353.027344 C 85.121094 353.429688 84.6875 353.785156 84.214844 354.101562 C 83.742188 354.414062 83.246094 354.683594 82.722656 354.898438 C 82.199219 355.117188 81.660156 355.277344 81.105469 355.390625 C 80.546875 355.5 79.988281 355.554688 79.421875 355.554688 C 78.855469 355.554688 78.292969 355.5 77.738281 355.390625 C 77.179688 355.277344 76.640625 355.117188 76.117188 354.898438 C 75.59375 354.683594 75.097656 354.414062 74.625 354.101562 C 74.15625 353.785156 73.71875 353.429688 73.320312 353.027344 C 72.917969 352.628906 72.5625 352.191406 72.246094 351.71875 C 71.929688 351.25 71.664062 350.75 71.449219 350.226562 C 71.230469 349.703125 71.066406 349.164062 70.957031 348.609375 C 70.847656 348.054688 70.792969 347.492188 70.792969 346.925781 C 70.792969 346.359375 70.847656 345.796875 70.957031 345.242188 C 71.066406 344.6875 71.230469 344.148438 71.449219 343.625 C 71.664062 343.101562 71.929688 342.601562 72.246094 342.132812 C 72.5625 341.660156 72.917969 341.226562 73.320312 340.824219 C 73.71875 340.425781 74.15625 340.066406 74.625 339.75 C 75.097656 339.4375 75.59375 339.171875 76.117188 338.953125 C 76.640625 338.738281 77.179688 338.574219 77.738281 338.460938 C 78.292969 338.351562 78.855469 338.296875 79.421875 338.296875 C 79.988281 338.296875 80.546875 338.351562 81.105469 338.460938 C 81.660156 338.574219 82.199219 338.738281 82.722656 338.953125 C 83.246094 339.171875 83.742188 339.4375 84.214844 339.75 C 84.6875 340.066406 85.121094 340.425781 85.523438 340.824219 C 85.921875 341.226562 86.28125 341.660156 86.597656 342.132812 C 86.910156 342.601562 87.175781 343.101562 87.394531 343.625 C 87.609375 344.148438 87.773438 344.6875 87.882812 345.242188 C 87.996094 345.796875 88.050781 346.359375 88.050781 346.925781 Z M 88.050781 346.925781 "/>
</g>
<path style=" stroke:none;fill-rule:nonzero;fill:rgb(100%,100%,100%);fill-opacity:1;" d="M 62.164062 193.757812 C 62.164062 194.464844 62.09375 195.167969 61.957031 195.863281 C 61.816406 196.558594 61.613281 197.230469 61.339844 197.886719 C 61.070312 198.539062 60.738281 199.160156 60.34375 199.75 C 59.949219 200.339844 59.503906 200.882812 59.003906 201.386719 C 58.503906 201.886719 57.957031 202.332031 57.367188 202.726562 C 56.78125 203.121094 56.15625 203.453125 55.503906 203.722656 C 54.847656 203.996094 54.175781 204.199219 53.480469 204.335938 C 52.785156 204.476562 52.085938 204.542969 51.375 204.542969 C 50.667969 204.542969 49.964844 204.476562 49.273438 204.335938 C 48.578125 204.199219 47.902344 203.996094 47.246094 203.722656 C 46.59375 203.453125 45.972656 203.121094 45.382812 202.726562 C 44.792969 202.332031 44.25 201.886719 43.75 201.386719 C 43.246094 200.882812 42.800781 200.339844 42.40625 199.75 C 42.015625 199.160156 41.679688 198.539062 41.410156 197.886719 C 41.140625 197.230469 40.933594 196.558594 40.796875 195.863281 C 40.660156 195.167969 40.589844 194.464844 40.589844 193.757812 C 40.589844 193.050781 40.660156 192.347656 40.796875 191.652344 C 40.933594 190.957031 41.140625 190.285156 41.410156 189.628906 C 41.679688 188.976562 42.015625 188.355469 42.40625 187.765625 C 42.800781 187.175781 43.246094 186.632812 43.75 186.128906 C 44.25 185.628906 44.792969 185.183594 45.382812 184.789062 C 45.972656 184.394531 46.59375 184.0625 47.246094 183.792969 C 47.902344 183.519531 48.578125 183.316406 49.273438 183.179688 C 49.964844 183.039062 50.667969 182.972656 51.375 182.972656 C 52.085938 182.972656 52.785156 183.039062 53.480469 183.179688 C 54.175781 183.316406 54.847656 183.519531 55.503906 183.792969 C 56.15625 184.0625 56.78125 184.394531 57.367188 184.789062 C 57.957031 185.183594 58.503906 185.628906 59.003906 186.128906 C 59.503906 186.632812 59.949219 187.175781 60.34375 187.765625 C 60.738281 188.355469 61.070312 188.976562 61.339844 189.628906 C 61.613281 190.285156 61.816406 190.957031 61.957031 191.652344 C 62.09375 192.347656 62.164062 193.050781 62.164062 193.757812 Z M 62.164062 193.757812 "/>
<path style=" stroke:none;fill-rule:nonzero;fill:rgb(100%,100%,100%);fill-opacity:1;" d="M 321.039062 116.09375 C 321.039062 116.519531 320.996094 116.941406 320.914062 117.359375 C 320.832031 117.773438 320.707031 118.179688 320.546875 118.570312 C 320.382812 118.964844 320.183594 119.335938 319.949219 119.691406 C 319.710938 120.042969 319.445312 120.371094 319.144531 120.671875 C 318.84375 120.972656 318.515625 121.238281 318.164062 121.476562 C 317.808594 121.710938 317.4375 121.910156 317.042969 122.074219 C 316.652344 122.238281 316.246094 122.359375 315.828125 122.441406 C 315.414062 122.523438 314.992188 122.566406 314.566406 122.566406 C 314.140625 122.566406 313.722656 122.523438 313.304688 122.441406 C 312.886719 122.359375 312.484375 122.238281 312.089844 122.074219 C 311.699219 121.910156 311.324219 121.710938 310.972656 121.476562 C 310.617188 121.238281 310.289062 120.972656 309.992188 120.671875 C 309.691406 120.371094 309.421875 120.042969 309.183594 119.691406 C 308.949219 119.335938 308.75 118.964844 308.585938 118.570312 C 308.425781 118.179688 308.300781 117.773438 308.21875 117.359375 C 308.136719 116.941406 308.09375 116.519531 308.09375 116.09375 C 308.09375 115.671875 308.136719 115.25 308.21875 114.832031 C 308.300781 114.414062 308.425781 114.011719 308.585938 113.617188 C 308.75 113.226562 308.949219 112.851562 309.183594 112.5 C 309.421875 112.144531 309.691406 111.820312 309.992188 111.519531 C 310.289062 111.21875 310.617188 110.949219 310.972656 110.714844 C 311.324219 110.476562 311.699219 110.277344 312.089844 110.117188 C 312.484375 109.953125 312.886719 109.832031 313.304688 109.746094 C 313.722656 109.664062 314.140625 109.621094 314.566406 109.621094 C 314.992188 109.621094 315.414062 109.664062 315.828125 109.746094 C 316.246094 109.832031 316.652344 109.953125 317.042969 110.117188 C 317.4375 110.277344 317.808594 110.476562 318.164062 110.714844 C 318.515625 110.949219 318.84375 111.21875 319.144531 111.519531 C 319.445312 111.820312 319.710938 112.144531 319.949219 112.5 C 320.183594 112.851562 320.382812 113.226562 320.546875 113.617188 C 320.707031 114.011719 320.832031 114.414062 320.914062 114.832031 C 320.996094 115.25 321.039062 115.671875 321.039062 116.09375 Z M 321.039062 116.09375 "/>
<path style=" stroke:none;fill-rule:nonzero;fill:rgb(27.839661%,16.859436%,16.079712%);fill-opacity:1;" d="M 120.410156 174.34375 L 94.523438 174.34375 C 93.332031 174.34375 92.363281 173.375 92.363281 172.183594 C 92.363281 170.992188 93.332031 170.027344 94.523438 170.027344 L 120.410156 170.027344 C 121.601562 170.027344 122.566406 170.992188 122.566406 172.183594 C 122.566406 173.375 121.601562 174.34375 120.410156 174.34375 Z M 120.410156 174.34375 "/>
<path style=" stroke:none;fill-rule:nonzero;fill:rgb(27.839661%,16.859436%,16.079712%);fill-opacity:1;" d="M 159.242188 144.140625 L 133.351562 144.140625 C 132.164062 144.140625 131.195312 143.171875 131.195312 141.984375 C 131.195312 140.792969 132.164062 139.824219 133.351562 139.824219 L 159.242188 139.824219 C 160.433594 139.824219 161.398438 140.792969 161.398438 141.984375 C 161.398438 143.171875 160.433594 144.140625 159.242188 144.140625 Z M 159.242188 144.140625 "/>
<path style=" stroke:none;fill-rule:nonzero;fill:rgb(27.839661%,16.859436%,16.079712%);fill-opacity:1;" d="M 90.207031 144.140625 L 64.320312 144.140625 C 63.128906 144.140625 62.164062 143.171875 62.164062 141.984375 C 62.164062 140.792969 63.128906 139.824219 64.320312 139.824219 L 90.207031 139.824219 C 91.398438 139.824219 92.363281 140.792969 92.363281 141.984375 C 92.363281 143.171875 91.398438 144.140625 90.207031 144.140625 Z M 90.207031 144.140625 "/>
<path style=" stroke:none;fill-rule:nonzero;fill:rgb(27.839661%,16.859436%,16.079712%);fill-opacity:1;" d="M 120.410156 144.140625 L 103.152344 144.140625 C 101.960938 144.140625 100.992188 143.171875 100.992188 141.984375 C 100.992188 140.792969 101.960938 139.824219 103.152344 139.824219 L 120.410156 139.824219 C 121.601562 139.824219 122.566406 140.792969 122.566406 141.984375 C 122.566406 143.171875 121.601562 144.140625 120.410156 144.140625 Z M 120.410156 144.140625 "/>
<path style=" stroke:none;fill-rule:nonzero;fill:rgb(27.839661%,16.859436%,16.079712%);fill-opacity:1;" d="M 81.578125 174.34375 L 64.320312 174.34375 C 63.128906 174.34375 62.164062 173.375 62.164062 172.183594 C 62.164062 170.992188 63.128906 170.027344 64.320312 170.027344 L 81.578125 170.027344 C 82.769531 170.027344 83.734375 170.992188 83.734375 172.183594 C 83.734375 173.375 82.769531 174.34375 81.578125 174.34375 Z M 81.578125 174.34375 "/>
<path style=" stroke:none;fill-rule:nonzero;fill:rgb(27.839661%,16.859436%,16.079712%);fill-opacity:1;" d="M 129.039062 204.542969 L 111.78125 204.542969 C 110.589844 204.542969 109.621094 203.578125 109.621094 202.386719 C 109.621094 201.195312 110.589844 200.230469 111.78125 200.230469 L 129.039062 200.230469 C 130.230469 200.230469 131.195312 201.195312 131.195312 202.386719 C 131.195312 203.578125 130.230469 204.542969 129.039062 204.542969 Z M 129.039062 204.542969 "/>
<path style=" stroke:none;fill-rule:nonzero;fill:rgb(27.839661%,16.859436%,16.079712%);fill-opacity:1;" d="M 98.835938 204.542969 L 64.320312 204.542969 C 63.128906 204.542969 62.164062 203.578125 62.164062 202.386719 C 62.164062 201.195312 63.128906 200.230469 64.320312 200.230469 L 98.835938 200.230469 C 100.027344 200.230469 100.992188 201.195312 100.992188 202.386719 C 100.992188 203.578125 100.027344 204.542969 98.835938 204.542969 Z M 98.835938 204.542969 "/>
<path style=" stroke:none;fill-rule:nonzero;fill:rgb(98.039246%,74.899292%,50.979614%);fill-opacity:1;" d="M 141.359375 303.78125 C 137.722656 303.78125 134.691406 302.566406 132.265625 299.535156 C 128.019531 294.683594 128.019531 286.800781 133.476562 282.558594 L 188.054688 234.046875 C 192.902344 229.800781 200.785156 229.800781 205.03125 235.261719 C 209.277344 240.109375 209.277344 247.992188 203.820312 252.238281 L 149.242188 300.746094 C 146.820312 302.566406 144.394531 303.78125 141.359375 303.78125 Z M 141.359375 303.78125 "/>
<path style=" stroke:none;fill-rule:nonzero;fill:rgb(27.839661%,16.859436%,16.079712%);fill-opacity:1;" d="M 141.359375 306.800781 C 136.613281 306.800781 132.761719 304.992188 129.910156 301.425781 C 127.226562 298.359375 125.867188 294.144531 126.269531 289.972656 C 126.644531 286.046875 128.546875 282.566406 131.628906 280.175781 L 186.046875 231.789062 C 189.226562 229.007812 193.4375 227.625 197.609375 228.054688 C 201.535156 228.429688 205.023438 230.328125 207.417969 233.410156 C 210.070312 236.4375 211.429688 240.644531 211.027344 244.820312 C 210.652344 248.75 208.75 252.234375 205.675781 254.625 L 151.25 303.003906 C 148.800781 304.855469 145.660156 306.800781 141.359375 306.800781 Z M 196.195312 234.023438 C 193.964844 234.023438 191.71875 234.851562 190.039062 236.316406 L 135.480469 284.8125 C 133.082031 286.6875 132.429688 288.949219 132.273438 290.546875 C 132.03125 293.035156 132.878906 295.65625 134.53125 297.546875 C 136.335938 299.796875 138.414062 300.753906 141.351562 300.753906 C 143.367188 300.753906 145.125 300.050781 147.421875 298.328125 L 201.8125 249.976562 C 204.210938 248.105469 204.863281 245.835938 205.015625 244.242188 C 205.257812 241.753906 204.410156 239.132812 202.761719 237.25 C 200.898438 234.867188 198.628906 234.214844 197.03125 234.066406 C 196.753906 234.035156 196.476562 234.023438 196.195312 234.023438 Z M 196.195312 234.023438 "/>
<path style=" stroke:none;fill-rule:nonzero;fill:rgb(98.039246%,74.899292%,50.979614%);fill-opacity:1;" d="M 250.507812 79.421875 C 263.847656 79.421875 274.765625 90.335938 274.765625 103.675781 C 274.765625 117.019531 263.847656 127.933594 250.507812 127.933594 C 237.167969 127.933594 226.25 117.019531 226.25 103.675781 C 226.25 90.335938 237.171875 79.421875 250.507812 79.421875 "/>
<path style=" stroke:none;fill-rule:nonzero;fill:rgb(27.839661%,16.859436%,16.079712%);fill-opacity:1;" d="M 250.507812 130.949219 C 235.472656 130.949219 223.234375 118.714844 223.234375 103.675781 C 223.234375 88.636719 235.472656 76.402344 250.507812 76.402344 C 265.546875 76.402344 277.785156 88.636719 277.785156 103.675781 C 277.789062 118.714844 265.554688 130.949219 250.507812 130.949219 Z M 250.507812 82.441406 C 238.796875 82.441406 229.277344 91.96875 229.277344 103.675781 C 229.277344 115.386719 238.796875 124.910156 250.507812 124.910156 C 262.21875 124.910156 271.746094 115.386719 271.746094 103.675781 C 271.746094 91.96875 262.21875 82.441406 250.507812 82.441406 Z M 250.507812 82.441406 "/>
<path style=" stroke:none;fill-rule:nonzero;fill:rgb(100%,71.759033%,30.198669%);fill-opacity:1;" d="M 162.585938 200.695312 C 155.914062 200.695312 149.851562 197.664062 145.605469 192.203125 C 138.332031 183.109375 140.757812 169.769531 149.851562 162.496094 L 197.148438 127.324219 C 206.246094 120.050781 219.585938 122.476562 226.859375 131.570312 C 234.132812 140.667969 231.710938 154.007812 222.613281 161.28125 L 175.316406 196.449219 C 171.679688 199.484375 166.832031 200.695312 162.585938 200.695312 Z M 162.585938 200.695312 "/>
<path style=" stroke:none;fill-rule:nonzero;fill:rgb(98.039246%,74.899292%,50.979614%);fill-opacity:1;" d="M 265.667969 181.898438 L 232.316406 181.898438 L 232.316406 146.121094 C 232.316406 146.121094 233.53125 135.8125 228.070312 130.355469 C 223.195312 125.476562 215.09375 121.582031 211.082031 119.835938 L 179.5625 98.820312 C 177.742188 97.605469 175.925781 97.605469 173.5 97.605469 L 131.054688 97.605469 C 126.203125 98.214844 122.5625 103.066406 123.171875 107.914062 C 123.777344 112.765625 128.628906 116.402344 133.476562 115.796875 L 172.289062 115.796875 L 191.183594 131.808594 L 149.851562 162.484375 C 140.757812 169.765625 138.332031 183.101562 145.605469 192.199219 C 146.226562 193.003906 146.945312 193.667969 147.648438 194.359375 L 174.675781 230.953125 L 174.71875 231.011719 L 129.234375 231.011719 C 122.5625 231.011719 117.105469 236.46875 117.105469 243.136719 C 117.105469 249.808594 123.085938 256.320312 129.753906 256.320312 L 196.453125 256.320312 C 200.699219 256.320312 204.421875 252.84375 206.847656 249.210938 C 209.273438 245.570312 209.273438 240.71875 206.847656 237.082031 L 185.074219 189.175781 L 210.800781 169.992188 L 214.128906 191.601562 C 214.128906 196.453125 218.371094 200.695312 223.222656 200.695312 L 265.667969 200.695312 C 270.519531 200.695312 274.765625 195.847656 274.765625 190.992188 C 274.765625 186.140625 270.519531 181.898438 265.667969 181.898438 Z M 265.667969 181.898438 "/>
<path style=" stroke:none;fill-rule:nonzero;fill:rgb(94.509888%,73.728943%,9.799194%);fill-opacity:1;" d="M 211.09375 169.773438 L 213.171875 176.230469 L 232.316406 175.691406 L 232.316406 146.125 C 232.316406 146.125 233.53125 135.816406 228.070312 130.359375 C 221.402344 123.683594 195.914062 109.621094 195.914062 109.621094 L 182.972656 126.882812 L 190.410156 132.390625 L 149.851562 162.496094 C 140.757812 169.769531 138.332031 183.109375 145.605469 192.203125 C 149.851562 197.664062 155.914062 200.695312 162.585938 200.695312 C 166.832031 200.695312 171.679688 199.484375 175.316406 196.449219 Z M 211.09375 169.773438 "/>
<path style=" stroke:none;fill-rule:nonzero;fill:rgb(93.328857%,24.308777%,32.939148%);fill-opacity:1;" d="M 150.613281 198.074219 L 174.714844 231.015625 L 198.074219 219.375 L 185.019531 189.78125 L 161.976562 154.003906 L 150.457031 162.496094 C 141.359375 169.769531 138.9375 183.109375 146.210938 192.203125 C 150.613281 198.074219 150.613281 198.074219 150.613281 198.074219 Z M 150.613281 198.074219 "/>
<path style=" stroke:none;fill-rule:nonzero;fill:rgb(27.839661%,16.859436%,16.079712%);fill-opacity:1;" d="M 195.9375 258.292969 L 129.234375 258.292969 C 120.878906 258.292969 114.085938 251.496094 114.085938 243.136719 C 114.085938 234.785156 120.878906 227.988281 129.234375 227.988281 L 168.722656 227.988281 L 145.355469 196.351562 C 144.449219 195.460938 143.804688 194.8125 143.222656 194.058594 C 135.125 183.941406 137.246094 168.710938 147.960938 160.132812 L 186.671875 131.398438 L 173.027344 116.683594 L 135.535156 116.683594 C 132.8125 117.03125 129.550781 116.132812 126.964844 114.171875 C 124.34375 112.175781 122.617188 109.257812 122.230469 106.152344 C 121.847656 103.054688 122.753906 99.792969 124.71875 97.207031 C 126.707031 94.585938 129.632812 92.859375 132.738281 92.472656 L 175.558594 92.445312 C 178.210938 92.445312 180.71875 92.445312 183.300781 94.167969 C 183.753906 94.496094 217.867188 119.550781 225.449219 124.964844 C 236.136719 132.597656 235.371094 145.765625 235.332031 146.324219 L 235.34375 178.882812 L 265.667969 178.882812 C 272.234375 178.882812 277.789062 184.429688 277.789062 190.996094 C 277.789062 197.652344 272.011719 203.714844 265.667969 203.714844 L 223.222656 203.714844 C 216.738281 203.714844 211.25 198.304688 211.105469 191.851562 L 208.578125 175.410156 L 188.832031 190.136719 L 209.5 235.621094 C 212.449219 240.222656 212.402344 246.324219 209.359375 250.882812 C 206.363281 255.382812 201.09375 258.292969 195.9375 258.292969 Z M 129.234375 234.035156 C 124.210938 234.035156 120.125 238.117188 120.125 243.136719 C 120.125 248.160156 124.210938 252.246094 129.234375 252.246094 L 195.933594 252.246094 C 199.125 252.246094 202.421875 250.394531 204.328125 247.53125 C 206.082031 244.902344 206.082031 241.375 204.332031 238.753906 C 204.242188 238.621094 204.160156 238.480469 204.089844 238.328125 L 182.320312 190.417969 C 181.734375 189.125 182.125 187.597656 183.265625 186.742188 L 208.988281 167.558594 C 209.84375 166.929688 210.964844 166.792969 211.945312 167.1875 C 212.921875 167.589844 213.621094 168.472656 213.78125 169.523438 L 217.109375 191.132812 C 217.132812 191.285156 217.148438 191.441406 217.148438 191.59375 C 217.148438 194.765625 220.042969 197.664062 223.222656 197.664062 L 265.667969 197.664062 C 268.675781 197.664062 271.746094 194.292969 271.746094 190.984375 C 271.746094 187.808594 268.847656 184.914062 265.667969 184.914062 L 232.320312 184.914062 C 230.652344 184.914062 229.300781 183.5625 229.300781 181.894531 L 229.300781 146.113281 C 229.316406 145.816406 229.835938 135.515625 221.9375 129.867188 C 214.324219 124.429688 180.183594 99.359375 179.839844 99.105469 C 178.9375 98.503906 177.871094 98.472656 175.5625 98.472656 L 133.117188 98.472656 C 131.988281 98.636719 130.542969 99.507812 129.53125 100.847656 C 128.507812 102.1875 128.035156 103.847656 128.226562 105.390625 C 128.414062 106.890625 129.289062 108.335938 130.621094 109.347656 C 131.96875 110.371094 133.621094 110.8125 135.164062 110.652344 L 174.351562 110.628906 C 175.191406 110.628906 175.996094 110.976562 176.5625 111.597656 L 193.398438 129.753906 C 193.988281 130.386719 194.269531 131.230469 194.195312 132.085938 C 194.117188 132.9375 193.675781 133.71875 192.988281 134.234375 L 151.65625 164.910156 C 143.625 171.335938 141.933594 182.765625 147.972656 190.308594 C 148.445312 190.917969 148.953125 191.402344 149.460938 191.898438 C 149.460938 191.898438 149.769531 192.199219 149.769531 192.199219 C 149.882812 192.3125 149.984375 192.433594 150.082031 192.558594 L 177.109375 229.152344 C 177.785156 230.070312 177.910156 231.316406 177.398438 232.332031 C 176.882812 233.347656 175.859375 234.023438 174.722656 234.023438 L 129.234375 234.023438 Z M 129.234375 234.035156 "/>
<path style=" stroke:none;fill-rule:nonzero;fill:rgb(27.839661%,16.859436%,16.079712%);fill-opacity:1;" d="M 232.589844 177.578125 L 211.015625 177.578125 C 210.421875 177.578125 209.9375 177.09375 209.9375 176.5 C 209.9375 175.902344 210.421875 175.421875 211.015625 175.421875 L 232.589844 175.421875 C 233.183594 175.421875 233.667969 175.902344 233.667969 176.5 C 233.667969 177.09375 233.183594 177.578125 232.589844 177.578125 Z M 232.589844 177.578125 "/>
<path style=" stroke:none;fill-rule:nonzero;fill:rgb(27.839661%,16.859436%,16.079712%);fill-opacity:1;" d="M 185.128906 125.804688 C 184.917969 125.804688 184.707031 125.742188 184.519531 125.617188 C 184.027344 125.28125 183.898438 124.613281 184.234375 124.117188 L 195.023438 108.292969 C 195.363281 107.796875 196.03125 107.667969 196.523438 108.007812 C 197.015625 108.347656 197.144531 109.015625 196.808594 109.511719 L 186.023438 125.332031 C 185.808594 125.640625 185.472656 125.804688 185.128906 125.804688 Z M 185.128906 125.804688 "/>
<path style=" stroke:none;fill-rule:nonzero;fill:rgb(27.839661%,16.859436%,16.079712%);fill-opacity:1;" d="M 185.128906 190.523438 C 184.769531 190.523438 184.421875 190.34375 184.21875 190.015625 L 171.09375 169.164062 C 170.773438 168.664062 170.925781 167.996094 171.429688 167.675781 C 171.933594 167.375 172.597656 167.507812 172.917969 168.015625 L 186.042969 188.871094 C 186.363281 189.371094 186.210938 190.039062 185.707031 190.359375 C 185.527344 190.464844 185.328125 190.523438 185.128906 190.523438 Z M 185.128906 190.523438 "/>
<path style=" stroke:none;fill-rule:nonzero;fill:rgb(27.839661%,16.859436%,16.079712%);fill-opacity:1;" d="M 167.871094 163.015625 C 167.511719 163.015625 167.164062 162.839844 166.960938 162.515625 L 161.027344 153.164062 C 160.707031 152.664062 160.855469 151.996094 161.359375 151.675781 C 161.859375 151.359375 162.527344 151.5 162.847656 152.007812 L 168.78125 161.359375 C 169.101562 161.859375 168.953125 162.527344 168.449219 162.847656 C 168.265625 162.960938 168.070312 163.015625 167.871094 163.015625 Z M 167.871094 163.015625 "/>
<path style=" stroke:none;fill-rule:nonzero;fill:rgb(27.839661%,16.859436%,16.079712%);fill-opacity:1;" d="M 176.5 229.351562 C 176.070312 229.351562 175.667969 229.09375 175.5 228.675781 C 175.277344 228.125 175.546875 227.496094 176.097656 227.273438 L 197.671875 218.644531 C 198.214844 218.421875 198.851562 218.691406 199.074219 219.25 C 199.292969 219.800781 199.023438 220.425781 198.46875 220.652344 L 176.894531 229.28125 C 176.769531 229.328125 176.632812 229.351562 176.5 229.351562 Z M 176.5 229.351562 "/>
<path style=" stroke:none;fill-rule:nonzero;fill:rgb(51.368713%,43.528748%,38.038635%);fill-opacity:1;" d="M 187.285156 70.792969 C 187.285156 83.734375 221.804688 135.511719 277.894531 96.679688 C 269.261719 70.792969 247.691406 70.792969 230.433594 75.105469 C 213.171875 79.421875 191.601562 75.105469 187.285156 70.792969 Z M 187.285156 70.792969 "/>
<path style=" stroke:none;fill-rule:nonzero;fill:rgb(27.839661%,16.859436%,16.079712%);fill-opacity:1;" d="M 238.21875 113.023438 C 228.429688 113.023438 220.285156 110.320312 213.980469 107.015625 C 195.039062 97.09375 185.128906 78.160156 185.128906 70.792969 C 185.128906 69.921875 185.65625 69.128906 186.460938 68.796875 C 187.273438 68.46875 188.195312 68.648438 188.8125 69.265625 C 192.15625 72.613281 212.644531 77.335938 229.910156 73.007812 C 255.855469 66.523438 272.695312 74.25 279.941406 95.992188 C 280.242188 96.902344 279.910156 97.898438 279.121094 98.449219 C 263.453125 109.300781 249.707031 113.023438 238.21875 113.023438 Z M 190.40625 75.089844 C 193.152344 82.707031 201.777344 95.757812 215.980469 103.199219 C 228.417969 109.71875 248.730469 113.636719 275.308594 95.828125 C 268.558594 77.535156 254.039062 71.433594 230.953125 77.203125 C 216.550781 80.789062 199.207031 78.722656 190.40625 75.089844 Z M 190.40625 75.089844 "/>
</g>
</svg>
