<?xml version="1.0" encoding="UTF-8"?>
<svg xmlns="http://www.w3.org/2000/svg" xmlns:xlink="http://www.w3.org/1999/xlink" width="375pt" height="374.999991pt" viewBox="0 0 375 374.999991" version="1.2">
<g id="surface1">
<rect x="0" y="0" width="375" height="374.999991" style="fill:rgb(100%,100%,100%);fill-opacity:1;stroke:none;"/>
<rect x="0" y="0" width="375" height="374.999991" style="fill:rgb(100%,100%,100%);fill-opacity:1;stroke:none;"/>
<rect x="0" y="0" width="375" height="374.999991" style="fill:rgb(100%,100%,100%);fill-opacity:1;stroke:none;"/>
<path style=" stroke:none;fill-rule:nonzero;fill:rgb(3.919983%,3.919983%,13.729858%);fill-opacity:1;" d="M 79.664062 64.726562 C 80.824219 65.878906 81.980469 67.539062 81.988281 69.210938 C 81.992188 72.101562 78.597656 76.019531 72.320312 82.457031 C 46.152344 107.636719 32.988281 138.464844 33.074219 175.652344 C 33.175781 216.792969 47.019531 249.832031 73.929688 275.4375 C 79.589844 280.492188 81.914062 284.464844 81.921875 287.867188 C 81.921875 289.53125 80.773438 291.265625 79.617188 292.9375 C 78.535156 294.097656 76.21875 295.261719 74.550781 295.261719 C 68.324219 295.273438 59.609375 287.917969 48.234375 273.609375 C 26.078125 246.480469 16.0625 216.519531 15.5 175.691406 C 14.984375 134.84375 27.800781 107.140625 52.890625 78.542969 C 61.921875 68.324219 69.449219 63.015625 74.585938 63.003906 C 76.253906 63 77.992188 63.570312 79.664062 64.726562 Z M 79.664062 64.726562 "/>
<path style=" stroke:none;fill-rule:nonzero;fill:rgb(3.919983%,3.919983%,13.729858%);fill-opacity:1;" d="M 217.121094 183.011719 C 207.289062 180.503906 247.636719 132.871094 175.921875 75.84375 C 175.921875 75.84375 185.332031 105.710938 137.886719 172.367188 C 90.414062 239 158.992188 278.695312 158.992188 278.695312 C 158.992188 278.695312 126.808594 261.558594 164.222656 200.546875 C 170.917969 189.480469 179.679688 179.457031 190.5625 156.898438 C 190.5625 156.898438 200.191406 170.480469 195.164062 199.925781 C 187.644531 244.421875 227.773438 231.691406 228.394531 232.3125 C 242.414062 248.800781 216.785156 277.785156 215.226562 278.695312 C 213.671875 279.582031 288.414062 233.773438 235.3125 164.835938 C 231.675781 168.46875 226.949219 185.527344 217.121094 183.011719 Z M 217.121094 183.011719 "/>
<path style=" stroke:none;fill-rule:nonzero;fill:rgb(3.919983%,3.919983%,13.729858%);fill-opacity:1;" d="M 295.988281 64.695312 C 294.828125 65.847656 293.667969 67.511719 293.664062 69.183594 C 293.660156 72.070312 297.054688 75.988281 303.328125 82.429688 C 329.5 107.601562 342.664062 138.4375 342.574219 175.621094 C 342.476562 216.761719 328.632812 249.800781 301.71875 275.40625 C 296.0625 280.460938 293.738281 284.433594 293.726562 287.835938 C 293.726562 289.503906 294.878906 291.238281 296.03125 292.910156 C 297.117188 294.066406 299.429688 295.226562 301.097656 295.230469 C 307.324219 295.246094 316.039062 287.890625 327.417969 273.578125 C 349.570312 246.449219 359.585938 216.492188 360.148438 175.660156 C 360.667969 134.8125 347.847656 107.113281 322.757812 78.515625 C 313.730469 68.292969 306.199219 62.984375 301.0625 62.976562 C 299.398438 62.96875 297.660156 63.542969 295.988281 64.695312 Z M 295.988281 64.695312 "/>
</g>
</svg>
