<?xml version="1.0" encoding="UTF-8"?>
<svg xmlns="http://www.w3.org/2000/svg" xmlns:xlink="http://www.w3.org/1999/xlink" width="375pt" height="374.999991pt" viewBox="0 0 375 374.999991" version="1.2">
<defs>
<clipPath id="clip1">
  <path d="M 71 21.605469 L 140 21.605469 L 140 90 L 71 90 Z M 71 21.605469 "/>
</clipPath>
<clipPath id="clip2">
  <path d="M 150 21.605469 L 162 21.605469 L 162 34 L 150 34 Z M 150 21.605469 "/>
</clipPath>
<clipPath id="clip3">
  <path d="M 240 21.605469 L 308 21.605469 L 308 90 L 240 90 Z M 240 21.605469 "/>
</clipPath>
<clipPath id="clip4">
  <path d="M 217 21.605469 L 229 21.605469 L 229 34 L 217 34 Z M 217 21.605469 "/>
</clipPath>
<clipPath id="clip5">
  <path d="M 310 214 L 343.261719 214 L 343.261719 307 L 310 307 Z M 310 214 "/>
</clipPath>
<clipPath id="clip6">
  <path d="M 11.761719 120 L 104 120 L 104 154 L 11.761719 154 Z M 11.761719 120 "/>
</clipPath>
</defs>
<g id="surface1">
<path style=" stroke:none;fill-rule:nonzero;fill:rgb(79.998779%,80.389404%,80.778503%);fill-opacity:1;" d="M 133.480469 240.640625 L 133.480469 83.585938 C 133.480469 77.386719 138.5 72.367188 144.699219 72.367188 C 150.894531 72.367188 155.917969 77.386719 155.917969 83.585938 L 155.917969 212.59375 L 167.136719 212.59375 L 167.136719 83.585938 C 167.136719 77.386719 172.15625 72.367188 178.351562 72.367188 C 184.550781 72.367188 189.570312 77.386719 189.570312 83.585938 L 189.570312 212.59375 L 200.789062 212.59375 L 200.789062 83.585938 C 200.789062 77.386719 205.808594 72.367188 212.007812 72.367188 C 218.207031 72.367188 223.226562 77.386719 223.226562 83.585938 L 223.226562 212.59375 L 234.445312 212.59375 L 234.445312 83.585938 C 234.445312 77.386719 239.464844 72.367188 245.664062 72.367188 C 251.859375 72.367188 256.882812 77.386719 256.882812 83.585938 L 256.882812 352.824219 L 111.042969 352.824219 L 111.042969 296.734375 L 88.605469 274.296875 L 88.605469 195.769531 C 88.605469 186.472656 96.140625 178.941406 105.433594 178.941406 C 114.730469 178.941406 122.261719 186.472656 122.261719 195.769531 L 122.261719 240.640625 Z M 133.480469 240.640625 "/>
<path style=" stroke:none;fill-rule:nonzero;fill:rgb(64.309692%,63.529968%,63.529968%);fill-opacity:1;" d="M 105.433594 111.632812 L 94.214844 111.632812 L 94.214844 89.195312 C 94.214844 64.453125 114.347656 44.320312 139.089844 44.320312 L 139.089844 55.539062 C 120.527344 55.539062 105.433594 70.632812 105.433594 89.195312 Z M 105.433594 111.632812 "/>
<g clip-path="url(#clip1)" clip-rule="nonzero">
<path style=" stroke:none;fill-rule:nonzero;fill:rgb(64.309692%,63.529968%,63.529968%);fill-opacity:1;" d="M 82.996094 89.195312 L 71.78125 89.195312 C 71.78125 52.078125 101.972656 21.886719 139.089844 21.886719 L 139.089844 33.101562 C 108.160156 33.101562 82.996094 58.265625 82.996094 89.195312 Z M 82.996094 89.195312 "/>
</g>
<g clip-path="url(#clip2)" clip-rule="nonzero">
<path style=" stroke:none;fill-rule:nonzero;fill:rgb(64.309692%,63.529968%,63.529968%);fill-opacity:1;" d="M 150.308594 21.886719 L 161.527344 21.886719 L 161.527344 33.101562 L 150.308594 33.101562 Z M 150.308594 21.886719 "/>
</g>
<path style=" stroke:none;fill-rule:nonzero;fill:rgb(64.309692%,63.529968%,63.529968%);fill-opacity:1;" d="M 71.78125 100.414062 L 82.996094 100.414062 L 82.996094 111.632812 L 71.78125 111.632812 Z M 71.78125 100.414062 "/>
<path style=" stroke:none;fill-rule:nonzero;fill:rgb(64.309692%,63.529968%,63.529968%);fill-opacity:1;" d="M 284.925781 111.632812 L 273.707031 111.632812 L 273.707031 89.195312 C 273.707031 70.632812 258.613281 55.539062 240.054688 55.539062 L 240.054688 44.320312 C 264.796875 44.320312 284.925781 64.453125 284.925781 89.195312 Z M 284.925781 111.632812 "/>
<g clip-path="url(#clip3)" clip-rule="nonzero">
<path style=" stroke:none;fill-rule:nonzero;fill:rgb(64.309692%,63.529968%,63.529968%);fill-opacity:1;" d="M 307.363281 89.195312 L 296.144531 89.195312 C 296.144531 58.265625 270.984375 33.101562 240.054688 33.101562 L 240.054688 21.886719 C 277.167969 21.886719 307.363281 52.078125 307.363281 89.195312 Z M 307.363281 89.195312 "/>
</g>
<g clip-path="url(#clip4)" clip-rule="nonzero">
<path style=" stroke:none;fill-rule:nonzero;fill:rgb(64.309692%,63.529968%,63.529968%);fill-opacity:1;" d="M 217.617188 21.886719 L 228.835938 21.886719 L 228.835938 33.101562 L 217.617188 33.101562 Z M 217.617188 21.886719 "/>
</g>
<path style=" stroke:none;fill-rule:nonzero;fill:rgb(36.079407%,88.238525%,90.19928%);fill-opacity:1;" d="M 296.144531 100.414062 L 307.363281 100.414062 L 307.363281 111.632812 L 296.144531 111.632812 Z M 296.144531 100.414062 "/>
<path style=" stroke:none;fill-rule:nonzero;fill:rgb(64.309692%,63.529968%,63.529968%);fill-opacity:1;" d="M 273.707031 201.378906 L 284.925781 201.378906 L 284.925781 240.640625 L 273.707031 240.640625 Z M 273.707031 201.378906 "/>
<path style=" stroke:none;fill-rule:nonzero;fill:rgb(64.309692%,63.529968%,63.529968%);fill-opacity:1;" d="M 296.144531 173.332031 L 307.363281 173.332031 L 307.363281 212.59375 L 296.144531 212.59375 Z M 296.144531 173.332031 "/>
<path style=" stroke:none;fill-rule:nonzero;fill:rgb(36.079407%,88.238525%,90.19928%);fill-opacity:1;" d="M 94.214844 319.167969 C 69.472656 319.167969 49.34375 299.039062 49.34375 274.296875 L 60.5625 274.296875 C 60.5625 292.855469 75.65625 307.949219 94.214844 307.949219 Z M 94.214844 319.167969 "/>
<path style=" stroke:none;fill-rule:nonzero;fill:rgb(36.079407%,88.238525%,90.19928%);fill-opacity:1;" d="M 49.34375 178.941406 L 60.5625 178.941406 L 60.5625 218.203125 L 49.34375 218.203125 Z M 49.34375 178.941406 "/>
<path style=" stroke:none;fill-rule:nonzero;fill:rgb(36.079407%,88.238525%,90.19928%);fill-opacity:1;" d="M 21.296875 195.769531 L 32.515625 195.769531 L 32.515625 235.03125 L 21.296875 235.03125 Z M 21.296875 195.769531 "/>
<path style=" stroke:none;fill-rule:nonzero;fill:rgb(64.309692%,63.529968%,63.529968%);fill-opacity:1;" d="M 297.789062 345.570312 L 276.996094 324.777344 L 293.824219 307.949219 L 276.996094 291.125 L 293.824219 274.296875 L 280.960938 261.433594 L 288.890625 253.503906 L 309.683594 274.296875 L 292.859375 291.125 L 309.683594 307.949219 L 292.859375 324.777344 L 305.71875 337.640625 Z M 297.789062 345.570312 "/>
<g clip-path="url(#clip5)" clip-rule="nonzero">
<path style=" stroke:none;fill-rule:nonzero;fill:rgb(64.309692%,63.529968%,63.529968%);fill-opacity:1;" d="M 331.441406 306.308594 L 310.648438 285.515625 L 327.476562 268.6875 L 310.648438 251.859375 L 327.476562 235.03125 L 314.617188 222.171875 L 322.546875 214.238281 L 343.339844 235.03125 L 326.511719 251.859375 L 343.339844 268.6875 L 326.511719 285.515625 L 339.375 298.375 Z M 331.441406 306.308594 "/>
</g>
<g clip-path="url(#clip6)" clip-rule="nonzero">
<path style=" stroke:none;fill-rule:nonzero;fill:rgb(64.309692%,63.529968%,63.529968%);fill-opacity:1;" d="M 82.996094 153.21875 L 66.171875 136.390625 L 49.34375 153.21875 L 32.515625 136.390625 L 19.652344 149.25 L 11.722656 141.320312 L 32.515625 120.527344 L 49.34375 137.355469 L 66.171875 120.527344 L 82.996094 137.355469 L 95.859375 124.492188 L 103.789062 132.425781 Z M 82.996094 153.21875 "/>
</g>
<path style=" stroke:none;fill-rule:nonzero;fill:rgb(36.079407%,88.238525%,90.19928%);fill-opacity:1;" d="M 273.707031 128.457031 L 284.925781 128.457031 L 284.925781 150.894531 L 273.707031 150.894531 Z M 273.707031 128.457031 "/>
</g>
</svg>
