<?xml version="1.0" encoding="UTF-8"?>
<svg xmlns="http://www.w3.org/2000/svg" xmlns:xlink="http://www.w3.org/1999/xlink" width="375pt" height="374.999991pt" viewBox="0 0 375 374.999991" version="1.2">
<defs>
<clipPath id="clip1">
  <path d="M 67.027344 10.671875 L 313.777344 10.671875 L 313.777344 361.136719 L 67.027344 361.136719 Z M 67.027344 10.671875 "/>
</clipPath>
</defs>
<g id="surface1">
<path style=" stroke:none;fill-rule:nonzero;fill:rgb(0%,37.649536%,39.219666%);fill-opacity:1;" d="M 144.296875 60.054688 C 142.757812 60.054688 141.511719 60.582031 140.5625 61.628906 C 139.621094 62.679688 139.148438 64.257812 139.148438 66.355469 L 139.148438 81.066406 L 116.6875 81.066406 L 116.6875 66.355469 C 116.6875 64.234375 116.199219 62.652344 115.230469 61.613281 C 114.261719 60.574219 112.992188 60.054688 111.429688 60.054688 C 109.839844 60.054688 108.585938 60.582031 107.664062 61.628906 C 106.742188 62.679688 106.277344 64.257812 106.277344 66.355469 L 106.277344 106.796875 C 106.277344 108.898438 106.746094 110.480469 107.679688 111.542969 C 108.617188 112.605469 109.863281 113.136719 111.429688 113.136719 C 112.972656 113.136719 114.230469 112.613281 115.214844 111.558594 C 116.195312 110.507812 116.6875 108.921875 116.6875 106.796875 L 116.6875 89.539062 L 139.148438 89.539062 L 139.148438 106.796875 C 139.148438 108.898438 139.613281 110.480469 140.550781 111.542969 C 141.480469 112.605469 142.734375 113.136719 144.296875 113.136719 C 145.839844 113.136719 147.101562 112.613281 148.082031 111.558594 C 149.0625 110.507812 149.550781 108.921875 149.550781 106.796875 L 149.550781 66.355469 C 149.550781 64.234375 149.066406 62.652344 148.097656 61.613281 C 147.128906 60.574219 145.859375 60.054688 144.296875 60.054688 "/>
<path style=" stroke:none;fill-rule:nonzero;fill:rgb(0%,37.649536%,39.219666%);fill-opacity:1;" d="M 164.796875 74.269531 C 163.394531 74.269531 162.253906 74.75 161.378906 75.707031 C 160.503906 76.664062 160.0625 78.089844 160.0625 79.980469 L 160.0625 107.324219 C 160.0625 109.191406 160.503906 110.625 161.378906 111.632812 C 162.253906 112.636719 163.394531 113.136719 164.796875 113.136719 C 166.195312 113.136719 167.351562 112.644531 168.261719 111.664062 C 169.171875 110.683594 169.628906 109.238281 169.628906 107.324219 L 169.628906 79.699219 C 169.628906 77.992188 169.171875 76.664062 168.261719 75.707031 C 167.351562 74.75 166.195312 74.269531 164.796875 74.269531 "/>
<path style=" stroke:none;fill-rule:nonzero;fill:rgb(0%,37.649536%,39.219666%);fill-opacity:1;" d="M 168.195312 61.667969 C 167.234375 60.871094 166.136719 60.476562 164.898438 60.476562 C 163.617188 60.476562 162.488281 60.914062 161.515625 61.789062 C 160.550781 62.664062 160.0625 63.78125 160.0625 65.132812 C 160.0625 66.625 160.539062 67.78125 161.484375 68.597656 C 162.429688 69.414062 163.570312 69.824219 164.898438 69.824219 C 166.183594 69.824219 167.292969 69.40625 168.226562 68.578125 C 169.164062 67.75 169.628906 66.601562 169.628906 65.132812 C 169.628906 63.613281 169.148438 62.457031 168.195312 61.667969 "/>
<path style=" stroke:none;fill-rule:nonzero;fill:rgb(0%,37.649536%,39.219666%);fill-opacity:1;" d="M 186.484375 102.597656 C 185.011719 102.597656 183.769531 103.105469 182.75 104.121094 C 181.738281 105.136719 181.226562 106.367188 181.226562 107.8125 C 181.226562 109.46875 181.757812 110.761719 182.824219 111.683594 C 183.882812 112.605469 185.128906 113.066406 186.554688 113.066406 C 187.953125 113.066406 189.179688 112.597656 190.230469 111.664062 C 191.285156 110.730469 191.808594 109.449219 191.808594 107.8125 C 191.808594 106.367188 191.289062 105.136719 190.25 104.121094 C 189.210938 103.105469 187.953125 102.597656 186.484375 102.597656 "/>
<path style=" stroke:none;fill-rule:nonzero;fill:rgb(0%,37.649536%,39.219666%);fill-opacity:1;" d="M 186.765625 60.054688 C 185.105469 60.054688 183.769531 60.597656 182.75 61.683594 C 181.738281 62.769531 181.226562 64.28125 181.226562 66.21875 C 181.226562 67.640625 181.332031 69.984375 181.542969 73.253906 L 182.664062 90.027344 C 182.875 92.199219 183.226562 93.816406 183.714844 94.878906 C 184.207031 95.9375 185.082031 96.46875 186.34375 96.46875 C 187.582031 96.46875 188.46875 95.921875 189.007812 94.824219 C 189.542969 93.726562 189.894531 92.152344 190.058594 90.09375 L 191.5625 72.835938 C 191.726562 71.246094 191.808594 69.683594 191.808594 68.144531 C 191.808594 65.527344 191.46875 63.527344 190.792969 62.140625 C 190.117188 60.75 188.773438 60.054688 186.765625 60.054688 "/>
<path style=" stroke:none;fill-rule:nonzero;fill:rgb(0%,37.649536%,39.219666%);fill-opacity:1;" d="M 206.746094 190.535156 L 206.746094 162.523438 L 211.921875 162.523438 L 211.921875 190.535156 Z M 211.921875 200.996094 L 217.863281 200.996094 L 217.863281 174.363281 C 221.625 176.636719 224.5625 179.804688 226.683594 183.867188 L 231.554688 179.957031 C 229.382812 175.539062 225.34375 171.875 219.4375 168.960938 L 217.863281 170.148438 L 217.863281 156.8125 L 200.761719 156.8125 L 200.761719 200.996094 L 206.746094 200.996094 L 206.746094 196.511719 L 211.921875 196.511719 L 211.921875 200.996094 "/>
<g clip-path="url(#clip1)" clip-rule="nonzero">
<path style=" stroke:none;fill-rule:nonzero;fill:rgb(0%,37.649536%,39.219666%);fill-opacity:1;" d="M 293.726562 221.832031 L 302.773438 262.621094 L 263.839844 247.035156 C 262.738281 246.597656 261.507812 246.597656 260.40625 247.035156 C 252.125 250.34375 243.367188 252.019531 234.371094 252.019531 C 229.867188 252.019531 225.375 251.59375 221.027344 250.75 C 192.628906 245.292969 170.207031 222.5 165.242188 194.027344 C 164.542969 190.054688 164.1875 185.972656 164.1875 181.886719 C 164.1875 177.113281 164.679688 172.351562 165.632812 167.6875 C 194.21875 161.597656 217.15625 140.09375 225.292969 112.332031 C 228.3125 111.941406 231.355469 111.746094 234.371094 111.746094 C 273.074219 111.746094 304.558594 143.210938 304.558594 181.886719 C 304.558594 194.820312 301.007812 207.453125 294.296875 218.421875 C 293.671875 219.441406 293.464844 220.667969 293.726562 221.832031 Z M 146.464844 338.363281 C 137.472656 338.363281 128.714844 336.683594 120.433594 333.378906 C 119.332031 332.9375 118.097656 332.9375 116.996094 333.378906 L 78.066406 348.96875 L 87.113281 308.171875 C 87.371094 307.003906 87.167969 305.78125 86.542969 304.761719 C 79.828125 293.792969 76.277344 281.160156 76.277344 268.226562 C 76.277344 229.554688 107.761719 198.089844 146.464844 198.089844 C 149.910156 198.089844 153.363281 198.347656 156.765625 198.851562 C 163.238281 228.492188 186.515625 252.160156 216.0625 259.136719 C 216.453125 262.136719 216.652344 265.179688 216.652344 268.226562 C 216.652344 306.898438 185.164062 338.363281 146.464844 338.363281 Z M 123.011719 155.207031 C 121.90625 154.765625 120.679688 154.765625 119.574219 155.207031 L 80.644531 170.796875 L 89.691406 130 C 89.949219 128.832031 89.746094 127.609375 89.121094 126.585938 C 82.40625 115.617188 78.859375 102.984375 78.859375 90.054688 C 78.859375 51.378906 110.34375 19.914062 149.042969 19.914062 C 187.746094 19.914062 219.234375 51.378906 219.234375 90.054688 C 219.234375 128.730469 187.746094 160.191406 149.042969 160.191406 C 140.054688 160.191406 131.292969 158.515625 123.011719 155.207031 Z M 234.371094 102.5 C 232.074219 102.5 229.761719 102.601562 227.453125 102.804688 C 228.128906 98.652344 228.484375 94.394531 228.484375 90.054688 C 228.484375 46.28125 192.847656 10.671875 149.042969 10.671875 C 105.242188 10.671875 69.605469 46.28125 69.605469 90.054688 C 69.605469 104.050781 73.285156 117.746094 80.261719 129.789062 L 69.714844 177.339844 C 69.34375 179.015625 69.929688 180.753906 71.238281 181.863281 C 72.085938 182.585938 73.152344 182.960938 74.230469 182.960938 C 74.808594 182.960938 75.394531 182.855469 75.953125 182.632812 L 121.324219 164.464844 C 130.1875 167.765625 139.5 169.4375 149.042969 169.4375 C 151.378906 169.4375 153.683594 169.328125 155.96875 169.132812 C 155.289062 173.34375 154.9375 177.609375 154.9375 181.886719 C 154.9375 184.378906 155.058594 186.867188 155.289062 189.339844 C 152.359375 189.015625 149.410156 188.847656 146.464844 188.847656 C 102.664062 188.847656 67.027344 224.457031 67.027344 268.226562 C 67.027344 282.230469 70.707031 295.925781 77.683594 307.964844 L 67.136719 355.515625 C 66.765625 357.1875 67.351562 358.929688 68.660156 360.039062 C 69.511719 360.761719 70.574219 361.136719 71.652344 361.136719 C 72.234375 361.136719 72.816406 361.03125 73.375 360.804688 L 118.75 342.636719 C 127.605469 345.933594 136.917969 347.605469 146.464844 347.605469 C 190.265625 347.605469 225.902344 311.996094 225.902344 268.226562 C 225.902344 265.734375 225.78125 263.246094 225.550781 260.777344 C 228.464844 261.097656 231.417969 261.265625 234.371094 261.265625 C 243.917969 261.265625 253.234375 259.597656 262.089844 256.292969 L 307.464844 274.460938 C 308.019531 274.679688 308.601562 274.789062 309.183594 274.789062 C 310.261719 274.789062 311.328125 274.414062 312.179688 273.691406 C 313.488281 272.585938 314.074219 270.839844 313.703125 269.167969 L 303.15625 221.621094 C 310.132812 209.585938 313.808594 195.886719 313.808594 181.886719 C 313.808594 138.113281 278.175781 102.5 234.371094 102.5 "/>
</g>
<path style=" stroke:none;fill-rule:nonzero;fill:rgb(0%,37.649536%,39.219666%);fill-opacity:1;" d="M 211.769531 214.789062 L 217.253906 217.933594 C 223.898438 209.78125 228.066406 200.675781 229.75 190.609375 L 224.730469 188.503906 C 222.507812 197.878906 218.183594 206.640625 211.769531 214.789062 "/>
<path style=" stroke:none;fill-rule:nonzero;fill:rgb(0%,37.649536%,39.219666%);fill-opacity:1;" d="M 255.480469 183.5625 L 249.769531 183.5625 L 253.757812 181.03125 C 251.941406 177.402344 249.515625 174.53125 246.472656 172.410156 L 255.675781 172.410156 Z M 254.5625 201.992188 L 249.460938 201.992188 L 253.527344 199.347656 C 252.199219 196.050781 249.296875 192.910156 244.824219 189.917969 L 240.183594 192.910156 C 243.789062 195.132812 246.507812 198.160156 248.351562 201.992188 L 237.921875 201.992188 L 239.875 189.539062 L 255.332031 189.539062 C 255.074219 195.207031 254.820312 199.359375 254.5625 201.992188 Z M 240.261719 172.410156 L 245.589844 172.410156 L 241.296875 175.015625 C 244.363281 177.46875 246.714844 180.316406 248.351562 183.5625 L 239.953125 183.5625 C 240.105469 180.367188 240.207031 176.652344 240.261719 172.410156 Z M 261.769531 166.433594 L 236.425781 166.433594 C 236.492188 166.304688 236.546875 166.199219 236.617188 166.078125 L 237.6875 164.941406 C 237.597656 164.808594 237.5 164.6875 237.410156 164.558594 C 238.074219 163.261719 238.609375 162.128906 238.996094 161.179688 L 266.105469 161.179688 L 266.105469 155.472656 L 241.296875 155.472656 C 241.832031 153.8125 242.140625 151.742188 242.214844 149.265625 L 236.882812 147.464844 C 236.273438 151.585938 234.980469 155.652344 233.015625 159.660156 C 231.105469 158.027344 228.960938 156.691406 226.566406 155.667969 L 222.230469 159.617188 C 225.386719 161.089844 227.957031 162.898438 229.972656 165.019531 C 228.738281 166.921875 227.347656 168.808594 225.800781 170.683594 L 231.25 174.210938 L 233.972656 170.074219 C 234.125 171.480469 234.203125 173.699219 234.203125 176.738281 C 234.203125 179.140625 234.097656 181.414062 233.894531 183.5625 L 229.179688 183.5625 L 229.179688 189.539062 L 233.511719 189.539062 C 232.972656 195.925781 232.027344 201.992188 230.671875 207.738281 L 253.910156 207.738281 C 253.835938 211.007812 253.128906 212.605469 251.800781 212.527344 L 241.984375 211.875 L 244.976562 218.238281 L 249.921875 218.3125 C 253.246094 218.367188 255.617188 217.828125 257.035156 216.707031 C 258.457031 215.582031 259.484375 212.59375 260.125 207.738281 L 266.105469 207.738281 L 266.105469 201.992188 L 260.542969 201.992188 L 261.3125 189.539062 L 267.984375 189.539062 L 267.984375 183.5625 L 261.464844 183.5625 L 261.769531 166.433594 "/>
<path style=" stroke:none;fill-rule:nonzero;fill:rgb(0%,37.649536%,39.219666%);fill-opacity:1;" d="M 177.238281 275.089844 C 177.238281 277.152344 176.96875 278.628906 176.433594 279.53125 C 175.96875 280.34375 175.238281 281.007812 174.242188 281.523438 C 173.25 282.035156 172.164062 282.296875 170.988281 282.296875 C 169.882812 282.296875 168.992188 281.980469 168.308594 281.347656 C 167.628906 280.714844 167.285156 279.953125 167.285156 279.054688 C 167.285156 278.183594 167.574219 277.503906 168.15625 277.019531 C 168.738281 276.53125 169.347656 276.207031 169.984375 276.039062 C 170.625 275.871094 171.773438 275.613281 173.4375 275.257812 C 175.101562 274.902344 176.363281 274.5625 177.238281 274.242188 Z M 183.03125 277.941406 C 183.042969 276.753906 183.054688 275.671875 183.0625 274.703125 C 183.070312 273.726562 183.074219 272.546875 183.074219 271.15625 C 183.074219 268.945312 182.765625 267.175781 182.148438 265.84375 C 181.53125 264.507812 180.472656 263.535156 178.976562 262.917969 C 177.484375 262.300781 175.429688 261.992188 172.816406 261.992188 C 170.480469 261.992188 168.527344 262.308594 166.957031 262.949219 C 165.390625 263.589844 164.238281 264.398438 163.496094 265.386719 C 162.757812 266.375 162.386719 267.390625 162.386719 268.433594 C 162.386719 269.097656 162.628906 269.648438 163.113281 270.074219 C 163.601562 270.503906 164.179688 270.71875 164.847656 270.71875 C 165.585938 270.71875 166.070312 270.582031 166.296875 270.3125 C 166.519531 270.046875 166.902344 269.492188 167.449219 268.652344 C 167.992188 267.808594 168.648438 267.175781 169.40625 266.761719 C 170.171875 266.339844 171.304688 266.128906 172.816406 266.128906 C 174.574219 266.128906 175.730469 266.496094 176.289062 267.226562 C 176.847656 267.957031 177.164062 269.105469 177.238281 270.671875 C 175.988281 271.035156 174.832031 271.347656 173.761719 271.597656 C 172.695312 271.851562 171.417969 272.132812 169.917969 272.4375 C 168.425781 272.742188 167.488281 272.9375 167.109375 273.027344 C 165.3125 273.414062 163.898438 274.1875 162.863281 275.332031 C 161.835938 276.476562 161.316406 277.863281 161.316406 279.488281 C 161.316406 280.691406 161.628906 281.808594 162.253906 282.835938 C 162.878906 283.871094 163.769531 284.683594 164.921875 285.285156 C 166.078125 285.886719 167.414062 286.1875 168.941406 286.1875 C 170.609375 286.1875 172.117188 285.910156 173.457031 285.351562 C 174.800781 284.792969 176.191406 283.953125 177.628906 282.835938 C 178.296875 283.925781 178.929688 284.757812 179.523438 285.328125 C 180.117188 285.902344 180.722656 286.1875 181.332031 286.1875 C 182.054688 286.1875 182.703125 285.9375 183.28125 285.4375 C 183.851562 284.9375 184.140625 284.382812 184.140625 283.773438 C 184.140625 283.425781 183.953125 282.644531 183.585938 281.433594 C 183.214844 280.222656 183.03125 279.058594 183.03125 277.941406 "/>
<path style=" stroke:none;fill-rule:nonzero;fill:rgb(0%,37.649536%,39.219666%);fill-opacity:1;" d="M 138.269531 279.738281 C 137.203125 281.09375 135.769531 281.773438 133.96875 281.773438 C 132.777344 281.773438 131.742188 281.464844 130.867188 280.847656 C 129.988281 280.234375 129.316406 279.34375 128.84375 278.183594 C 128.371094 277.019531 128.136719 275.667969 128.136719 274.113281 C 128.136719 272.546875 128.375 271.171875 128.851562 270 C 129.332031 268.824219 130.015625 267.9375 130.898438 267.335938 C 131.785156 266.734375 132.808594 266.433594 133.96875 266.433594 C 135.769531 266.433594 137.203125 267.109375 138.269531 268.457031 C 139.339844 269.804688 139.871094 271.6875 139.871094 274.113281 C 139.871094 276.503906 139.339844 278.378906 138.269531 279.738281 Z M 142.636719 265.386719 C 141.589844 264.316406 140.335938 263.488281 138.871094 262.90625 C 137.402344 262.328125 135.769531 262.035156 133.96875 262.035156 C 132.199219 262.035156 130.578125 262.324219 129.113281 262.894531 C 127.648438 263.46875 126.402344 264.285156 125.367188 265.34375 C 124.339844 266.402344 123.546875 267.679688 122.996094 269.175781 C 122.445312 270.667969 122.167969 272.3125 122.167969 274.113281 C 122.167969 275.894531 122.441406 277.523438 122.984375 279 C 123.53125 280.46875 124.328125 281.746094 125.382812 282.828125 C 126.429688 283.910156 127.679688 284.738281 129.113281 285.320312 C 130.550781 285.898438 132.167969 286.1875 133.96875 286.1875 C 135.785156 286.1875 137.417969 285.902344 138.871094 285.328125 C 140.320312 284.757812 141.570312 283.933594 142.613281 282.859375 C 143.660156 281.785156 144.460938 280.503906 145.007812 279.007812 C 145.5625 277.515625 145.839844 275.882812 145.839844 274.113281 C 145.839844 272.328125 145.5625 270.695312 145.023438 269.214844 C 144.476562 267.738281 143.683594 266.460938 142.636719 265.386719 "/>
<path style=" stroke:none;fill-rule:nonzero;fill:rgb(0%,37.649536%,39.219666%);fill-opacity:1;" d="M 113.785156 253.203125 C 112.824219 253.203125 112.054688 253.53125 111.464844 254.183594 C 110.875 254.832031 110.585938 255.8125 110.585938 257.121094 L 110.585938 266.257812 L 96.625 266.257812 L 96.625 257.121094 C 96.625 255.800781 96.324219 254.816406 95.722656 254.167969 C 95.121094 253.523438 94.332031 253.203125 93.359375 253.203125 C 92.375 253.203125 91.589844 253.53125 91.019531 254.183594 C 90.445312 254.832031 90.160156 255.8125 90.160156 257.121094 L 90.160156 282.25 C 90.160156 283.554688 90.449219 284.539062 91.03125 285.199219 C 91.609375 285.859375 92.386719 286.1875 93.359375 286.1875 C 94.316406 286.1875 95.101562 285.859375 95.710938 285.207031 C 96.320312 284.558594 96.625 283.570312 96.625 282.25 L 96.625 271.523438 L 110.585938 271.523438 L 110.585938 282.25 C 110.585938 283.554688 110.875 284.539062 111.453125 285.199219 C 112.035156 285.859375 112.8125 286.1875 113.785156 286.1875 C 114.742188 286.1875 115.527344 285.859375 116.136719 285.207031 C 116.746094 284.558594 117.050781 283.570312 117.050781 282.25 L 117.050781 257.121094 C 117.050781 255.800781 116.75 254.816406 116.148438 254.167969 C 115.542969 253.523438 114.757812 253.203125 113.785156 253.203125 "/>
<path style=" stroke:none;fill-rule:nonzero;fill:rgb(0%,37.649536%,39.219666%);fill-opacity:1;" d="M 153.457031 253.203125 C 152.558594 253.203125 151.84375 253.507812 151.3125 254.113281 C 150.785156 254.726562 150.519531 255.625 150.519531 256.8125 L 150.519531 282.578125 C 150.519531 283.738281 150.792969 284.628906 151.335938 285.253906 C 151.882812 285.878906 152.589844 286.1875 153.457031 286.1875 C 154.34375 286.1875 155.066406 285.886719 155.625 285.285156 C 156.183594 284.683594 156.460938 283.78125 156.460938 282.578125 L 156.460938 256.8125 C 156.460938 255.609375 156.1875 254.707031 155.636719 254.105469 C 155.085938 253.503906 154.359375 253.203125 153.457031 253.203125 "/>
<path style=" stroke:none;fill-rule:nonzero;fill:rgb(0%,37.649536%,39.219666%);fill-opacity:1;" d="M 193.4375 279.640625 C 192.519531 279.640625 191.75 279.953125 191.117188 280.585938 C 190.488281 281.214844 190.171875 281.980469 190.171875 282.882812 C 190.171875 283.910156 190.5 284.714844 191.160156 285.285156 C 191.820312 285.859375 192.597656 286.144531 193.480469 286.144531 C 194.351562 286.144531 195.113281 285.855469 195.765625 285.277344 C 196.421875 284.695312 196.746094 283.898438 196.746094 282.882812 C 196.746094 281.980469 196.425781 281.214844 195.777344 280.585938 C 195.132812 279.953125 194.351562 279.640625 193.4375 279.640625 "/>
<path style=" stroke:none;fill-rule:nonzero;fill:rgb(0%,37.649536%,39.219666%);fill-opacity:1;" d="M 191.0625 271.828125 C 191.195312 273.175781 191.410156 274.183594 191.714844 274.839844 C 192.023438 275.5 192.566406 275.832031 193.351562 275.832031 C 194.117188 275.832031 194.671875 275.492188 195.003906 274.808594 C 195.339844 274.125 195.558594 273.148438 195.65625 271.871094 L 196.59375 261.144531 C 196.695312 260.160156 196.746094 259.1875 196.746094 258.230469 C 196.746094 256.605469 196.539062 255.359375 196.113281 254.496094 C 195.695312 253.636719 194.859375 253.203125 193.609375 253.203125 C 192.582031 253.203125 191.75 253.539062 191.117188 254.214844 C 190.488281 254.886719 190.171875 255.828125 190.171875 257.03125 C 190.171875 257.914062 190.238281 259.375 190.367188 261.40625 L 191.0625 271.828125 "/>
</g>
</svg>
