<?xml version="1.0" encoding="UTF-8"?>
<svg xmlns="http://www.w3.org/2000/svg" xmlns:xlink="http://www.w3.org/1999/xlink" width="375pt" height="374.999991pt" viewBox="0 0 375 374.999991" version="1.2">
<defs>
<clipPath id="clip1">
  <path d="M 26 76 L 275 76 L 275 363.417969 L 26 363.417969 Z M 26 76 "/>
</clipPath>
<clipPath id="clip2">
  <path d="M 101 11.667969 L 151 11.667969 L 151 61 L 101 61 Z M 101 11.667969 "/>
</clipPath>
</defs>
<g id="surface1">
<path style=" stroke:none;fill-rule:nonzero;fill:rgb(1.179504%,59.609985%,61.959839%);fill-opacity:1;" d="M 339.933594 196.300781 C 339.898438 189.34375 341.164062 178.695312 341.394531 171.464844 C 343.085938 116.664062 290.164062 76.941406 228.359375 80.140625 C 171.8125 83.046875 130.917969 113.75 122.152344 171.703125 C 116.75 207.460938 128.1875 236.515625 154.023438 270.058594 C 160.492188 278.46875 163.703125 293.09375 163.035156 303.6875 C 162.152344 317.625 158.027344 335.84375 154.828125 347.957031 C 153.890625 351.503906 156.566406 354.96875 160.230469 354.96875 L 246.867188 354.96875 C 249.3125 354.96875 251.441406 353.375 252.195312 351.058594 C 255.796875 339.929688 262.585938 323.699219 271.425781 316.96875 C 280.964844 309.707031 300.683594 313.691406 313.292969 314.207031 C 344.875 315.832031 335.140625 289.378906 341.929688 266.191406 C 347.277344 247.90625 362.449219 251.949219 361.773438 239.027344 C 361.355469 231.164062 339.988281 221.007812 339.933594 196.300781 "/>
<path style=" stroke:none;fill-rule:nonzero;fill:rgb(21.958923%,71.369934%,100%);fill-opacity:1;" d="M 232.972656 359.785156 C 236.859375 359.785156 239.675781 356.070312 238.585938 352.324219 C 235.429688 341.457031 229.972656 320.695312 228.890625 303.6875 C 228.226562 293.09375 231.433594 278.46875 237.90625 270.058594 C 263.730469 236.515625 275.179688 207.460938 269.777344 171.703125 C 261.011719 113.75 220.117188 83.046875 163.570312 80.140625 C 101.765625 76.941406 48.84375 116.664062 50.542969 171.464844 C 50.761719 178.695312 52.027344 189.34375 51.996094 196.300781 C 51.941406 221.007812 30.570312 231.164062 30.15625 239.027344 C 29.492188 251.949219 44.652344 247.90625 50 266.191406 C 56.777344 289.378906 47.050781 315.832031 78.636719 314.207031 C 91.242188 313.691406 111.730469 308.800781 120.503906 316.96875 C 126.101562 322.179688 130.609375 344.910156 132.367188 354.96875 C 132.859375 357.765625 135.28125 359.785156 138.121094 359.785156 L 232.972656 359.785156 "/>
<path style=" stroke:none;fill-rule:nonzero;fill:rgb(94.119263%,94.898987%,87.449646%);fill-opacity:1;" d="M 124.007812 16.726562 L 118.046875 27.617188 C 117.851562 27.964844 117.570312 28.261719 117.207031 28.457031 L 106.328125 34.410156 C 104.863281 35.21875 104.863281 37.328125 106.328125 38.125 L 117.207031 44.078125 C 117.570312 44.273438 117.851562 44.566406 118.046875 44.917969 L 124.007812 55.808594 C 124.804688 57.28125 126.910156 57.28125 127.707031 55.808594 L 133.667969 44.917969 C 133.863281 44.566406 134.148438 44.273438 134.507812 44.078125 L 145.386719 38.125 C 146.851562 37.328125 146.851562 35.21875 145.386719 34.410156 L 134.507812 28.457031 C 134.148438 28.261719 133.863281 27.964844 133.667969 27.617188 L 127.707031 16.726562 C 126.910156 15.253906 124.804688 15.253906 124.007812 16.726562 "/>
<path style=" stroke:none;fill-rule:nonzero;fill:rgb(94.119263%,94.898987%,87.449646%);fill-opacity:1;" d="M 71.828125 56.023438 L 67.855469 63.300781 C 67.722656 63.539062 67.527344 63.726562 67.296875 63.855469 L 60.027344 67.832031 C 59.046875 68.367188 59.046875 69.777344 60.027344 70.3125 L 67.296875 74.289062 C 67.527344 74.417969 67.722656 74.613281 67.855469 74.84375 L 71.828125 82.117188 C 72.363281 83.101562 73.769531 83.101562 74.304688 82.117188 L 78.277344 74.84375 C 78.410156 74.613281 78.605469 74.417969 78.835938 74.289062 L 86.101562 70.3125 C 87.085938 69.777344 87.085938 68.367188 86.101562 67.832031 L 78.835938 63.855469 C 78.605469 63.726562 78.410156 63.539062 78.277344 63.300781 L 74.304688 56.023438 C 73.769531 55.054688 72.363281 55.054688 71.828125 56.023438 "/>
<path style=" stroke:none;fill-rule:nonzero;fill:rgb(30.589294%,25.489807%,56.469727%);fill-opacity:1;" d="M 252.042969 355.753906 C 251.832031 355.753906 251.636719 355.734375 251.429688 355.699219 C 249.53125 355.363281 248.265625 353.558594 248.59375 351.660156 C 250.371094 341.445312 257.378906 323.042969 269.339844 314.164062 C 277.972656 307.75 292.195312 308.984375 304.722656 310.078125 C 307.855469 310.351562 310.824219 310.601562 313.433594 310.710938 C 332.96875 311.714844 333.875 301.742188 335.390625 285.230469 C 335.960938 279.003906 336.605469 271.957031 338.578125 265.199219 C 341.679688 254.613281 347.945312 250.484375 352.503906 247.472656 C 356.773438 244.652344 358.496094 243.351562 358.277344 239.214844 C 358.203125 237.671875 355.289062 234.453125 352.734375 231.613281 C 346.261719 224.4375 336.472656 213.613281 336.441406 196.300781 C 336.417969 192.238281 336.820312 187.015625 337.214844 181.96875 C 337.519531 178.082031 337.804688 174.410156 337.902344 171.355469 C 338.578125 149.421875 330.296875 129.359375 313.945312 113.324219 C 292.9375 92.722656 261.808594 81.890625 228.542969 83.636719 L 227.332031 83.691406 C 221.6875 83.976562 219.351562 84.09375 213.808594 85.089844 C 211.898438 85.417969 210.097656 84.160156 209.761719 82.261719 C 209.421875 80.359375 210.6875 78.546875 212.585938 78.207031 C 218.558594 77.136719 221.199219 77.007812 226.972656 76.710938 L 228.183594 76.648438 C 263.414062 74.855469 296.441406 86.378906 318.835938 108.332031 C 336.363281 125.511719 345.617188 147.96875 344.875 171.570312 C 344.777344 174.792969 344.484375 178.539062 344.179688 182.503906 C 343.796875 187.410156 343.402344 192.488281 343.425781 196.277344 C 343.457031 210.914062 351.816406 220.164062 357.917969 226.925781 C 361.902344 231.339844 365.046875 234.824219 365.253906 238.851562 C 365.691406 247.144531 360.734375 250.421875 356.359375 253.304688 C 352.078125 256.121094 347.671875 259.039062 345.292969 267.164062 C 343.5 273.269531 342.914062 279.671875 342.34375 285.863281 C 340.847656 302.179688 339.320312 319.035156 313.105469 317.691406 C 310.378906 317.582031 307.34375 317.320312 304.125 317.035156 C 293.382812 316.105469 280.015625 314.949219 273.5 319.777344 C 263.25 327.378906 257.007812 344.101562 255.46875 352.859375 C 255.171875 354.554688 253.699219 355.753906 252.042969 355.753906 "/>
<path style=" stroke:none;fill-rule:nonzero;fill:rgb(30.589294%,25.489807%,56.469727%);fill-opacity:1;" d="M 340.9375 273.609375 C 340.195312 273.609375 339.441406 273.367188 338.808594 272.875 C 338.535156 272.679688 331.800781 267.730469 322.230469 270.34375 C 320.363281 270.84375 318.453125 269.753906 317.941406 267.886719 C 317.4375 266.027344 318.53125 264.105469 320.394531 263.59375 C 333.429688 260.042969 342.683594 267.042969 343.074219 267.339844 C 344.605469 268.519531 344.886719 270.714844 343.707031 272.242188 C 343.019531 273.136719 341.984375 273.609375 340.9375 273.609375 "/>
<path style=" stroke:none;fill-rule:nonzero;fill:rgb(30.589294%,25.489807%,56.469727%);fill-opacity:1;" d="M 328.332031 199.632812 C 328.332031 203.082031 325.535156 205.867188 322.097656 205.867188 C 318.660156 205.867188 315.867188 203.082031 315.867188 199.632812 C 315.867188 196.191406 318.660156 193.394531 322.097656 193.394531 C 325.535156 193.394531 328.332031 196.191406 328.332031 199.632812 "/>
<path style=" stroke:none;fill-rule:nonzero;fill:rgb(30.589294%,25.489807%,56.469727%);fill-opacity:1;" d="M 76.847656 201.457031 C 76.847656 204.894531 74.066406 207.691406 70.617188 207.691406 C 67.179688 207.691406 64.382812 204.894531 64.382812 201.457031 C 64.382812 198.015625 67.179688 195.21875 70.617188 195.21875 C 74.066406 195.21875 76.847656 198.015625 76.847656 201.457031 "/>
<g clip-path="url(#clip1)" clip-rule="nonzero">
<path style=" stroke:none;fill-rule:nonzero;fill:rgb(30.589294%,25.489807%,56.469727%);fill-opacity:1;" d="M 103.621094 308.777344 C 111.171875 308.777344 118.167969 310.023438 122.882812 314.402344 C 128.746094 319.863281 133.152344 339.140625 135.804688 354.367188 C 136.003906 355.480469 136.972656 356.289062 138.121094 356.289062 L 232.972656 356.289062 C 233.726562 356.289062 234.414062 355.941406 234.863281 355.351562 C 235.125 355 235.515625 354.28125 235.234375 353.308594 C 232.035156 342.308594 226.511719 321.25 225.410156 303.90625 C 224.734375 293.179688 227.855469 277.386719 235.136719 267.929688 C 262.246094 232.726562 271.28125 205.003906 266.328125 172.226562 C 258.261719 118.871094 220.738281 86.574219 163.386719 83.636719 C 130.097656 81.878906 98.980469 92.734375 77.984375 113.324219 C 61.632812 129.359375 53.351562 149.421875 54.027344 171.355469 C 54.125 174.410156 54.410156 178.082031 54.714844 181.96875 C 55.105469 187.015625 55.511719 192.238281 55.488281 196.3125 C 55.457031 213.613281 45.667969 224.4375 39.195312 231.613281 C 36.640625 234.453125 33.726562 237.671875 33.648438 239.214844 C 33.429688 243.351562 35.15625 244.652344 39.421875 247.472656 C 43.984375 250.484375 50.25 254.613281 53.351562 265.207031 C 55.324219 271.957031 55.96875 279.003906 56.535156 285.230469 C 58.054688 301.742188 58.992188 311.738281 78.464844 310.710938 C 81.300781 310.589844 84.574219 310.253906 88.035156 309.882812 C 93.132812 309.347656 98.511719 308.777344 103.621094 308.777344 Z M 232.972656 363.28125 L 138.121094 363.28125 C 133.578125 363.28125 129.714844 360.035156 128.929688 355.570312 C 125.632812 336.707031 121.386719 322.5625 118.125 319.527344 C 112.535156 314.328125 99.351562 315.722656 88.765625 316.839844 C 85.1875 317.210938 81.8125 317.570312 78.78125 317.691406 C 52.664062 319.042969 51.078125 302.179688 49.585938 285.863281 C 49.015625 279.671875 48.425781 273.269531 46.636719 267.175781 C 44.257812 259.039062 39.847656 256.121094 35.570312 253.304688 C 31.203125 250.421875 26.238281 247.144531 26.675781 238.851562 C 26.882812 234.824219 30.027344 231.339844 34.011719 226.925781 C 40.109375 220.164062 48.472656 210.914062 48.503906 196.289062 C 48.527344 192.488281 48.132812 187.410156 47.75 182.503906 C 47.445312 178.539062 47.152344 174.792969 47.050781 171.570312 C 46.320312 147.96875 55.566406 125.511719 73.09375 108.332031 C 95.488281 86.378906 128.539062 74.84375 163.746094 76.648438 C 224.710938 79.78125 264.625 114.242188 273.238281 171.179688 C 278.429688 205.59375 268.695312 235.804688 240.667969 272.1875 C 234.503906 280.195312 231.796875 294.273438 232.386719 303.457031 C 233.445312 320.148438 238.824219 340.628906 241.945312 351.351562 C 242.765625 354.191406 242.21875 357.183594 240.449219 359.542969 C 238.671875 361.914062 235.941406 363.28125 232.972656 363.28125 "/>
</g>
<path style=" stroke:none;fill-rule:nonzero;fill:rgb(30.589294%,25.489807%,56.469727%);fill-opacity:1;" d="M 52.957031 273.476562 C 51.460938 273.476562 50.589844 273.367188 50.480469 273.355469 C 48.570312 273.09375 47.226562 271.335938 47.476562 269.425781 C 47.738281 267.523438 49.476562 266.191406 51.386719 266.421875 C 51.484375 266.433594 58.425781 267.207031 67.527344 263.058594 C 69.285156 262.261719 71.347656 263.035156 72.15625 264.792969 C 72.953125 266.550781 72.175781 268.628906 70.417969 269.425781 C 62.746094 272.921875 56.308594 273.476562 52.957031 273.476562 "/>
<g clip-path="url(#clip2)" clip-rule="nonzero">
<path style=" stroke:none;fill-rule:nonzero;fill:rgb(30.589294%,25.489807%,56.469727%);fill-opacity:1;" d="M 142.519531 37.851562 L 133.230469 42.929688 C 132.933594 43.09375 132.683594 43.34375 132.511719 43.648438 L 127.433594 52.933594 C 127.097656 53.558594 126.472656 53.875 125.851562 53.875 C 125.242188 53.875 124.617188 53.558594 124.28125 52.933594 L 119.207031 43.648438 C 119.03125 43.34375 118.789062 43.09375 118.484375 42.929688 L 109.199219 37.851562 C 107.953125 37.164062 107.953125 35.371094 109.199219 34.683594 L 118.484375 29.605469 C 118.789062 29.441406 119.03125 29.1875 119.207031 28.882812 L 124.28125 19.597656 C 124.617188 18.976562 125.242188 18.660156 125.851562 18.660156 C 126.472656 18.660156 127.097656 18.976562 127.433594 19.597656 L 132.511719 28.882812 C 132.683594 29.1875 132.933594 29.441406 133.230469 29.605469 L 142.519531 34.683594 C 143.761719 35.371094 143.761719 37.164062 142.519531 37.851562 Z M 145.867188 28.554688 L 137.914062 24.199219 L 133.570312 16.246094 C 132.03125 13.429688 129.070312 11.667969 125.851562 11.667969 C 122.644531 11.667969 119.695312 13.429688 118.148438 16.246094 L 113.804688 24.199219 L 105.847656 28.554688 C 103.03125 30.097656 101.273438 33.054688 101.273438 36.265625 C 101.273438 39.476562 103.03125 42.4375 105.847656 43.976562 L 113.804688 48.335938 L 118.148438 56.296875 C 119.695312 59.117188 122.644531 60.863281 125.851562 60.863281 C 129.070312 60.863281 132.03125 59.117188 133.570312 56.296875 L 137.914062 48.335938 L 145.867188 43.976562 C 148.683594 42.4375 150.441406 39.476562 150.441406 36.265625 C 150.441406 33.054688 148.683594 30.097656 145.867188 28.554688 "/>
</g>
<path style=" stroke:none;fill-rule:nonzero;fill:rgb(30.589294%,25.489807%,56.469727%);fill-opacity:1;" d="M 83.253906 70.039062 L 77.578125 73.152344 C 77.394531 73.25 77.242188 73.402344 77.140625 73.589844 L 74.03125 79.269531 C 73.824219 79.648438 73.441406 79.847656 73.070312 79.847656 C 72.691406 79.847656 72.308594 79.648438 72.101562 79.269531 L 68.988281 73.589844 C 68.890625 73.402344 68.738281 73.25 68.554688 73.152344 L 62.878906 70.039062 C 62.113281 69.625 62.113281 68.53125 62.878906 68.105469 L 68.554688 64.992188 C 68.738281 64.894531 68.890625 64.742188 68.988281 64.554688 L 72.101562 58.875 C 72.308594 58.492188 72.691406 58.308594 73.070312 58.308594 C 73.441406 58.308594 73.824219 58.492188 74.03125 58.875 L 77.140625 64.554688 C 77.242188 64.742188 77.394531 64.894531 77.578125 64.992188 L 83.253906 68.105469 C 84.019531 68.53125 84.019531 69.625 83.253906 70.039062 Z M 86.605469 61.96875 L 82.4375 59.695312 L 80.164062 55.523438 C 78.746094 52.921875 76.03125 51.316406 73.070312 51.316406 C 70.113281 51.316406 67.386719 52.921875 65.964844 55.523438 L 63.695312 59.695312 L 59.527344 61.96875 C 56.929688 63.386719 55.3125 66.117188 55.3125 69.078125 C 55.3125 72.039062 56.929688 74.757812 59.527344 76.175781 L 63.695312 78.460938 L 65.964844 82.621094 C 67.386719 85.21875 70.113281 86.835938 73.070312 86.835938 C 76.03125 86.835938 78.746094 85.21875 80.164062 82.621094 L 82.4375 78.460938 L 86.605469 76.175781 C 89.203125 74.757812 90.808594 72.039062 90.808594 69.078125 C 90.808594 66.117188 89.203125 63.386719 86.605469 61.96875 "/>
<path style=" stroke:none;fill-rule:nonzero;fill:rgb(30.589294%,25.489807%,56.469727%);fill-opacity:1;" d="M 226.273438 66.738281 C 225.355469 66.738281 224.449219 66.378906 223.761719 65.667969 C 222.421875 64.28125 222.453125 62.078125 223.839844 60.734375 C 229.765625 54.988281 228.457031 53.535156 224.953125 49.636719 C 221.601562 45.898438 216.539062 40.265625 222.441406 30.839844 C 223.46875 29.199219 225.628906 28.707031 227.265625 29.734375 C 228.890625 30.761719 229.394531 32.925781 228.359375 34.550781 C 225.246094 39.511719 226.992188 41.445312 230.148438 44.960938 C 233.859375 49.089844 239.457031 55.328125 228.695312 65.757812 C 228.019531 66.414062 227.144531 66.738281 226.273438 66.738281 "/>
<path style=" stroke:none;fill-rule:nonzero;fill:rgb(30.589294%,25.489807%,56.469727%);fill-opacity:1;" d="M 295.753906 66.738281 C 294.847656 66.738281 293.929688 66.378906 293.242188 65.667969 C 291.898438 64.28125 291.941406 62.078125 293.320312 60.734375 C 299.253906 54.988281 297.933594 53.535156 294.441406 49.636719 C 291.082031 45.898438 286.015625 40.265625 291.933594 30.839844 C 292.957031 29.199219 295.121094 28.707031 296.746094 29.734375 C 298.382812 30.761719 298.875 32.925781 297.847656 34.550781 C 294.738281 39.511719 296.472656 41.445312 299.636719 44.960938 C 303.335938 49.089844 308.949219 55.328125 298.1875 65.757812 C 297.507812 66.414062 296.625 66.738281 295.753906 66.738281 "/>
<path style=" stroke:none;fill-rule:nonzero;fill:rgb(30.589294%,25.489807%,56.469727%);fill-opacity:1;" d="M 261.199219 70.367188 C 260.28125 70.367188 259.375 70.015625 258.6875 69.308594 C 257.34375 67.917969 257.378906 65.703125 258.765625 64.371094 C 269.527344 53.949219 266.359375 50.433594 260.621094 44.042969 C 255.445312 38.277344 248.351562 30.378906 256.875 16.804688 C 257.902344 15.164062 260.0625 14.671875 261.6875 15.699219 C 263.328125 16.726562 263.816406 18.878906 262.792969 20.515625 C 257.074219 29.636719 260.738281 33.722656 265.816406 39.367188 C 271.46875 45.660156 279.21875 54.277344 263.632812 69.382812 C 262.945312 70.050781 262.070312 70.367188 261.199219 70.367188 "/>
</g>
</svg>
