<?xml version="1.0" encoding="UTF-8"?>
<svg xmlns="http://www.w3.org/2000/svg" xmlns:xlink="http://www.w3.org/1999/xlink" width="375pt" height="374.999991pt" viewBox="0 0 375 374.999991" version="1.2">
<defs>
<clipPath id="clip1">
  <path d="M 16.222656 6 L 357 6 L 357 374 L 16.222656 374 Z M 16.222656 6 "/>
</clipPath>
</defs>
<g id="surface1">
<rect x="0" y="0" width="375" height="374.999991" style="fill:rgb(100%,100%,100%);fill-opacity:1;stroke:none;"/>
<rect x="0" y="0" width="375" height="374.999991" style="fill:rgb(100%,100%,100%);fill-opacity:1;stroke:none;"/>
<g clip-path="url(#clip1)" clip-rule="nonzero">
<path style=" stroke:none;fill-rule:nonzero;fill:rgb(0%,37.649536%,39.219666%);fill-opacity:1;" d="M 236.757812 373.683594 L 236.757812 331.429688 L 260.667969 336.019531 C 287.300781 341.546875 312.109375 322.246094 313.9375 295.640625 L 319.460938 235.957031 L 346.089844 224.945312 C 355.28125 221.257812 358.972656 210.238281 353.449219 201.054688 L 319.460938 144.136719 C 313.929688 74.335938 274.453125 6.410156 172.4375 6.410156 C 67.699219 6.410156 16.222656 83.519531 16.222656 162.5 C 16.222656 196.464844 28.179688 225.835938 46.554688 250.664062 C 63.105469 273.621094 71.355469 301.167969 71.355469 328.710938 L 71.355469 373.683594 Z M 236.757812 373.683594 "/>
</g>
<path style=" stroke:none;fill-rule:nonzero;fill:rgb(79.60968%,42.349243%,90.19928%);fill-opacity:1;" d="M 95.265625 85.859375 C 111.761719 74.417969 129.339844 64.777344 148.039062 62.125 C 157.394531 60.8125 167.035156 61.160156 176.9375 62.382812 C 186.117188 63.472656 199.964844 66.082031 200.445312 66.15625 L 197.695312 81.324219 C 212.832031 75.914062 228.5625 70.488281 243.320312 64.171875 C 230.375 54.476562 218.621094 44.21875 206.308594 33.789062 L 203.558594 48.957031 L 194.929688 47.425781 C 189.738281 46.523438 184.445312 45.652344 179.035156 45.027344 C 168.273438 43.695312 156.90625 43.210938 145.566406 44.816406 C 122.660156 48.113281 102.738281 59.40625 85.167969 71.574219 Z M 95.265625 85.859375 "/>
<path style=" stroke:none;fill-rule:nonzero;fill:rgb(100%,100%,100%);fill-opacity:1;" d="M 213.546875 108.925781 C 202.410156 105.125 190.980469 101.835938 179.050781 99.871094 C 167.117188 98.027344 154.691406 97.722656 142.515625 99.457031 C 130.332031 101.164062 118.589844 104.882812 107.636719 109.667969 C 97.308594 113.929688 83.488281 122.238281 83.488281 122.238281 L 75.640625 108.960938 C 66.816406 123.558594 59.769531 138.140625 52.980469 152.742188 C 69.015625 151.316406 85.050781 150.195312 100.230469 150.5625 L 92.382812 137.289062 C 92.382812 137.289062 105.457031 129.4375 114.65625 125.671875 C 124.507812 121.382812 134.632812 118.207031 144.960938 116.765625 C 155.289062 115.296875 165.820312 115.515625 176.339844 117.132812 C 186.863281 118.867188 197.328125 121.863281 207.703125 125.386719 Z M 213.546875 108.925781 "/>
<path style=" stroke:none;fill-rule:nonzero;fill:rgb(36.079407%,88.238525%,90.19928%);fill-opacity:1;" d="M 62.710938 176.042969 C 64.859375 189.0625 69.425781 201.660156 77.523438 212.644531 C 81.585938 218.089844 86.574219 223.164062 92.796875 227.03125 C 98.960938 230.90625 106.597656 233.359375 114.269531 233.273438 C 121.886719 233.175781 129.332031 231.183594 135.929688 226.828125 C 142.472656 222.457031 146.761719 216.648438 150.320312 211.210938 C 153.882812 205.683594 156.605469 200.175781 159.324219 194.683594 L 163.402344 186.007812 L 177.425781 192.433594 C 176.09375 175.960938 174.101562 160.1875 172.4375 144.136719 C 159.414062 153.546875 146.414062 163.402344 133.484375 172.289062 L 147.507812 178.714844 L 143.59375 187.054688 C 141.054688 192.1875 138.484375 197.335938 135.597656 201.78125 C 129.890625 211.121094 123.285156 215.757812 114.195312 215.792969 C 105.824219 215.984375 97.59375 210.421875 91.582031 202.25 C 85.507812 194.105469 81.695312 183.777344 80.003906 173.445312 Z M 62.710938 176.042969 "/>
<path style=" stroke:none;fill-rule:nonzero;fill:rgb(32.159424%,44.309998%,100%);fill-opacity:1;" d="M 238.035156 93.066406 C 243.667969 100.769531 249.101562 108.53125 253.757812 116.453125 C 258.335938 124.351562 262.257812 132.539062 263.574219 140.328125 C 263.941406 142.273438 264.078125 144.164062 264.050781 145.992188 C 264.050781 147.480469 263.867188 149.039062 263.519531 150.546875 C 262.867188 153.546875 261.285156 156.460938 258.65625 158.15625 C 257.390625 159.046875 255.929688 159.617188 254.457031 160.085938 C 253.703125 160.363281 252.988281 160.460938 252.335938 160.636719 C 251.414062 160.902344 250.277344 161.023438 249.238281 161.214844 C 243.640625 162.023438 243.570312 161.949219 241.546875 162.152344 L 240.085938 146.808594 C 227.992188 155.910156 213.105469 164.851562 200.730469 174.898438 C 215.957031 180.765625 228.96875 188.15625 244.671875 194.902344 L 243.210938 179.5625 C 245.425781 179.332031 245.304688 179.449219 252.050781 178.46875 C 253.402344 178.230469 254.679688 178.082031 256.101562 177.707031 C 257.800781 177.285156 259.492188 176.960938 261 176.375 C 264.113281 175.328125 267.136719 173.976562 269.785156 172.058594 C 275.261719 168.359375 278.632812 162.335938 280.261719 156.027344 C 281.042969 152.839844 281.566406 149.574219 281.554688 146.210938 C 281.59375 143.199219 281.34375 140.226562 280.828125 137.40625 C 278.808594 125.992188 273.949219 116.492188 268.882812 107.640625 C 263.703125 98.832031 257.976562 90.679688 252.160156 82.726562 Z M 238.035156 93.066406 "/>
</g>
</svg>
