<?xml version="1.0" encoding="UTF-8"?>
<svg xmlns="http://www.w3.org/2000/svg" xmlns:xlink="http://www.w3.org/1999/xlink" width="375pt" height="374.999991pt" viewBox="0 0 375 374.999991" version="1.2">
<g id="surface1">
<path style=" stroke:none;fill-rule:nonzero;fill:rgb(1.179504%,38.42926%,39.219666%);fill-opacity:1;" d="M 301.175781 132.339844 C 290.691406 82.457031 231.191406 39.972656 177.617188 25.648438 C 134.128906 14.023438 83.625 21.894531 49.429688 53.226562 C -44.105469 138.925781 12.179688 305.496094 139.734375 315.226562 C 240.972656 322.953125 321.785156 230.441406 301.175781 132.339844 Z M 301.175781 132.339844 "/>
<path style=" stroke:none;fill-rule:nonzero;fill:rgb(25.489807%,26.269531%,43.919373%);fill-opacity:1;" d="M 151.582031 317.507812 C 147.605469 317.507812 143.609375 317.355469 139.59375 317.050781 C 98.128906 313.886719 61.054688 293.757812 35.203125 260.367188 C 11.109375 229.25 -1.203125 188.980469 1.414062 149.886719 C 1.480469 148.878906 2.34375 148.105469 3.359375 148.183594 C 4.363281 148.25 5.125 149.125 5.058594 150.128906 C 0.15625 223.332031 50.304688 306.574219 139.871094 313.40625 C 187.597656 317.042969 233.191406 298.316406 264.988281 262.019531 C 296.546875 225.996094 309.082031 178.867188 299.386719 132.714844 C 288.886719 82.742188 228.566406 41.164062 177.144531 27.417969 C 150.277344 20.234375 121.367188 20.753906 95.738281 28.882812 C 94.777344 29.183594 93.75 28.652344 93.445312 27.691406 C 93.140625 26.726562 93.671875 25.699219 94.632812 25.394531 C 120.921875 17.0625 150.558594 16.523438 178.089844 23.882812 C 230.5625 37.914062 292.160156 80.558594 302.960938 131.964844 C 312.898438 179.25 300.058594 227.53125 267.734375 264.429688 C 237.851562 298.546875 196.042969 317.507812 151.582031 317.507812 Z M 151.582031 317.507812 "/>
<path style=" stroke:none;fill-rule:nonzero;fill:rgb(0%,76.078796%,79.60968%);fill-opacity:1;" d="M 187.894531 201.746094 C 187.730469 177.839844 188.570312 153.859375 186.855469 130.042969 C 185.804688 115.453125 186.03125 100.738281 184.316406 86.304688 C 183.359375 78.289062 182.113281 73.027344 162.109375 74.835938 L 162.148438 74.839844 C 158.121094 74.851562 147.425781 75.019531 143.863281 75.078125 C 126.011719 75.359375 124.648438 77.777344 122.035156 91.789062 C 115.523438 126.695312 118.835938 162.359375 117.617188 197.574219 C 117.175781 210.335938 119.132812 241.125 119.09375 253.207031 C 119.050781 266.789062 171.085938 260.910156 186.882812 257.605469 C 192.597656 256.414062 188.019531 220.597656 187.894531 201.746094 Z M 187.894531 201.746094 "/>
<path style=" stroke:none;fill-rule:nonzero;fill:rgb(0%,76.078796%,79.60968%);fill-opacity:1;" d="M 183.285156 133.84375 C 162.21875 134.007812 141.085938 133.164062 120.09375 134.878906 C 107.234375 135.929688 94.265625 135.703125 81.546875 137.425781 C 74.480469 138.378906 69.847656 139.625 71.441406 159.648438 L 71.441406 159.613281 C 71.453125 163.640625 71.597656 174.34375 71.652344 177.914062 C 71.902344 195.777344 74.035156 197.144531 86.378906 199.757812 C 117.144531 206.277344 148.578125 202.960938 179.613281 204.183594 C 190.859375 204.625 217.996094 202.664062 228.640625 202.703125 C 240.613281 202.746094 235.433594 150.664062 232.523438 134.855469 C 231.464844 129.132812 199.902344 133.714844 183.285156 133.84375 Z M 183.285156 133.84375 "/>
<path style=" stroke:none;fill-rule:nonzero;fill:rgb(49.409485%,85.099792%,34.118652%);fill-opacity:1;" d="M 334.019531 120.015625 C 333.550781 119.871094 333.058594 119.769531 332.554688 119.714844 C 325.261719 118.886719 317.28125 128.367188 312.039062 132.230469 C 304.199219 138.019531 296.722656 144.617188 289.589844 151.796875 C 255.835938 185.835938 230.785156 231.796875 219.777344 262.984375 C 212.996094 250.125 191.238281 231.964844 171.015625 221.585938 C 165.03125 233.304688 159.203125 244.945312 153.648438 256.476562 C 161.117188 259.085938 168.675781 266.496094 174.824219 271.21875 C 187.230469 280.734375 198.945312 290.757812 209.796875 301.40625 C 214.363281 305.894531 216.3125 309.363281 222.058594 312.269531 C 231.941406 317.316406 240.195312 294.511719 244.714844 287.1875 C 251.707031 275.667969 259.527344 264.570312 267.667969 253.738281 C 286.34375 228.914062 307.449219 205.292969 332.398438 188.417969 C 339.503906 183.617188 346.855469 179.230469 354.472656 175.550781 C 359.5625 173.082031 373.457031 172.019531 374.386719 165.519531 C 375.117188 160.367188 365.980469 154.203125 362.574219 150.425781 C 356.917969 144.183594 351.222656 137.863281 345.523438 131.464844 C 342.234375 127.769531 339.03125 121.558594 334.019531 120.015625 Z M 334.019531 120.015625 "/>
</g>
</svg>
