<?xml version="1.0" encoding="UTF-8"?>
<svg xmlns="http://www.w3.org/2000/svg" xmlns:xlink="http://www.w3.org/1999/xlink" width="375pt" height="374.999991pt" viewBox="0 0 375 374.999991" version="1.2">
<defs>
<clipPath id="clip1">
  <path d="M 7.15625 7.15625 L 367.90625 7.15625 L 367.90625 367.90625 L 7.15625 367.90625 Z M 7.15625 7.15625 "/>
</clipPath>
</defs>
<g id="surface1">
<rect x="0" y="0" width="375" height="374.999991" style="fill:rgb(100%,100%,100%);fill-opacity:1;stroke:none;"/>
<rect x="0" y="0" width="375" height="374.999991" style="fill:rgb(100%,100%,100%);fill-opacity:1;stroke:none;"/>
<rect x="0" y="0" width="375" height="374.999991" style="fill:rgb(100%,100%,100%);fill-opacity:1;stroke:none;"/>
<g clip-path="url(#clip1)" clip-rule="nonzero">
<path style=" stroke:none;fill-rule:nonzero;fill:rgb(20.779419%,44.309998%,50.19989%);fill-opacity:1;" d="M 7.15625 187.566406 C 7.15625 87.941406 87.941406 7.15625 187.566406 7.15625 C 287.1875 7.15625 367.976562 87.941406 367.976562 187.566406 C 367.976562 287.1875 287.1875 367.976562 187.566406 367.976562 C 87.941406 367.976562 7.15625 287.1875 7.15625 187.566406 Z M 7.15625 187.566406 "/>
</g>
<path style=" stroke:none;fill-rule:nonzero;fill:rgb(96.859741%,96.859741%,96.859741%);fill-opacity:1;" d="M 298.601562 130.480469 C 296.785156 126.917969 287.914062 118.847656 272.933594 126.191406 C 257.953125 133.535156 265.226562 149.679688 265.226562 149.679688 C 270.824219 161.097656 273.953125 173.964844 273.953125 187.492188 C 273.953125 235.195312 235.265625 273.878906 187.566406 273.878906 C 139.863281 273.878906 101.175781 235.195312 101.175781 187.492188 C 101.175781 142.84375 135.0625 106.121094 178.546875 101.539062 L 178.546875 123.9375 C 178.546875 123.9375 178.476562 125.246094 179.855469 126.121094 C 181.238281 126.992188 182.621094 126.121094 182.621094 126.121094 L 254.320312 83.871094 C 254.320312 83.871094 255.917969 83 255.917969 81.398438 C 255.917969 80.015625 254.320312 79.070312 254.320312 79.070312 L 182.910156 37.042969 C 182.910156 37.042969 181.3125 35.878906 179.855469 36.460938 C 178.402344 37.042969 178.621094 39.003906 178.621094 39.003906 L 178.621094 63 C 113.902344 67.65625 62.855469 121.609375 62.855469 187.492188 C 62.855469 256.425781 118.773438 312.347656 187.710938 312.347656 C 256.644531 312.347656 312.566406 256.425781 312.566406 187.492188 C 312.417969 166.984375 307.402344 147.570312 298.601562 130.480469 Z M 298.601562 130.480469 "/>
</g>
</svg>
