<?xml version="1.0" encoding="UTF-8"?>
<svg xmlns="http://www.w3.org/2000/svg" xmlns:xlink="http://www.w3.org/1999/xlink" width="375pt" height="374.999991pt" viewBox="0 0 375 374.999991" version="1.2">
<defs>
<clipPath id="clip1">
  <path d="M 4.5 54 L 370.5 54 L 370.5 175 L 4.5 175 Z M 4.5 54 "/>
</clipPath>
<clipPath id="clip2">
  <path d="M 19 11.300781 L 355 11.300781 L 355 337.550781 L 19 337.550781 Z M 19 11.300781 "/>
</clipPath>
</defs>
<g id="surface1">
<path style=" stroke:none;fill-rule:nonzero;fill:rgb(100%,100%,100%);fill-opacity:1;" d="M 43.011719 174.425781 C 43.011719 174.425781 107.28125 86.699219 186.574219 86.699219 C 265.867188 86.699219 330.074219 174.425781 330.074219 174.425781 C 330.074219 174.425781 265.875 262.15625 186.574219 262.15625 C 107.273438 262.15625 43.011719 174.425781 43.011719 174.425781 Z M 43.011719 174.425781 "/>
<path style=" stroke:none;fill-rule:nonzero;fill:rgb(0%,67.449951%,75.689697%);fill-opacity:1;" d="M 135.828125 123.355469 C 163.824219 95.320312 209.261719 95.28125 237.296875 123.3125 C 265.355469 151.378906 265.347656 196.855469 237.328125 224.847656 C 233.429688 228.746094 131.945312 127.246094 135.828125 123.355469 Z M 135.828125 123.355469 "/>
<path style=" stroke:none;fill-rule:nonzero;fill:rgb(0%,37.649536%,39.219666%);fill-opacity:1;" d="M 164.023438 151.546875 C 176.449219 139.113281 196.644531 139.058594 209.125 151.539062 C 221.644531 164.050781 221.5625 184.230469 209.132812 196.65625 C 201.246094 204.535156 156.148438 159.425781 164.023438 151.546875 Z M 164.023438 151.546875 "/>
<path style=" stroke:none;fill-rule:nonzero;fill:rgb(0%,37.649536%,39.219666%);fill-opacity:1;" d="M 186.574219 86.699219 C 265.875 86.699219 330.074219 174.425781 330.074219 174.425781 C 330.074219 174.425781 265.875 262.15625 186.574219 262.15625 C 107.273438 262.15625 43.011719 174.425781 43.011719 174.425781 C 43.011719 174.425781 107.273438 86.699219 186.574219 86.699219 M 186.574219 70.75 C 100.1875 70.75 32.964844 161.15625 30.144531 165 L 23.238281 174.425781 L 30.144531 183.855469 C 32.964844 187.699219 100.1875 278.105469 186.574219 278.105469 C 272.980469 278.105469 340.121094 187.699219 342.933594 183.855469 L 349.832031 174.425781 L 342.933594 165 C 340.121094 161.15625 272.980469 70.75 186.574219 70.75 Z M 186.574219 70.75 "/>
<g clip-path="url(#clip1)" clip-rule="nonzero">
<path style=" stroke:none;fill-rule:nonzero;fill:rgb(0%,37.649536%,39.219666%);fill-opacity:1;" d="M 44.386719 174.425781 C 48.5625 168.828125 111.117188 86.777344 187.714844 86.777344 C 264.304688 86.777344 326.796875 168.828125 330.972656 174.425781 L 370.5 174.425781 L 356.953125 155.851562 C 353.929688 151.722656 282.101562 54.796875 187.714844 54.796875 C 93.328125 54.796875 21.4375 151.714844 18.421875 155.835938 L 4.84375 174.425781 Z M 44.386719 174.425781 "/>
</g>
<path style=" stroke:none;fill-rule:nonzero;fill:rgb(0%,37.649536%,39.219666%);fill-opacity:1;" d="M 57.183594 136.882812 L 184.761719 264.488281 L 173.484375 275.765625 L 45.90625 148.164062 Z M 57.183594 136.882812 "/>
<path style=" stroke:none;fill-rule:nonzero;fill:rgb(0%,37.649536%,39.219666%);fill-opacity:1;" d="M 89.765625 239.878906 L 21.988281 172.089844 L 33.261719 160.8125 L 124.960938 252.53125 Z M 89.765625 239.878906 "/>
<path style=" stroke:none;fill-rule:nonzero;fill:rgb(0%,37.649536%,39.219666%);fill-opacity:1;" d="M 81.109375 112.960938 L 228.625 260.507812 L 217.347656 271.785156 L 69.832031 124.242188 Z M 81.109375 112.960938 "/>
<path style=" stroke:none;fill-rule:nonzero;fill:rgb(0%,67.449951%,75.689697%);fill-opacity:1;" d="M 329.816406 174.09375 C 329.976562 174.300781 330.074219 174.425781 330.074219 174.425781 C 330.074219 174.425781 299.574219 216.097656 254.65625 242.003906 L 266.3125 253.660156 C 311.222656 226.585938 341.085938 186.390625 342.933594 183.855469 L 349.832031 174.425781 L 349.59375 174.09375 Z M 329.816406 174.09375 "/>
<g clip-path="url(#clip2)" clip-rule="nonzero">
<path style="fill:none;stroke-width:4;stroke-linecap:butt;stroke-linejoin:round;stroke:rgb(21.569824%,27.839661%,30.979919%);stroke-opacity:1;stroke-miterlimit:10;" d="M 4.999962 5.000192 L 43.000126 42.999901 " transform="matrix(7.973855,0,0,7.975287,-4.271322,-16.979532)"/>
</g>
</g>
</svg>
